SplineFontDB: 3.0
FontName: Jost-HairlineItalic
FullName: Jost* 200 Hairline Italic
FamilyName: Jost* Hairline
Weight: Hairline
Copyright: This typeface is licensed under the SIL open font license.
UComments: "2018-6-8: Created with FontForge (http://fontforge.org)"
Version: 003.300
ItalicAngle: -10
UnderlinePosition: -100
UnderlineWidth: 50
Ascent: 800
Descent: 200
InvalidEm: 0
LayerCount: 2
Layer: 0 0 "Back" 1
Layer: 1 0 "Fore" 0
XUID: [1021 69 1495626776 760146]
FSType: 0
OS2Version: 0
OS2_WeightWidthSlopeOnly: 0
OS2_UseTypoMetrics: 0
CreationTime: 1528480336
ModificationTime: 1536030119
PfmFamily: 17
TTFWeight: 100
TTFWidth: 5
LineGap: 100
VLineGap: 0
OS2TypoAscent: 825
OS2TypoAOffset: 0
OS2TypoDescent: -225
OS2TypoDOffset: 0
OS2TypoLinegap: 100
OS2WinAscent: 900
OS2WinAOffset: 0
OS2WinDescent: 300
OS2WinDOffset: 0
HheadAscent: 1030
HheadAOffset: 0
HheadDescent: -350
HheadDOffset: 0
OS2CapHeight: 700
OS2XHeight: 460
OS2Vendor: 'PfEd'
Lookup: 1 0 0 "alt a" { "alt a"  } ['ss01' ('DFLT' <'dflt' > 'latn' <'dflt' > ) ]
Lookup: 1 0 0 "Tabular Numbers lookup" { "Tabular Numbers lookup"  } ['tnum' ('DFLT' <'dflt' > 'grek' <'dflt' > 'latn' <'dflt' > ) ]
Lookup: 258 0 0 "Jost-Hairline-Lets get our kern on" { "Jost-Hairline-kernin like nobodys business" [150,0,4] } ['kern' ('DFLT' <'dflt' > 'latn' <'dflt' > ) ]
MarkAttachClasses: 1
DEI: 91125
KernClass2: 16 14 "Jost-Hairline-kernin like nobodys business"
 15 slash seven V W
 175 quotedbl quotesingle asterisk grave dieresis ordfeminine macron degree acute ordmasculine circumflex breve dotaccent ring tilde quoteleft quoteright quotedblleft quotedblright
 17 nine question F P
 107 A L backslash Agrave Aacute Acircumflex Atilde Adieresis Aring Amacron Abreve Aogonek Lacute uni013B Lslash
 26 three eight B C germandbls
 5 K X Z
 125 at D G O Ograve Oacute Ocircumflex Otilde Odieresis Oslash Dcaron Dcroat Gcircumflex Gbreve Gdotaccent uni0122 Omacron Obreve

StartChar: H
Encoding: 72 72 0
Width: 627
VWidth: 0
Flags: HMW
LayerCount: 2
Fore
SplineSet
127.5 377 m 1
 129 387 l 1
 575.5 387 l 1
 574 377 l 1
 127.5 377 l 1
622.5 699.5 m 1
 633.5 699.5 l 1
 513 0 l 1
 502 0 l 1
 622.5 699.5 l 1
180 699.5 m 1
 191 699.5 l 1
 70.5 0 l 1
 59.5 0 l 1
 180 699.5 l 1
EndSplineSet
EndChar

StartChar: O
Encoding: 79 79 1
Width: 751
VWidth: 0
Flags: HMW
LayerCount: 2
Fore
SplineSet
92 350 m 0
 65.5 171.5 156.5 3.5 348.5 3 c 0
 542.5 2.5 694.5 161.5 724.5 350 c 0
 751 528.5 660 696.5 468 697 c 0
 274 697.5 122 538.5 92 350 c 0
81 350 m 0
 111.5 545.5 270.5 708.5 468.5 708 c 0
 664.5 707.5 762.5 535.5 735.5 350 c 0
 705 154.5 546 -8.5 348 -8 c 0
 152 -7.5 54 164.5 81 350 c 0
EndSplineSet
EndChar

StartChar: I
Encoding: 73 73 2
Width: 174
VWidth: 0
Flags: HMW
LayerCount: 2
Fore
SplineSet
175.5 699.5 m 1
 185.5 699.5 l 1
 64.5 0 l 1
 54.5 0 l 1
 175.5 699.5 l 1
EndSplineSet
EndChar

StartChar: C
Encoding: 67 67 3
Width: 664
VWidth: 0
Flags: HMW
LayerCount: 2
Fore
SplineSet
93 350 m 0
 67 173.5 153 6 342 4.5 c 0
 436 4 510 35 575.5 87 c 1
 572.5 71.5 l 1
 506.5 23 435.5 -8 341 -7.5 c 0
 145 -6.5 54 165.5 81 350 c 0
 111.5 545.5 264 707 462 708 c 0
 550.5 708.5 612.5 681.5 667.5 628.5 c 1
 665 613.5 l 1
 613.5 670.5 545 696.5 461 696 c 0
 270 695 123 539 93 350 c 0
EndSplineSet
EndChar

StartChar: E
Encoding: 69 69 4
Width: 494
VWidth: 0
Flags: HMW
LayerCount: 2
Fore
SplineSet
62 0 m 1
 63.5 10 l 1
 392 10 l 1
 390.5 0 l 1
 62 0 l 1
180 690 m 1
 181.5 700 l 1
 509.5 700 l 1
 508 690 l 1
 180 690 l 1
127.5 384 m 1
 129.5 394 l 1
 438 394 l 1
 436.5 384 l 1
 127.5 384 l 1
180 699.5 m 1
 191 699.5 l 1
 70.5 0 l 1
 59.5 0 l 1
 180 699.5 l 1
EndSplineSet
EndChar

StartChar: F
Encoding: 70 70 6
Width: 436
VWidth: 0
Flags: HMW
LayerCount: 2
Fore
SplineSet
180.5 689 m 1
 182.5 700 l 1
 471 700 l 1
 469 689 l 1
 180.5 689 l 1
126.5 373 m 1
 128.5 383 l 1
 407 383 l 1
 405.5 373 l 1
 126.5 373 l 1
180 699.5 m 1
 191 699.5 l 1
 70.5 0 l 1
 59.5 0 l 1
 180 699.5 l 1
EndSplineSet
EndChar

StartChar: G
Encoding: 71 71 7
Width: 742
VWidth: 0
Flags: HMW
LayerCount: 2
Fore
SplineSet
437 330 m 1
 438.5 340 l 1
 720 339.5 l 1
 685 162.5 547.5 -7.5 350.5 -7.5 c 0
 154.5 -7.5 54 164.5 81 350 c 0
 111.5 546 273 708.5 471.5 708 c 0
 587.5 708 667.5 646 716.5 556 c 1
 706 550 l 1
 665.5 637.5 581 697 471 697 c 0
 276.5 697.5 122.5 540.5 92 350 c 0
 65.5 172 159 3.5 351.5 3.5 c 0
 539 3.5 670.5 162 708 329.5 c 1
 437 330 l 1
EndSplineSet
EndChar

StartChar: T
Encoding: 84 84 8
Width: 418
VWidth: 0
Flags: HMW
LayerCount: 2
Fore
SplineSet
110 689 m 1
 111.5 700 l 1
 491.5 700 l 1
 489.5 689 l 1
 305 689 l 1
 187 0 l 1
 176 0 l 1
 294 689 l 1
 110 689 l 1
EndSplineSet
EndChar

StartChar: L
Encoding: 76 76 9
Width: 417
VWidth: 0
Flags: HMW
LayerCount: 2
Fore
SplineSet
180 699.5 m 1
 190 699.5 l 1
 71.5 10 l 1
 372.5 10 l 1
 371 0 l 1
 60 0 l 1
 180 699.5 l 1
EndSplineSet
EndChar

StartChar: D
Encoding: 68 68 10
Width: 616
VWidth: 0
Flags: HMW
LayerCount: 2
Fore
SplineSet
180 699.5 m 1
 191 699.5 l 1
 70.5 0 l 1
 59.5 0 l 1
 180 699.5 l 1
216 0 m 2
 65 0 l 1
 67 11 l 1
 217 11 l 2
 416 11 558.5 157 589.5 350 c 0
 617.5 533 529.5 689 333.5 689 c 2
 182.5 689 l 1
 184.5 700 l 1
 334.5 700 l 2
 535.5 700 629 538.5 600.5 350 c 0
 569 152 420 0 216 0 c 2
EndSplineSet
EndChar

StartChar: Q
Encoding: 81 81 11
Width: 748
VWidth: 0
Flags: HMW
LayerCount: 2
Fore
SplineSet
92 350 m 0
 65.5 171.5 156.5 3.5 348.5 3 c 0
 542.5 2.5 694.5 161.5 724.5 350 c 0
 751 528.5 660 696.5 468 697 c 0
 274 697.5 122 538.5 92 350 c 0
81 350 m 0
 111.5 545.5 270.5 708.5 468.5 708 c 0
 664.5 707.5 762.5 535.5 735.5 350 c 0
 705 154.5 546 -8.5 348 -8 c 0
 152 -7.5 54 164.5 81 350 c 0
412 300 m 1
 427 300 l 1
 687.5 0 l 1
 672 0 l 1
 412 300 l 1
EndSplineSet
EndChar

StartChar: A
Encoding: 65 65 12
Width: 582
VWidth: 0
Flags: HMW
LayerCount: 2
Fore
SplineSet
144.5 272 m 1
 146 282 l 1
 479 282 l 1
 477.5 272 l 1
 144.5 272 l 1
382.5 688 m 1
 152.5 277 l 1
 151 273 l 1
 -1.5 0 l 1
 -13.5 0 l 1
 386.5 715 l 1
 540.5 0 l 1
 528.5 0 l 1
 472 273 l 1
 471.5 276 l 1
 382.5 688 l 1
EndSplineSet
EndChar

StartChar: R
Encoding: 82 82 13
Width: 454
VWidth: 0
Flags: HMW
LayerCount: 2
Fore
SplineSet
220 317 m 1
 231.5 317 l 1
 393 0 l 1
 380 0 l 1
 220 317 l 1
180 699.5 m 1
 191 699.5 l 1
 70.5 0 l 1
 59.5 0 l 1
 180 699.5 l 1
179.5 689 m 1
 181.5 700 l 1
 291 700 l 2
 415 700 507.5 631 487.5 507 c 0
 467 381 355.5 316 226 314 c 1
 115.5 314 l 1
 117.5 324 l 1
 226.5 324 l 1
 351.5 326 457 387 477 507 c 0
 496.5 625.5 409.5 686.5 290 689 c 1
 179.5 689 l 1
EndSplineSet
EndChar

StartChar: V
Encoding: 86 86 14
Width: 582
VWidth: 0
Flags: HMW
LayerCount: 2
Fore
SplineSet
275.5 15 m 1
 646 699.5 l 1
 659 699.5 l 1
 271 -15 l 1
 105.5 700 l 1
 118 700 l 1
 275.5 15 l 1
EndSplineSet
EndChar

StartChar: M
Encoding: 77 77 15
Width: 805
VWidth: 0
Flags: HMW
LayerCount: 2
Fore
SplineSet
226.5 674.5 m 1
 41 0 l 1
 30.5 0 l 1
 226.5 715 l 1
 397.5 131.5 l 1
 770.5 715.5 l 1
 719.5 0 l 1
 709 0 l 1
 756.5 673.5 l 1
 393.5 104.5 l 1
 226.5 674.5 l 1
EndSplineSet
EndChar

StartChar: W
Encoding: 87 87 16
Width: 921
VWidth: 0
Flags: HMW
LayerCount: 2
Fore
SplineSet
660.5 26.5 m 1
 983 699.5 l 1
 994 699.5 l 1
 654.5 -15.5 l 1
 548.5 676.5 l 1
 227.5 -15.5 l 1
 110 700 l 1
 121 700 l 1
 233.5 26.5 l 1
 554.5 715.5 l 1
 660.5 26.5 l 1
EndSplineSet
EndChar

StartChar: N
Encoding: 78 78 17
Width: 645
VWidth: 0
Flags: HMW
LayerCount: 2
Fore
SplineSet
659.5 699.5 m 1
 670.5 699.5 l 1
 547.5 -15 l 1
 148.5 678 l 1
 31.5 0 l 1
 20.5 0 l 1
 143.5 715 l 1
 542 17 l 1
 659.5 699.5 l 1
EndSplineSet
EndChar

StartChar: a
Encoding: 97 97 18
Width: 525
VWidth: 0
Flags: HMW
LayerCount: 2
Fore
SplineSet
489.5 459.5 m 1
 499.5 459.5 l 1
 419.5 0 l 1
 410 0 l 1
 489.5 459.5 l 1
55.5 230 m 0
 75 361.5 176.5 471 303 469.5 c 0
 427.5 468 470.5 336.5 455 230 c 0
 436.5 115.5 347 -9 222 -9.5 c 0
 95.5 -10 38.5 105.5 55.5 230 c 0
65.5 230 m 0
 49 111 103.5 -0.5 225.5 0.5 c 0
 340 1.5 432 119.5 450 230 c 0
 465 332 418.5 457.5 305 459.5 c 0
 183.5 462 84.5 356 65.5 230 c 0
EndSplineSet
Substitution2: "alt a" a.alt
EndChar

StartChar: X
Encoding: 88 88 19
Width: 485
VWidth: 0
Flags: HMW
LayerCount: 2
Fore
SplineSet
528.5 699 m 1
 542.5 699 l 1
 290.5 366.5 l 1
 449 0 l 1
 435.5 0 l 1
 283 355.5 l 1
 15.5 0 l 1
 1.5 0 l 1
 278.5 367.5 l 1
 134 700 l 1
 147.5 700 l 1
 286 377.5 l 1
 528.5 699 l 1
EndSplineSet
EndChar

StartChar: K
Encoding: 75 75 20
Width: 440
VWidth: 0
Flags: HMW
LayerCount: 2
Fore
SplineSet
175.5 699.5 m 1
 186 699.5 l 1
 65.5 0 l 1
 54.5 0 l 1
 175.5 699.5 l 1
488.5 699 m 1
 504.5 699 l 1
 141 371.5 l 1
 398 0 l 1
 383 0 l 1
 127.5 372.5 l 1
 488.5 699 l 1
EndSplineSet
EndChar

StartChar: Y
Encoding: 89 89 21
Width: 492
VWidth: 0
Flags: HMW
LayerCount: 2
Fore
SplineSet
557.5 699 m 1
 570.5 699 l 1
 265 266.5 l 1
 219 0 l 1
 208 0 l 1
 254.5 266.5 l 1
 107 700 l 1
 119.5 700 l 1
 261 281.5 l 1
 557.5 699 l 1
EndSplineSet
EndChar

StartChar: B
Encoding: 66 66 22
Width: 480
VWidth: 0
Flags: HMW
LayerCount: 2
Fore
SplineSet
133 386 m 1
 134 394 l 1
 233.5 394 l 1
 331.5 396 424 439 440.5 540 c 0
 457 634.5 389.5 689 285 689 c 2
 188 689 l 1
 71.5 11 l 1
 178 11 l 2
 302.5 11 399.5 76 418.5 200 c 0
 435 309 343 384 242.5 384 c 2
 132.5 384 l 1
 133.5 392 l 1
 252.5 392 l 2
 347 392 445.5 315.5 429.5 200 c 0
 410.5 69 307 0 177 0 c 2
 59.5 0 l 1
 180 700 l 1
 286 700 l 2
 395.5 700 468.5 639.5 451.5 539.5 c 0
 435 436 345 388 243 386 c 1
 133 386 l 1
EndSplineSet
EndChar

StartChar: Z
Encoding: 90 90 23
Width: 519
VWidth: 0
Flags: HMW
LayerCount: 2
Fore
SplineSet
129 689 m 1
 131 700 l 1
 597.5 700 l 1
 16 11.5 l 1
 470 11.5 l 1
 468 0 l 1
 -8.5 0 l 1
 573.5 689 l 1
 129 689 l 1
EndSplineSet
EndChar

StartChar: o
Encoding: 111 111 24
Width: 539
VWidth: 0
Flags: HMW
LayerCount: 2
Fore
SplineSet
61.5 230 m 0
 80 361.5 191 470 324.5 469.5 c 0
 456.5 469 531.5 356 514.5 230 c 0
 496 98.5 385 -10 251.5 -9.5 c 0
 119.5 -9 44.5 104 61.5 230 c 0
71.5 230 m 0
 55 109.5 126.5 1 252 0.5 c 0
 379 0 486.5 104 504.5 230 c 0
 521 350.5 449.5 459 324 459.5 c 0
 197 460 89.5 356 71.5 230 c 0
EndSplineSet
EndChar

StartChar: J
Encoding: 74 74 25
Width: 191
VWidth: 0
Flags: HMW
LayerCount: 2
Fore
SplineSet
-178 -158.5 m 1
 -154.5 -184 -122 -208 -80 -208.5 c 0
 10 -210 44 -145 57.5 -50 c 2
 186 699.5 l 1
 197 699.5 l 1
 67 -60 l 2
 53 -153 14 -221 -79.5 -219.5 c 0
 -127 -219 -166 -190.5 -185.5 -165 c 1
 -178 -158.5 l 1
EndSplineSet
EndChar

StartChar: t
Encoding: 116 116 26
Width: 184
VWidth: 0
Flags: HMW
LayerCount: 2
Fore
SplineSet
68 460 m 1
 223.5 460 l 1
 221.5 450 l 1
 66 450 l 1
 68 460 l 1
166.5 619.5 m 1
 176.5 619.5 l 1
 69.5 0 l 1
 59.5 0 l 1
 166.5 619.5 l 1
EndSplineSet
EndChar

StartChar: d
Encoding: 100 100 27
Width: 525
VWidth: 0
Flags: HMW
LayerCount: 2
Fore
SplineSet
544 779.5 m 1
 554 779.5 l 1
 419.5 0 l 1
 410 0 l 1
 544 779.5 l 1
55.5 230 m 0
 75 361.5 176.5 471 303 469.5 c 0
 427.5 468 470.5 336.5 455 230 c 0
 436.5 115.5 347 -9 222 -9.5 c 0
 95.5 -10 38.5 105.5 55.5 230 c 0
65.5 230 m 0
 49 111 103.5 -0.5 225.5 0.5 c 0
 340 1.5 432 119.5 450 230 c 0
 465 332 418.5 457.5 305 459.5 c 0
 183.5 462 84.5 356 65.5 230 c 0
EndSplineSet
EndChar

StartChar: l
Encoding: 108 108 28
Width: 174
VWidth: 0
Flags: HMW
LayerCount: 2
Fore
SplineSet
189 779.5 m 1
 199 779.5 l 1
 64.5 0 l 1
 54.5 0 l 1
 189 779.5 l 1
EndSplineSet
EndChar

StartChar: i
Encoding: 105 105 29
Width: 184
VWidth: 0
Flags: HMW
LayerCount: 2
Fore
SplineSet
174 695 m 0
 174 701 177.5 705 184 705 c 0
 190.5 705 194 701 194 695 c 0
 194 689 190.5 685 184 685 c 0
 177.5 685 174 689 174 695 c 0
139.5 459.5 m 1
 149.5 459.5 l 1
 69.5 0 l 1
 59.5 0 l 1
 139.5 459.5 l 1
EndSplineSet
EndChar

StartChar: r
Encoding: 114 114 30
Width: 281
VWidth: 0
Flags: HMW
LayerCount: 2
Fore
SplineSet
144.5 459.5 m 1
 64.5 0 l 1
 54.5 0 l 1
 134.5 459.5 l 1
 144.5 459.5 l 1
310 440 m 1
 294 450.5 277 459 258 459.5 c 0
 172.5 462 127 362.5 112 280.5 c 1
 107 280.5 l 1
 122.5 371.5 167.5 473 258.5 469.5 c 0
 280 469 299.5 458.5 316.5 447.5 c 1
 310 440 l 1
EndSplineSet
EndChar

StartChar: c
Encoding: 99 99 31
Width: 473
VWidth: 0
Flags: HMW
LayerCount: 2
Fore
SplineSet
66.5 230 m 0
 50 109.5 122 1 247.5 0.5 c 0
 315 0.5 372.5 32 408 60 c 1
 406 47.5 l 1
 370.5 19 313.5 -9.5 247 -9.5 c 0
 115 -9.5 40 104 57 230 c 0
 75.5 361.5 186 470 319.5 469.5 c 0
 382 469.5 433.5 442.5 462 412 c 1
 460 399.5 l 1
 433 431 382 459.5 319 459.5 c 0
 192 459.5 85 356 66.5 230 c 0
EndSplineSet
EndChar

StartChar: b
Encoding: 98 98 32
Width: 525
VWidth: 0
Flags: HMW
LayerCount: 2
Fore
SplineSet
194 779.5 m 1
 59.5 0 l 1
 50 0 l 1
 184 779.5 l 1
 194 779.5 l 1
494 230 m 0
 474.5 98.5 373 -11 246.5 -9.5 c 0
 122 -8 79 123.5 94.5 230 c 0
 113 344.5 202 469 327 469.5 c 0
 453.5 470 511 354.5 494 230 c 0
484 230 m 0
 500.5 349 445.5 460.5 323.5 459.5 c 0
 209 458.5 117.5 340.5 99.5 230 c 0
 84.5 128 130.5 2.5 244 0.5 c 0
 365.5 -2 465 104 484 230 c 0
EndSplineSet
EndChar

StartChar: p
Encoding: 112 112 33
Width: 525
VWidth: 0
Flags: HMW
LayerCount: 2
Fore
SplineSet
22 -219.5 m 1
 12 -219.5 l 1
 129.5 459.5 l 1
 139.5 459.5 l 1
 22 -219.5 l 1
494 230 m 0
 474.5 98.5 373 -11 246.5 -9.5 c 0
 122 -8 79 123.5 94.5 230 c 0
 113 344.5 202 469 327 469.5 c 0
 453.5 470 511 354.5 494 230 c 0
484 230 m 0
 500.5 349 445.5 460.5 323.5 459.5 c 0
 209 458.5 117.5 340.5 99.5 230 c 0
 84.5 128 130.5 2.5 244 0.5 c 0
 365.5 -2 465 104 484 230 c 0
EndSplineSet
EndChar

StartChar: q
Encoding: 113 113 34
Width: 525
VWidth: 0
Flags: HMW
LayerCount: 2
Fore
SplineSet
372.5 -219.5 m 1
 489.5 459.5 l 1
 499.5 459.5 l 1
 382 -219.5 l 1
 372.5 -219.5 l 1
55.5 230 m 0
 75 361.5 176.5 471 303 469.5 c 0
 427.5 468 470.5 336.5 455 230 c 0
 436.5 115.5 347 -9 222 -9.5 c 0
 95.5 -10 38.5 105.5 55.5 230 c 0
65.5 230 m 0
 49 111 103.5 -0.5 225.5 0.5 c 0
 340 1.5 432 119.5 450 230 c 0
 465 332 418.5 457.5 305 459.5 c 0
 183.5 462 84.5 356 65.5 230 c 0
EndSplineSet
EndChar

StartChar: h
Encoding: 104 104 35
Width: 460
VWidth: 0
Flags: HMW
LayerCount: 2
Fore
SplineSet
199 779.5 m 1
 64.5 0 l 1
 54.5 0 l 1
 189 779.5 l 1
 199 779.5 l 1
396.5 320 m 2
 406 392.5 388 458.5 301.5 459.5 c 0
 205 460.5 132.5 369 112 281 c 1
 107 281 l 1
 127.5 379 200.5 470 302 469.5 c 0
 394 469 417 399 406.5 320 c 2
 350.5 0 l 1
 341 0 l 1
 396.5 320 l 2
EndSplineSet
EndChar

StartChar: n
Encoding: 110 110 36
Width: 460
VWidth: 0
Flags: HMW
LayerCount: 2
Fore
SplineSet
144.5 459.5 m 1
 64.5 0 l 1
 54.5 0 l 1
 134.5 459.5 l 1
 144.5 459.5 l 1
396.5 320 m 2
 406 392.5 388 458.5 301.5 459.5 c 0
 205 460.5 132.5 369 112 281 c 1
 107 281 l 1
 127.5 379 200.5 470 302 469.5 c 0
 394 469 417 399 406.5 320 c 2
 350.5 0 l 1
 341 0 l 1
 396.5 320 l 2
EndSplineSet
EndChar

StartChar: m
Encoding: 109 109 37
Width: 669
VWidth: 0
Flags: HMW
LayerCount: 2
Fore
SplineSet
357.5 320 m 2
 365.5 386.5 355 458 282 459.5 c 0
 200 461.5 130 365 112 281 c 1
 107 281 l 1
 125 374 195 471.5 282.5 469.5 c 0
 361.5 468 376.5 393.5 367.5 320 c 2
 312 0 l 1
 302 0 l 1
 357.5 320 l 2
144.5 459.5 m 1
 64.5 0 l 1
 54.5 0 l 1
 134.5 459.5 l 1
 144.5 459.5 l 1
615 320 m 2
 559.5 0 l 1
 549.5 0 l 1
 605 320 l 2
 613 386.5 602.5 458 529.5 459.5 c 0
 447 461.5 377.5 364.5 359.5 281 c 1
 352.5 281 l 1
 371 374.5 442.5 471.5 530 469.5 c 0
 609 468 624 393.5 615 320 c 2
EndSplineSet
EndChar

StartChar: k
Encoding: 107 107 38
Width: 361
VWidth: 0
Flags: HMW
LayerCount: 2
Fore
SplineSet
184 779.5 m 1
 194 779.5 l 1
 59.5 0 l 1
 50 0 l 1
 184 779.5 l 1
369.5 459 m 1
 385.5 459 l 1
 117 269.5 l 1
 324 0 l 1
 311.5 0 l 1
 104.5 270.5 l 1
 369.5 459 l 1
EndSplineSet
EndChar

StartChar: u
Encoding: 117 117 39
Width: 460
VWidth: 0
Flags: HMW
LayerCount: 2
Fore
SplineSet
341 0 m 1
 420.5 459.5 l 1
 430.5 459.5 l 1
 351 0 l 1
 341 0 l 1
90.5 150 m 2
 80.5 72.5 95 1 184 0.5 c 0
 280.5 -0.5 352.5 90.5 373 179 c 1
 378.5 179 l 1
 358 81 284.5 -10.5 183 -9.5 c 0
 88 -9 69.5 65.5 80.5 150 c 2
 134.5 459.5 l 1
 144.5 459.5 l 1
 90.5 150 l 2
EndSplineSet
EndChar

StartChar: e
Encoding: 101 101 40
Width: 487
VWidth: 0
Flags: HMW
LayerCount: 2
Fore
SplineSet
68.5 228 m 1
 70 238 l 1
 451.5 238 l 1
 474 343.5 416 458 302 459 c 0
 187 460 90 357 71.5 233 c 1
 72 232.5 l 1
 60.5 118.5 108.501 1.54834 225 0.5 c 0
 325.497 -0.20166 384 59 428.5 112.5 c 1
 436 106 l 1
 390.5 51.5 332.0095 -9.85164 224.5 -9.5 c 0
 103 -9 47.5 112.5 62 232 c 0
 66 258.5 73 284 83.5 308 c 0
 121 396.5 202.5 470 302 469.5 c 0
 412 468.5 479.5 364.5 465.5 254 c 0
 464 245.5 461.5 236 459.5 228 c 1
 68.5 228 l 1
EndSplineSet
EndChar

StartChar: g
Encoding: 103 103 41
Width: 525
VWidth: 0
Flags: HMW
LayerCount: 2
Fore
SplineSet
26.5 -30 m 1
 36.5 -30 l 1
 25 -133 69.5 -218.5 179.5 -219.5 c 0
 298 -220.5 392.698 -123.4135 412 10 c 2
 489.5 459.5 l 1
 499.5 459.5 l 1
 422.5 10 l 2
 402.2845 -128.4405 304.5 -230 179 -229.5 c 0
 62.5 -229 14.5 -137 26.5 -30 c 1
55.5 230 m 0
 75 361.5 176.5 471 303 469.5 c 0
 427.5 468 470.5 336.5 455 230 c 0
 436.5 115.5 347 -9 222 -9.5 c 0
 95.5 -10 38.5 105.5 55.5 230 c 0
65.5 230 m 0
 48.5 110.5 103.5 0 225.5 0.5 c 0
 341.5 1 433 121.5 450.5 235 c 0
 465 331.5 417.5 457.5 305 459.5 c 0
 183.5 462 84.5 356 65.5 230 c 0
EndSplineSet
EndChar

StartChar: f
Encoding: 102 102 42
Width: 269
VWidth: 0
Flags: HMW
LayerCount: 2
Fore
SplineSet
100 460 m 1
 289 460 l 1
 287.5 450 l 1
 98 450 l 1
 100 460 l 1
371.5 733 m 1
 356.5 754 336.5 776.5 303.5 777.5 c 0
 228.5 779.5 197 706 186 650 c 2
 74.5 0 l 1
 64.5 0 l 1
 175.5 650 l 2
 187 715 224 790 304 787.5 c 0
 341.5 786.5 363.5 762.5 379 740 c 1
 371.5 733 l 1
EndSplineSet
EndChar

StartChar: s
Encoding: 115 115 43
Width: 391
VWidth: 0
Flags: HMW
LayerCount: 2
Fore
SplineSet
54 147 m 1
 59 77.5 83.5 0.5 174.5 0 c 0
 244 -0.5 304.5 49 313.5 117 c 0
 322.5 181.5 269.5 210.5 210 231 c 0
 144 253.5 91.5 279.5 103 359 c 0
 113.5 426.5 176.5 468 245.5 467.5 c 0
 317 467 347.5 421.5 361 368 c 1
 351 365 l 1
 338.5 415.5 311 457 245 457.5 c 0
 182 458.0085 122.5 420.5 113 359 c 0
 101.5 284.5 154 261 216.5 240 c 0
 277 219.5 332.5 186 323.5 117 c 0
 314 42.5 250 -9.5 174 -9.5 c 0
 76.5 -9.5 49 69.5 44 144 c 1
 54 147 l 1
EndSplineSet
EndChar

StartChar: y
Encoding: 121 121 44
Width: 412
VWidth: 0
Flags: HMW
LayerCount: 2
Fore
SplineSet
455 459.5 m 1
 46.5 -219.5 l 1
 35.5 -219 l 1
 180.5 20.5 l 1
 61 460 l 1
 72 460 l 1
 191 20 l 1
 179.5 20.5 l 1
 444 459.5 l 1
 455 459.5 l 1
EndSplineSet
EndChar

StartChar: w
Encoding: 119 119 45
Width: 601
VWidth: 0
Flags: HMW
LayerCount: 2
Fore
SplineSet
66.5 460 m 1
 76 460 l 1
 132.5 19 l 1
 350.5 475.5 l 1
 419.5 18.5 l 1
 629.5 459.5 l 1
 639.5 459.5 l 1
 414 -15.5 l 1
 345 440.5 l 1
 126.5 -15.5 l 1
 66.5 460 l 1
EndSplineSet
EndChar

StartChar: v
Encoding: 118 118 46
Width: 407
VWidth: 0
Flags: HMW
LayerCount: 2
Fore
SplineSet
63.5 460 m 1
 75 460 l 1
 187.5 10.5 l 1
 440.5 459.5 l 1
 452.5 459.5 l 1
 184 -15 l 1
 63.5 460 l 1
EndSplineSet
EndChar

StartChar: x
Encoding: 120 120 47
Width: 368
VWidth: 0
Flags: HMW
LayerCount: 2
Fore
SplineSet
389 459 m 1
 403 459 l 1
 210.5 236.5 l 1
 342 0 l 1
 328.5 0 l 1
 203 229 l 1
 7 0 l 1
 -8 0 l 1
 197.5 237.5 l 1
 73 460 l 1
 86.5 460 l 1
 205 245 l 1
 389 459 l 1
EndSplineSet
EndChar

StartChar: z
Encoding: 122 122 48
Width: 417
VWidth: 0
Flags: HMW
LayerCount: 2
Fore
SplineSet
417 449.5 m 1
 88.5 449.5 l 1
 90 459.5 l 1
 440 459.5 l 1
 14.5 10.5 l 1
 372.5 10.5 l 1
 371 0 l 1
 -8.5 0 l 1
 417 449.5 l 1
EndSplineSet
EndChar

StartChar: j
Encoding: 106 106 49
Width: 174
VWidth: 0
Flags: HMW
LayerCount: 2
Fore
SplineSet
164 695 m 0
 164 701 167.5 705 174 705 c 0
 180.5 705 184 701 184 695 c 0
 184 689 180.5 685 174 685 c 0
 167.5 685 164 689 164 695 c 0
-149 -165 m 1
 -135.5 -184.5 -114.5 -209.5 -82 -209.5 c 0
 -6.1343 -209.5 26.5 -136 36.5 -82 c 2
 129.5 459.5 l 1
 139.5 459.5 l 1
 46.5 -82 l 2
 35 -147 -2 -219.5 -82 -219.5 c 0
 -119.531 -219.5 -141.5 -194.5 -157 -172 c 1
 -149 -165 l 1
EndSplineSet
EndChar

StartChar: P
Encoding: 80 80 50
Width: 465
VWidth: 0
Flags: HMW
LayerCount: 2
Fore
SplineSet
180 699.5 m 1
 191 699.5 l 1
 70.5 0 l 1
 59.5 0 l 1
 180 699.5 l 1
184.5 690 m 1
 186.5 700 l 1
 300.5 700 l 2
 421 700 494 616 475.5 497 c 0
 456 374 355.5 294 232 294 c 2
 117 294 l 1
 118.5 304 l 1
 233 304 l 2
 351.5 304 445.5 380 464.5 497 c 0
 482.5 610.5 415 690 299.5 690 c 2
 184.5 690 l 1
EndSplineSet
EndChar

StartChar: U
Encoding: 85 85 51
Width: 558
VWidth: 0
Flags: HMW
LayerCount: 2
Fore
SplineSet
175.5 699.5 m 1
 186 699.5 l 1
 103.5 220 l 2
 88.5 104 129 2 252 1.5 c 0
 375 1 456 98 476 220 c 2
 558.5 699.5 l 1
 569.5 699.5 l 1
 487.5 220 l 2
 466.5 92.5 386 -10 251.5 -9.5 c 0
 117 -9 77 98.5 93 220 c 2
 175.5 699.5 l 1
EndSplineSet
EndChar

StartChar: S
Encoding: 83 83 52
Width: 473
VWidth: 0
Flags: HMW
LayerCount: 2
Fore
SplineSet
55 197 m 1
 68 109.5 105.5 4.5 220 3.5 c 0
 337 2.5 406.5 77.5 422 175 c 0
 435.5 269.5 368 325.5 293.5 359 c 0
 215.5 393.5 128.5 448.5 144 550 c 0
 158.5 641.5 245.5 708 338.5 707.5 c 0
 441.5 707 483.5 626 492.5 550 c 1
 482.5 548 l 1
 473 619 434.5 696 338 696.5 c 0
 250 697 169 633.5 155 550 c 0
 139 454.5 221.5 402.5 300 368 c 0
 380 333 447 274 433 175 c 0
 417 74.5 344 -8.5 219.5 -7.5 c 0
 100.5 -6.5 59 98 45 193 c 1
 55 197 l 1
EndSplineSet
EndChar

StartChar: at
Encoding: 64 64 53
Width: 747
VWidth: 0
Flags: HMW
LayerCount: 2
Fore
SplineSet
237 320 m 0
 227.5 247.5 256 176 330 174.5 c 0
 422 172.5 498 275.5 512 370 c 0
 521 435 501 513.5 428.5 516.5 c 0
 337 520.5 251 429 237 320 c 0
226 320 m 0
 241 436.5 332 530.5 429.5 527.5 c 0
 509 525 531 441.5 521 367 c 0
 506.5 269 425 163 331 163.5 c 0
 250 164 215.5 237.5 226 320 c 0
61 320 m 0
 95 530 273 709.5 496 708 c 0
 685.5 707 779.5 546 753 390 c 0
 737 262.5 635 146 538.5 152.5 c 0
 469.5 156.5 473.5 224 490 290 c 1
 488 290.5 l 1
 567 519.5 l 1
 579 519.5 l 1
 498.5 289 l 2
 495.5 280 492.5 264 490.5 254 c 0
 485 219 486 167.5 539.5 163.5 c 0
 631 154.5 727 274.5 742 390 c 0
 768 540 679 695.5 495 697 c 0
 277 699 105.5 526 72 320 c 0
 45.5 145.5 127.5 5 317.5 3.5 c 0
 415 2.5 495.5 30 562.5 60.5 c 1
 567 50.5 l 1
 497 20 417 -8 316.5 -7.5 c 0
 119.5 -6 33.5 139.5 61 320 c 0
EndSplineSet
EndChar

StartChar: period
Encoding: 46 46 54
Width: 252
VWidth: 0
Flags: HMW
LayerCount: 2
Fore
SplineSet
88 1 m 0
 88 7.5 93 12 99 12 c 0
 105 12 110 7.5 110 1 c 0
 110 -5.5 105 -10 99 -10 c 0
 93 -10 88 -5.5 88 1 c 0
EndSplineSet
EndChar

StartChar: comma
Encoding: 44 44 55
Width: 267
VWidth: 0
Flags: HMW
LayerCount: 2
Fore
SplineSet
159.5 93 m 1
 169.5 88 l 1
 18.5 -160 l 1
 12.5 -158 l 1
 159.5 93 l 1
EndSplineSet
EndChar

StartChar: colon
Encoding: 58 58 56
Width: 291
VWidth: 0
Flags: HMW
LayerCount: 2
Fore
SplineSet
88 1 m 0
 88 7.5 93 12 99 12 c 0
 105 12 110 7.5 110 1 c 0
 110 -5.5 105 -10 99 -10 c 0
 93 -10 88 -5.5 88 1 c 0
147.5 349 m 0
 147.5 355.5 152.5 360 158.5 360 c 0
 164.5 360 169.5 355.5 169.5 349 c 0
 169.5 342.5 164.5 338 158.5 338 c 0
 152.5 338 147.5 342.5 147.5 349 c 0
EndSplineSet
EndChar

StartChar: semicolon
Encoding: 59 59 57
Width: 267
VWidth: 0
Flags: HMW
LayerCount: 2
Fore
SplineSet
176.5 349 m 0
 176.5 355.5 181.5 360 187.5 360 c 0
 193.5 360 198.5 355.5 198.5 349 c 0
 198.5 342.5 193.5 338 187.5 338 c 0
 181.5 338 176.5 342.5 176.5 349 c 0
159.5 93 m 1
 169.5 88 l 1
 18.5 -160 l 1
 12.5 -158 l 1
 159.5 93 l 1
EndSplineSet
EndChar

StartChar: quotedbl
Encoding: 34 34 58
Width: 391
VWidth: 0
Flags: HMW
LayerCount: 2
Fore
SplineSet
227 699.5 m 1
 240 699.5 l 1
 141 420.5 l 1
 134 420.5 l 1
 227 699.5 l 1
402 699.5 m 1
 415 699.5 l 1
 315.5 420.5 l 1
 308.5 420.5 l 1
 402 699.5 l 1
EndSplineSet
EndChar

StartChar: exclam
Encoding: 33 33 59
Width: 254
VWidth: 0
Flags: HMW
LayerCount: 2
Fore
SplineSet
213 699.5 m 1
 227 699.5 l 1
 137 200.5 l 1
 131 200.5 l 1
 213 699.5 l 1
88.5 1 m 0
 88.5 8 93.5 12 99.5 12 c 0
 105.5 12 110.5 8 110.5 1 c 0
 110.5 -6 105.5 -10 99.5 -10 c 0
 93.5 -10 88.5 -6 88.5 1 c 0
EndSplineSet
EndChar

StartChar: quotesingle
Encoding: 39 39 60
Width: 216
VWidth: 0
Flags: HMW
LayerCount: 2
Fore
SplineSet
227 699.5 m 1
 240 699.5 l 1
 141 420.5 l 1
 134 420.5 l 1
 227 699.5 l 1
EndSplineSet
EndChar

StartChar: numbersign
Encoding: 35 35 61
Width: 554
VWidth: 0
Flags: HMW
LayerCount: 2
Fore
SplineSet
123 454 m 1
 125 465 l 1
 572.5 465 l 1
 570.5 454 l 1
 458.5 454 l 1
 454.5 454 l 1
 253 454 l 1
 250 454 l 1
 123 454 l 1
47.5 240 m 1
 49.5 251 l 1
 165.5 251 l 1
 170.5 251 l 1
 367.5 251 l 1
 373.5 251 l 1
 497 251 l 1
 495.5 240 l 1
 47.5 240 l 1
549 699.5 m 1
 560 699.5 l 1
 274 0 l 1
 263 0 l 1
 362.5 244 l 1
 364 246 l 1
 449.5 458 l 1
 451 462 l 1
 549 699.5 l 1
345 699.5 m 1
 356 699.5 l 1
 258.5 462 l 1
 257 458 l 1
 170 244 l 1
 170 243 l 1
 70.5 0.5 l 1
 59.5 0 l 1
 345 699.5 l 1
EndSplineSet
EndChar

StartChar: hyphen
Encoding: 45 45 62
Width: 203
VWidth: 0
Flags: HMW
LayerCount: 2
Fore
SplineSet
23 265 m 1
 24.5 275 l 1
 219 275 l 1
 217 265 l 1
 23 265 l 1
EndSplineSet
EndChar

StartChar: dollar
Encoding: 36 36 63
Width: 562
VWidth: 0
Flags: HMW
LayerCount: 2
Fore
SplineSet
350 817.5 m 1
 360 817.5 l 1
 340.5 700.5 l 1
 330.5 700.5 l 1
 350 817.5 l 1
226 -2 m 1
 235.5 -2 l 1
 217.5 -112 l 1
 207.5 -112 l 1
 226 -2 l 1
483.5 548 m 1
 472.5 619.5 432.5 696 336 696.5 c 0
 248.5 697 168.5 633.5 155.5 550 c 0
 141 454 225.5 402 304 368 c 0
 385 333 453 274.5 440 175 c 0
 425.5 74.5 353.5 -8.5 229.5 -7.5 c 0
 110.5 -6.5 67 97.5 51.5 193 c 1
 62 197 l 1
 76.5 105.5 116 4.5 230.5 3.5 c 0
 347 2.5 415.5 77.5 429.5 175 c 0
 442 270 372 326 297.5 359 c 0
 219.5 393 130 448.5 144.5 550 c 0
 157.5 641.5 244 708 337 707.5 c 0
 440 707 483.5 626 493.5 550 c 1
 483.5 548 l 1
EndSplineSet
EndChar

StartChar: bar
Encoding: 124 124 64
Width: 203
VWidth: 0
Flags: HMW
LayerCount: 2
Fore
SplineSet
201 785 m 1
 211 785 l 1
 56 -215 l 1
 46 -215 l 1
 201 785 l 1
EndSplineSet
EndChar

StartChar: zero
Encoding: 48 48 65
Width: 533
VWidth: 0
Flags: HMW
LayerCount: 2
Fore
SplineSet
97 350 m 0
 80.5 208.5 88.5 1 239 0 c 0
 388.5 -1 479.5 190 502 350 c 0
 518.5 491.5 510.5 698.5 360 699.5 c 0
 210.5 700.5 119.5 510 97 350 c 0
86 350 m 0
 109.5 519 204 710.5 360.5 709.5 c 0
 519 708.5 530.5 501.5 513 350 c 0
 489.5 181 395 -10.5 238.5 -9.5 c 0
 80 -8.5 68.5 198.5 86 350 c 0
EndSplineSet
Substitution2: "Tabular Numbers lookup" uniFF10
EndChar

StartChar: one
Encoding: 49 49 66
Width: 397
VWidth: 0
Flags: HMW
LayerCount: 2
Fore
SplineSet
176.5 654.5 m 1
 178.5 665.5 l 1
 360.5 705 l 1
 239 0 l 1
 229.5 0 l 1
 348 690.5 l 1
 176.5 654.5 l 1
EndSplineSet
Substitution2: "Tabular Numbers lookup" uniFF11
EndChar

StartChar: two
Encoding: 50 50 67
Width: 498
VWidth: 0
Flags: HMW
LayerCount: 2
Fore
SplineSet
7 0 m 1
 368.5 334 l 2
 423 385 478 438 490 519 c 0
 504 602 461 700 345.5 700.5 c 0
 218.5 701.5 138.5 585.5 116 460.5 c 1
 106 460.5 l 1
 129 592.5 213.5 711.5 346 710.5 c 0
 466 709.5 514.5 607.5 500.5 519 c 0
 488.5 438.5 433 380 377.5 328 c 2
 33.5 10.5 l 1
 449.5 10 l 1
 448 0 l 1
 7 0 l 1
EndSplineSet
Substitution2: "Tabular Numbers lookup" uniFF12
EndChar

StartChar: four
Encoding: 52 52 68
Width: 536
VWidth: 0
Flags: HMW
LayerCount: 2
Fore
SplineSet
21 140.5 m 1
 488.5 699.5 l 1
 490 699.5 l 1
 369 0 l 1
 358.5 0 l 1
 383.5 142 l 1
 384 147 l 1
 473 664.5 l 1
 41.5 150.5 l 1
 388 150 l 1
 391 150 l 1
 501 150 l 1
 499.5 140 l 1
 21 140.5 l 1
EndSplineSet
Substitution2: "Tabular Numbers lookup" uniFF14
EndChar

StartChar: slash
Encoding: 47 47 69
Width: 460
VWidth: 0
Flags: HMW
LayerCount: 2
Fore
SplineSet
527.5 699.5 m 1
 539.5 699 l 1
 -27 -149.5 l 1
 -39 -149 l 1
 527.5 699.5 l 1
EndSplineSet
EndChar

StartChar: backslash
Encoding: 92 92 70
Width: 422
VWidth: 0
Flags: HMW
LayerCount: 2
Fore
SplineSet
107 700 m 1
 119.5 700 l 1
 380.5 0 l 1
 368 0 l 1
 107 700 l 1
EndSplineSet
EndChar

StartChar: eight
Encoding: 56 56 71
Width: 500
VWidth: 0
Flags: HMW
LayerCount: 2
Fore
SplineSet
147.5 541 m 0
 162 629.5 246.5 710 344 709.5 c 0
 440 709 497.5 625.5 484 540.5 c 0
 469.5 447.5 376.5 368 286.5 368.5 c 0
 198 369 134.5 451.5 147.5 541 c 0
157 541 m 0
 145 457 209 376.5 286.5 375.5 c 0
 366 374.5 460 453 474 541 c 0
 487.5 622 434.5 699 343.5 699.5 c 0
 251 700 171 625.5 157 541 c 0
67 185 m 0
 84 288 183 372 286 371.5 c 0
 387 371 457 285 442.5 185 c 0
 426 78.5 340.5 -10 222 -9.5 c 0
 104 -9 50.5 83 67 185 c 0
77 185 m 0
 61 87.5 112.5 1 222.5 0.5 c 0
 333 0 416.5 83 432.5 185 c 0
 446.5 280 379.5 364 286 364.5 c 0
 190.5 365 93.5 284 77 185 c 0
EndSplineSet
Substitution2: "Tabular Numbers lookup" uniFF18
EndChar

StartChar: nine
Encoding: 57 57 72
Width: 520
VWidth: 0
Flags: HMW
LayerCount: 2
Fore
SplineSet
519 480 m 0
 535 593.5 474 699 351 699.5 c 0
 227 700 132 599.5 115 480 c 0
 101 375.5 166.5 275 274 273.5 c 0
 404.5 272 501 371.5 519 480 c 0
182.5 0 m 1
 170.5 0 l 1
 458.5 345 l 1
 460 344.5 l 1
 411 296.5 348 262 273.5 263 c 0
 158.5 264.5 90.5 370.5 105 480 c 0
 122 606.5 219 710 351.5 709.5 c 0
 483.5 709 545.5 601.5 528.5 480 c 0
 519 421.5 485 362.5 450 321 c 2
 182.5 0 l 1
EndSplineSet
Substitution2: "Tabular Numbers lookup" uniFF19
EndChar

StartChar: three
Encoding: 51 51 73
Width: 534
VWidth: 0
Flags: HMW
LayerCount: 2
Fore
SplineSet
279 362.5 m 1
 280 370.5 l 1
 375 376 490.5 429 507.5 533 c 0
 521 616.5 466.5 698.5 365 699.5 c 0
 257 700.5 186 621.5 165 526.5 c 1
 155 526.5 l 1
 176 629 251.5 710 365.5 709.5 c 0
 474 709 532 623 517.5 533.5 c 0
 500 423.5 385 367.5 279 362.5 c 1
251.5 -9.5 m 0
 125 -9.5 64.5 77.5 75 185 c 1
 84.5 185 l 1
 74.5 81 130 1 252 0.5 c 0
 364 0 457 74 472 175 c 0
 488.5 294 373 353.5 278.5 359.5 c 1
 279.5 367.5 l 1
 384.5 362 499.5 298.5 482 175 c 0
 466.5 67 369 -9.5 251.5 -9.5 c 0
EndSplineSet
Substitution2: "Tabular Numbers lookup" uniFF13
EndChar

StartChar: five
Encoding: 53 53 74
Width: 540
VWidth: 0
Flags: HMW
LayerCount: 2
Fore
SplineSet
493 230 m 0
 475 88 368.5 -10 238 -9.5 c 0
 137 -9.5 82.5 49 57.5 137 c 1
 66.5 142 l 1
 91.5 57 141 1 238.5 0.5 c 0
 363.5 0 465.5 95 483.5 230 c 0
 497.5 336.5 440 434 332 435.5 c 0
 244.5 436.5 172.5 390 115 328 c 1
 262.5 700 l 1
 582.5 700 l 1
 581 690 l 1
 268 689.5 l 1
 137 359.5 l 1
 180.5 406 249.5 446.5 332.5 445.5 c 0
 446.5 444 507.5 343.5 493 230 c 0
EndSplineSet
Substitution2: "Tabular Numbers lookup" uniFF15
EndChar

StartChar: six
Encoding: 54 54 75
Width: 520
VWidth: 0
Flags: HMW
LayerCount: 2
Fore
SplineSet
75 220 m 0
 59 106.5 119.5 1 242.5 0.5 c 0
 366.5 0 462 100.5 479 220 c 0
 493 324.5 427.5 425 320 426.5 c 0
 189.5 428 93 328.5 75 220 c 0
411 699 m 1
 423.5 699 l 1
 134.5 354.5 l 1
 133.5 355.5 l 1
 182.5 403.5 245.5 438 320 437 c 0
 435 435.5 503 329.5 488.5 220 c 0
 471.5 93.5 374.5 -10 242 -9.5 c 0
 110 -9 48 98.5 65 220 c 0
 74.5 278.5 108.5 337.5 143.5 379 c 2
 411 699 l 1
EndSplineSet
Substitution2: "Tabular Numbers lookup" uniFF16
EndChar

StartChar: seven
Encoding: 55 55 76
Width: 499
VWidth: 0
Flags: HMW
LayerCount: 2
Fore
SplineSet
123 690 m 1
 124.5 700 l 1
 581.5 699.5 l 1
 113.5 0 l 1
 102.5 0 l 1
 563.5 689.5 l 1
 123 690 l 1
EndSplineSet
Substitution2: "Tabular Numbers lookup" uniFF17
EndChar

StartChar: plus
Encoding: 43 43 77
Width: 533
VWidth: 0
Flags: HMW
LayerCount: 2
Fore
SplineSet
78.5 250 m 1
 80 260 l 1
 478.5 260 l 1
 476.5 250 l 1
 78.5 250 l 1
312.5 479.5 m 1
 322.5 479.5 l 1
 244.5 30.5 l 1
 234.5 30.5 l 1
 312.5 479.5 l 1
EndSplineSet
EndChar

StartChar: equal
Encoding: 61 61 78
Width: 596
VWidth: 0
Flags: HMW
LayerCount: 2
Fore
SplineSet
67.5 185 m 1
 69 195 l 1
 540 195 l 1
 538.5 185 l 1
 67.5 185 l 1
89 310 m 1
 90.5 320 l 1
 561.5 320 l 1
 559.5 310 l 1
 89 310 l 1
EndSplineSet
EndChar

StartChar: percent
Encoding: 37 37 79
Width: 680
VWidth: 0
Flags: HMW
LayerCount: 2
Fore
SplineSet
102 560.5 m 0
 115 641 183.5 710 271 709.5 c 0
 358 709 402 637.5 390 559.5 c 0
 377 479 308.5 410 221 410.5 c 0
 134 411 90 482.5 102 560.5 c 0
112 560 m 0
 100.5 489.5 140 420 221.5 419.5 c 0
 303.5 419 367.5 486 380 560 c 0
 391.5 631 351.5 699 270.5 699.5 c 0
 188.5 700 124.5 634 112 560 c 0
355.5 140.5 m 0
 368.5 221 437 290 524.5 289.5 c 0
 611.5 289 655.5 217.5 643.5 139.5 c 0
 630.5 59 562 -10 474.5 -9.5 c 0
 387.5 -9 343.5 62.5 355.5 140.5 c 0
365.5 140 m 0
 354 69.5 393 0 474.5 -0.5 c 0
 556.5 -1 621 66 633.5 140 c 0
 645 211 605 279 524 279.5 c 0
 442 280 378 214 365.5 140 c 0
648.5 699 m 1
 660.5 699 l 1
 97 0 l 1
 84.5 0 l 1
 648.5 699 l 1
EndSplineSet
EndChar

StartChar: ampersand
Encoding: 38 38 80
Width: 655
VWidth: 0
Flags: HMW
LayerCount: 2
Fore
SplineSet
226 427 m 2
 198 469.5 176 515 184.5 576.5 c 0
 197 651.5 261 712 352 710.5 c 0
 437 709.5 476 640 465.5 574 c 0
 452.5 498 381 448 298 400 c 0
 210.5 350 77 304.5 58 173 c 0
 43 68 115 1 220 0.5 c 0
 398 -0.5 507.5 187 617 315.5 c 1
 624.5 310 l 1
 513 180.5 403.5 -10 219.5 -9.5 c 0
 109.5 -9 32.5 62 48 173 c 0
 67 309.5 204.5 359 291.5 407 c 0
 371 452 442.5 503 455.5 574 c 0
 465.5 633.5 431 699 351.5 700.5 c 0
 266.5 702 206 644 194.5 576 c 0
 186.5 516.5 208 474.5 234 435 c 2
 537.5 0 l 1
 525 0 l 1
 226 427 l 2
EndSplineSet
EndChar

StartChar: question
Encoding: 63 63 81
Width: 525
VWidth: 0
Flags: HMW
LayerCount: 2
Fore
SplineSet
500.5 520 m 0
 517 616.5 460 699 349 699.5 c 0
 259.5 700 197 650.5 144.5 588 c 1
 136.5 594 l 1
 191 658 255 710 349.5 709.5 c 0
 466 708.5 527.5 623.5 510.5 520 c 0
 490.5 413.5 378.5 345 258 337 c 1
 229.5 170.5 l 1
 221.5 170.5 l 1
 247 345 l 1
 248 345 l 1
 369 351 480 415 500.5 520 c 0
180.5 1 m 0
 180.5 7 185.5 12 191.5 12 c 0
 197.5 12 202 7.5 202 1 c 0
 202 -5.561555 197 -10 191 -10 c 0
 185 -10 180.5 -6.04951 180.5 1 c 0
EndSplineSet
EndChar

StartChar: parenleft
Encoding: 40 40 82
Width: 232
VWidth: 0
Flags: HMW
LayerCount: 2
Fore
SplineSet
302.5 779.5 m 1
 307.5 779.5 l 1
 214 626 151.5 463.5 124.5 290 c 0
 100 125.5 109.5 -37 156 -200 c 1
 151 -200 l 1
 98 -42.5 90 125.5 114.5 290 c 0
 141.5 464 203.5 632.5 302.5 779.5 c 1
EndSplineSet
EndChar

StartChar: parenright
Encoding: 41 41 83
Width: 232
VWidth: 0
Flags: HMW
LayerCount: 2
Fore
SplineSet
-14.5 -199.5 m 1
 -19.5 -199.5 l 1
 74 -46 136 116.5 163 290 c 0
 187.5 454.5 178.5 617 132 780 c 1
 137 780 l 1
 190 622.5 198 454.5 173.5 290 c 0
 146.5 116 84.5 -52.5 -14.5 -199.5 c 1
EndSplineSet
EndChar

StartChar: asterisk
Encoding: 42 42 84
Width: 574
VWidth: 0
Flags: HMW
LayerCount: 2
Fore
SplineSet
520 584.5 m 1
 521 572.5 l 1
 350 522.5 l 1
 348 528.5 l 1
 520 584.5 l 1
431 387 m 1
 420.5 380 l 1
 347 522 l 1
 351.5 527 l 1
 431 387 l 1
229.5 381 m 1
 220.5 388 l 1
 347.5 527 l 1
 351 522 l 1
 229.5 381 l 1
194.5 573 m 1
 199.5 584.5 l 1
 352.5 528 l 1
 349 522.5 l 1
 194.5 573 l 1
374.5 699.5 m 1
 386.5 699.5 l 1
 352 525.5 l 1
 346 525.5 l 1
 374.5 699.5 l 1
EndSplineSet
EndChar

StartChar: less
Encoding: 60 60 85
Width: 621
VWidth: 0
Flags: HMW
LayerCount: 2
Fore
SplineSet
96.5 256.5 m 1
 540.5 55 l 1
 539 45.5 l 1
 79 254 l 1
 80 260 l 1
 611 469.5 l 1
 609.5 459.5 l 1
 96.5 256.5 l 1
EndSplineSet
EndChar

StartChar: greater
Encoding: 62 62 86
Width: 621
VWidth: 0
Flags: HMW
LayerCount: 2
Fore
SplineSet
558.5 258 m 1
 114 460 l 1
 116 469.5 l 1
 575.5 261 l 1
 574.5 255 l 1
 43.5 45.5 l 1
 45 55.5 l 1
 558.5 258 l 1
EndSplineSet
EndChar

StartChar: bracketleft
Encoding: 91 91 87
Width: 252
VWidth: 0
Flags: HMW
LayerCount: 2
Fore
SplineSet
209.5 769 m 1
 58.5 -209 l 1
 183.5 -209 l 1
 182 -220 l 1
 45.5 -220 l 1
 200 780 l 1
 336 780 l 1
 334.5 769 l 1
 209.5 769 l 1
EndSplineSet
EndChar

StartChar: bracketright
Encoding: 93 93 88
Width: 252
VWidth: 0
Flags: HMW
LayerCount: 2
Fore
SplineSet
95 -209 m 1
 245.5 769 l 1
 120.5 769 l 1
 122.5 780 l 1
 258.5 780 l 1
 104 -220 l 1
 -31.5 -220 l 1
 -30 -209 l 1
 95 -209 l 1
EndSplineSet
EndChar

StartChar: asciicircum
Encoding: 94 94 89
Width: 494
VWidth: 0
Flags: HMW
LayerCount: 2
Fore
SplineSet
338.5 691.5 m 1
 128.5 461 l 1
 113.5 461 l 1
 341 709 l 1
 340.5 709 l 1
 484 460 l 1
 470.5 460 l 1
 338.5 691.5 l 1
EndSplineSet
EndChar

StartChar: underscore
Encoding: 95 95 90
Width: 485
VWidth: 0
Flags: HMW
LayerCount: 2
Fore
SplineSet
-46 -109 m 1
 -44 -98 l 1
 441.5 -98 l 1
 439.5 -109 l 1
 -46 -109 l 1
EndSplineSet
EndChar

StartChar: grave
Encoding: 96 96 91
Width: 342
VWidth: 0
Flags: HMW
LayerCount: 2
Fore
SplineSet
186 692 m 1
 194.5 699.5 l 1
 336 540 l 1
 331 535.5 l 1
 186 692 l 1
EndSplineSet
EndChar

StartChar: braceleft
Encoding: 123 123 92
Width: 272
VWidth: 0
Flags: HMW
LayerCount: 2
Fore
SplineSet
225 640 m 2
 193 430 l 2
 183 355.5 149 302 104.5 288.5 c 1
 105.5 292 l 1
 144 274.5 157 220.5 149.5 150 c 2
 117 -60 l 2
 109.5 -134 108.5 -190 177.5 -190 c 2
 197.5 -190 l 1
 196 -200 l 1
 176.5 -200 l 2
 99.5 -200 99 -138 107.5 -60 c 2
 140 150 l 2
 147 212.5 136.5 259.5 104 285 c 1
 105.5 295 l 1
 145.5 316.5 173.5 364 183 430 c 2
 215 640 l 2
 226 723 251 779.5 327 779.5 c 2
 347 779.5 l 1
 345.5 770 l 1
 326 770 l 2
 257.5 770 235 718.5 225 640 c 2
EndSplineSet
EndChar

StartChar: braceright
Encoding: 125 125 93
Width: 272
VWidth: 0
Flags: HMW
LayerCount: 2
Fore
SplineSet
102.5 -60 m 2
 134.5 150 l 2
 145 224.5 178.5 278 223 291.5 c 1
 222.5 288 l 1
 184 305.5 170.5 359.5 178 430 c 2
 210.5 640 l 2
 218 714 219 770 150 770 c 2
 130.5 770 l 1
 132 780 l 1
 151 780 l 2
 228 780 228.5 718 220 640 c 2
 187.5 430 l 2
 180.5 367.5 191.5 320.5 224 295 c 1
 222.5 285 l 1
 182.5 263.5 154.5 216 145 150 c 2
 113 -60 l 2
 102 -143 76.5 -200 0.5 -200 c 2
 -19 -200 l 1
 -17.5 -190.5 l 1
 1.5 -190.5 l 2
 70 -190.5 92.5 -138.5 102.5 -60 c 2
EndSplineSet
EndChar

StartChar: asciitilde
Encoding: 126 126 94
Width: 558
VWidth: 0
Flags: HMW
LayerCount: 2
Fore
SplineSet
95.5 178.5 m 1
 86 181.5 l 1
 85.5 189 85.5 197 86.5 205.5 c 0
 91.5 237.5 104.5 268 125.5 290 c 0
 146.5 312 178 326.5 211.5 326.5 c 0
 264.5 326 291 284.5 314 250 c 0
 334 220 358.5 183 402.5 182.5 c 0
 460.5 181.5 496.5 234 504.5 289.5 c 0
 506 298.5 506 310.5 504.5 320.5 c 1
 514 317.5 l 1
 514.5 309 515 299 513.5 289.5 c 0
 509 259 498 228 479 207 c 0
 461 186.5 432.5 172 402 172.5 c 0
 353.5 173 329 210 306 243 c 0
 284.5 274 260.5205 316.1855 211 316.5 c 0
 144.5 317 103.5 261.5 95 200.5 c 0
 94 193.5 94.5 186 95.5 178.5 c 1
EndSplineSet
EndChar

StartChar: exclamdown
Encoding: 161 161 95
Width: 291
VWidth: 0
Flags: HMW
LayerCount: 2
Fore
SplineSet
101.5 -244.5 m 1
 87.5 -244.5 l 1
 178 254.5 l 1
 184 254.5 l 1
 101.5 -244.5 l 1
225 454 m 0
 224.5 448.5 218 443 212.5 443 c 0
 207 443 203 448 203.5 454 c 0
 204 459.5 210.5 465 216 465 c 0
 221.5 465 225.5 460 225 454 c 0
EndSplineSet
EndChar

StartChar: cent
Encoding: 162 162 96
Width: 562
VWidth: 0
Flags: HMW
LayerCount: 2
Fore
SplineSet
279.5 -4.5 m 1
 283.5 -4.5 l 1
 268.5 -111.5 l 1
 255 -111.5 l 1
 279.5 -4.5 l 1
105 230 m 0
 87 112 155.5 1 282 0.5 c 0
 350 0.5 407.5 31.5 443.5 60 c 1
 441.5 47.5 l 1
 405.5 19 348 -9.5 281.5 -9.5 c 0
 149 -9.5 77 105 95.5 230 c 0
 116.5 361.5 228 469.5 362 469.5 c 0
 424 469.5 476 443 503.5 412 c 1
 501.5 399.5 l 1
 475.5 432 424 459.5 361.5 459.5 c 0
 233 459.5 125.5 354.5 105 230 c 0
374 577.5 m 1
 388 577.5 l 1
 362 463.5 l 1
 358 463.5 l 1
 374 577.5 l 1
EndSplineSet
EndChar

StartChar: sterling
Encoding: 163 163 97
Width: 562
VWidth: 0
Flags: HMW
LayerCount: 2
Fore
SplineSet
109 305 m 1
 410.5 305 l 1
 408.5 295 l 1
 107.5 295 l 1
 109 305 l 1
524 498 m 1
 532 577.5 511 698.5 395 699.5 c 0
 297.5 700.5 220.5 620.5 206 538 c 0
 190 429 293.5 365 278.5 264 c 0
 260 154 130.5 64 77.5 0.5 c 1
 75.5 10.5 l 1
 457 10 l 1
 455.5 0 l 1
 64 0 l 1
 145 90 250 162.5 268.5 264 c 0
 283.5 362.5 180.5 427.5 196 538 c 0
 211 627.5 292 710 395.5 709.5 c 0
 521 709 541.5 581 534 498 c 1
 524 498 l 1
EndSplineSet
EndChar

StartChar: currency
Encoding: 164 164 98
Width: 543
VWidth: 0
Flags: HMW
LayerCount: 2
Fore
SplineSet
117 523 m 1
 128.5 533 l 1
 179.5 469 l 1
 169 460 l 1
 117 523 l 1
49 67.5 m 1
 41 78 l 1
 114.5 139.5 l 1
 122 130 l 1
 49 67.5 l 1
487 460.5 m 1
 478.5 470 l 1
 552 532.5 l 1
 559.5 522 l 1
 487 460.5 l 1
421 131 m 1
 432 140 l 1
 483 77 l 1
 473 67 l 1
 421 131 l 1
74 300 m 0
 94 430 206.5 540 336 539.5 c 0
 464 539 535.5 423.5 517.5 300 c 0
 497.5 170 385 60 255.5 60.5 c 0
 127.5 61 56 176.5 74 300 c 0
84 300 m 0
 66.5 183.5 133.5 71 256 70.5 c 0
 380 70 488 177 507.5 300 c 0
 525 416.5 458 529 335.5 529.5 c 0
 211.5 530 103.5 423 84 300 c 0
EndSplineSet
EndChar

StartChar: yen
Encoding: 165 165 99
Width: 548
VWidth: 0
Flags: HMW
LayerCount: 2
Fore
SplineSet
48 270 m 1
 49.5 280 l 1
 512.5 280 l 1
 511 270 l 1
 48 270 l 1
26.5 145 m 1
 28.5 155 l 1
 491.5 155 l 1
 490 145 l 1
 26.5 145 l 1
572 699 m 1
 585 699 l 1
 279 264.5 l 1
 233.5 0 l 1
 222.5 0 l 1
 269.5 267.5 l 1
 121.5 700 l 1
 134 700 l 1
 276.5 281.5 l 1
 572 699 l 1
EndSplineSet
EndChar

StartChar: brokenbar
Encoding: 166 166 100
Width: 203
VWidth: 0
Flags: HMW
LayerCount: 2
Fore
SplineSet
189.5 694.5 m 1
 199.5 694.5 l 1
 156.5 455.5 l 1
 146.5 455.5 l 1
 189.5 694.5 l 1
122.5 244.5 m 1
 79.5 5.5 l 1
 69.5 5.5 l 1
 112.5 244.5 l 1
 122.5 244.5 l 1
EndSplineSet
EndChar

StartChar: section
Encoding: 167 167 101
Width: 386
VWidth: 0
Flags: HMW
LayerCount: 2
Fore
SplineSet
425 616 m 1
 406 667.5 351 699.5 290 699.5 c 0
 229.5 699.5 151.5 666.5 142 599 c 0
 132 530.5 222.5 505 271.5 483 c 0
 329 457.5 401.5 426.5 392 359.5 c 0
 379.5 275 300.5 244 213 240.5 c 1
 212.5 240.5 l 1
 292 260.5 371.5 286 382 360.5 c 0
 390 421 313 454 264 475 c 0
 206.5 499.5 120.5 524 132 599 c 0
 143 672 219 709.5 290.5 709.5 c 0
 358 709.5 414.5 675 432 620 c 1
 425 616 l 1
31.5 127 m 1
 39.5 57 99 1 181 0 c 0
 244 -1 325.5 26.5 337.5 100 c 0
 350 175.5 274 206 216 233 c 0
 160.5 259.5 81 292 91 359.5 c 0
 104 432 176.5 475 271 479.5 c 1
 271.5 479.5 l 1
 187.5 462.5 111.5 423 101 358.5 c 0
 92.5 295 175 263 223.5 241 c 0
 284.5 213 360 181 347.5 100 c 0
 335.5 24 256 -10 180.5 -9.5 c 0
 97.5 -9 31 46.5 23 123 c 1
 31.5 127 l 1
EndSplineSet
EndChar

StartChar: dieresis
Encoding: 168 168 102
Width: 409
VWidth: 0
Flags: HMW
LayerCount: 2
Fore
SplineSet
380 689 m 0
 380.5 694.5 386.5 700 392 700 c 0
 397.5 700 402 695 401.5 689 c 0
 401 683.5 394.5 678 389 678 c 0
 383.5 678 379.5 683 380 689 c 0
186 689 m 0
 186.5 694.5 192.5 700 198 700 c 0
 203.5 700 208 695 207.5 689 c 0
 207 683.5 200.5 678 195 678 c 0
 189.5 678 185.5 683 186 689 c 0
EndSplineSet
EndChar

StartChar: copyright
Encoding: 169 169 103
Width: 776
VWidth: 0
Flags: HMW
LayerCount: 2
Fore
SplineSet
229 350 m 0
 214.5 243.5 269 143.5 382 142.5 c 0
 438 142 482 162 521.5 192 c 1
 520 182.5 l 1
 480.5 154.5 438 135 381.5 135.5 c 0
 264.5 136.5 206.5 238.5 221.5 350 c 0
 238 467 329.5 564 447 564.5 c 0
 500.5 565 537.5 548 571.5 517.5 c 1
 570 508.5 l 1
 537.5 541.5 498 557.5 447 557.5 c 0
 333 557 245 463.5 229 350 c 0
85.5 350 m 0
 59.5 165 178 0.5 370.5 0 c 0
 566.5 -0.5 736 157 764.5 350 c 0
 790.5 535 672 699.5 479.5 700 c 0
 283.5 700.5 114 543 85.5 350 c 0
75.5 350 m 0
 104.5 549.5 274.5 710.5 479.5 710 c 0
 681 709.5 801 541.5 774.5 350 c 0
 745.5 150.5 575 -10.5 370 -10 c 0
 168.5 -9.5 49 158.5 75.5 350 c 0
EndSplineSet
EndChar

StartChar: registered
Encoding: 174 174 104
Width: 776
VWidth: 0
Flags: HMW
LayerCount: 2
Fore
SplineSet
389 340 m 1
 397 340 l 1
 497.5 150 l 1
 488.5 150 l 1
 389 340 l 1
362.5 570 m 1
 369.5 570 l 1
 303.5 150 l 1
 296.5 150 l 1
 362.5 570 l 1
361.5 563 m 1
 362.5 570 l 1
 428.5 570 l 1
 502.5 568 560 528.5 549 453.5 c 0
 538 378 469.5 340.5 393 338.5 c 1
 327 338 l 1
 327.5 344 l 1
 393.5 344 l 1
 467.5 346 531.5 381.5 542 454 c 0
 552.5 525.5 499 560.5 428 562.5 c 1
 361.5 563 l 1
85.5 350 m 0
 59.5 165 178 0.5 370.5 0 c 0
 566.5 -0.5 736 157 764.5 350 c 0
 790.5 535 672 699.5 479.5 700 c 0
 283.5 700.5 114 543 85.5 350 c 0
75.5 350 m 0
 104.5 549.5 274.5 710.5 479.5 710 c 0
 681 709.5 801 541.5 774.5 350 c 0
 745.5 150.5 575 -10.5 370 -10 c 0
 168.5 -9.5 49 158.5 75.5 350 c 0
EndSplineSet
EndChar

StartChar: ordfeminine
Encoding: 170 170 105
Width: 230
VWidth: 0
Flags: HMW
LayerCount: 2
Fore
SplineSet
92 528 m 0
 86.5 486.5 114 461.5 149.5 460.5 c 0
 196 459.5 231 500.5 243 539.5 c 1
 246.5 539 l 1
 234.5 498 200.5 454.5 149.5 455.5 c 0
 110.5 456.5 81.5 484 88 528.5 c 0
 95 573.5 144 600 188 599.5 c 0
 218.5 599 236 588 250.5 578 c 1
 249.5 572 l 1
 234.5 583.5 215.5 595 187.5 595.5 c 0
 146.5 596.5 98.5 571 92 528 c 0
132.5 662.5 m 1
 129 666.5 l 1
 149 681.5 177.5 701 210.5 699.5 c 0
 253.5 697 266.5 664 262.5 625 c 1
 233 460.5 l 1
 228 460.5 l 1
 257.5 625 l 1
 261.5 662 251 692.5 210.5 694.5 c 0
 179.5 696 153 678.5 132.5 662.5 c 1
EndSplineSet
EndChar

StartChar: ordmasculine
Encoding: 186 186 106
Width: 269
VWidth: 0
Flags: HMW
LayerCount: 2
Fore
SplineSet
91 580.5 m 0
 101 646 159.5 700 227 699.5 c 0
 294 699 332 643 322.5 579.5 c 0
 312.5 514 254 460 186.5 460.5 c 0
 119.5 461 81.5 517 91 580.5 c 0
100.5 580 m 0
 91.5 522 127 471.5 187 470.5 c 0
 247.5 469.5 303.5 520 313 580 c 0
 322 638 286.5 688.5 226.5 689.5 c 0
 166 690.5 110 640 100.5 580 c 0
EndSplineSet
EndChar

StartChar: guillemotleft
Encoding: 171 171 107
Width: 470
VWidth: 0
Flags: HMW
LayerCount: 2
Fore
SplineSet
220 255 m 1
 380.5 27 l 1
 372.5 20 l 1
 210 256 l 1
 452.5 489 l 1
 458.5 482 l 1
 220 255 l 1
64.5 255 m 1
 225 27 l 1
 217.5 20 l 1
 55 256 l 1
 297.5 489 l 1
 303.5 482 l 1
 64.5 255 l 1
EndSplineSet
EndChar

StartChar: guillemotright
Encoding: 187 187 108
Width: 470
VWidth: 0
Flags: HMW
LayerCount: 2
Fore
SplineSet
283.5 255 m 1
 123 483 l 1
 130.5 490 l 1
 293.5 254 l 1
 50.5 21 l 1
 45 28 l 1
 283.5 255 l 1
439 255 m 1
 278.5 483 l 1
 286 490 l 1
 448.5 254 l 1
 206 21 l 1
 200 28 l 1
 439 255 l 1
EndSplineSet
EndChar

StartChar: uni00AD
Encoding: 173 173 109
Width: 203
VWidth: 0
Flags: HMW
LayerCount: 2
Fore
SplineSet
23 265 m 1
 24.5 275 l 1
 219 275 l 1
 217 265 l 1
 23 265 l 1
EndSplineSet
EndChar

StartChar: logicalnot
Encoding: 172 172 110
Width: 601
VWidth: 0
Flags: HMW
LayerCount: 2
Fore
SplineSet
98 365 m 1
 100 375 l 1
 576 375 l 1
 540.5 175.5 l 1
 530.5 175.5 l 1
 564.5 365 l 1
 98 365 l 1
EndSplineSet
EndChar

StartChar: macron
Encoding: 175 175 111
Width: 494
VWidth: 0
Flags: HMW
LayerCount: 2
Fore
SplineSet
163 665 m 1
 164.5 675 l 1
 504 675 l 1
 502.5 665 l 1
 163 665 l 1
EndSplineSet
EndChar

StartChar: degree
Encoding: 176 176 112
Width: 269
VWidth: 0
Flags: HMW
LayerCount: 2
Fore
SplineSet
94 600.5 m 0
 104 666 163 720 230.5 719.5 c 0
 297.5 719 335.5 663 326 599.5 c 0
 316 534 257.5 480 190 480.5 c 0
 123 481 84.5 537 94 600.5 c 0
104 600 m 0
 95 542 130.5 491.5 190.5 490.5 c 0
 251 489.5 306.5 540 316 600 c 0
 325 658 289.5 708.5 229.5 709.5 c 0
 169 710.5 113.5 660 104 600 c 0
EndSplineSet
EndChar

StartChar: plusminus
Encoding: 177 177 113
Width: 591
VWidth: 0
Flags: HMW
LayerCount: 2
Fore
SplineSet
46 0 m 1
 47.5 10 l 1
 513.5 10 l 1
 512 0 l 1
 46 0 l 1
104.5 380 m 1
 106 390 l 1
 572 390 l 1
 570.5 380 l 1
 104.5 380 l 1
370 620 m 1
 380 620 l 1
 306.5 150 l 1
 296.5 150 l 1
 370 620 l 1
EndSplineSet
EndChar

StartChar: uni00B2
Encoding: 178 178 114
Width: 322
VWidth: 0
Flags: HMW
LayerCount: 2
Fore
SplineSet
50 282.5 m 1
 270 483 l 2
 302.5 513.5 337 546 345 594 c 0
 354 643 329.5 701.5 260.5 702.5 c 0
 184 704 135 633 119.5 559 c 1
 113.5 559 l 1
 129.5 636.5 180.5 710 260.5 708.5 c 0
 332 707.5 360 646.5 351 594 c 0
 343.5 546 309 510 275.5 479 c 2
 66 288.5 l 1
 315 288 l 1
 314 282 l 1
 50 282.5 l 1
EndSplineSet
EndChar

StartChar: uni00B3
Encoding: 179 179 115
Width: 298
VWidth: 0
Flags: HMW
LayerCount: 2
Fore
SplineSet
193 497.5 m 1
 194 502.5 l 1
 251 507.5 321 537.5 332.5 600 c 0
 341.5 649.5 309.5 698.5 249.5 699.5 c 0
 184.5 700.5 141.5 653 126.5 597 c 1
 120.5 597 l 1
 136 657 180.5 706.5 249.5 705.5 c 0
 314.5 704.5 348 652.5 338.5 599.5 c 0
 326.5 533.5 256.5 502 193 497.5 c 1
173.5 274.5 m 0
 96.5 275 64 327 69 391 c 1
 75 391 l 1
 70.5 329 99 281 173.5 280.5 c 0
 240.5 280 298 324.5 307.5 385 c 0
 318.5 457 249.5 490 193.5 495.5 c 1
 194 500.5 l 1
 256.5 495 325 459.5 313.5 384.5 c 0
 303.5 320.5 243.5 274 173.5 274.5 c 0
EndSplineSet
EndChar

StartChar: acute
Encoding: 180 180 116
Width: 342
VWidth: 0
Flags: HMW
LayerCount: 2
Fore
SplineSet
335.5 691 m 1
 142.5 536 l 1
 138 541 l 1
 328.5 699 l 1
 335.5 691 l 1
EndSplineSet
EndChar

StartChar: mu
Encoding: 181 181 117
Width: 460
VWidth: 0
Flags: HMW
LayerCount: 2
Fore
SplineSet
341 0 m 1
 420.5 459.5 l 1
 430.5 459.5 l 1
 351 0 l 1
 341 0 l 1
90.5 150 m 2
 80.5 72.5 95 1 184 0.5 c 0
 280.5 -0.5 352.5 90.5 373 179 c 1
 378.5 179 l 1
 358 81 284.5 -10.5 183 -9.5 c 0
 88 -9 69.5 65.5 80.5 150 c 2
 134.5 459.5 l 1
 144.5 459.5 l 1
 90.5 150 l 2
134.5 459.5 m 1
 144.5 459.5 l 1
 10 -319.5 l 1
 0 -319.5 l 1
 134.5 459.5 l 1
EndSplineSet
EndChar

StartChar: paragraph
Encoding: 182 182 118
Width: 434
VWidth: 0
Flags: HMW
LayerCount: 2
Fore
SplineSet
370 690 m 1
 371.5 700 l 1
 469 700 l 1
 467.5 690 l 1
 370 690 l 1
459.5 699.5 m 1
 469.5 699.5 l 1
 311.5 -219.5 l 1
 301.5 -219.5 l 1
 459.5 699.5 l 1
371.5 700 m 1
 382.5 699.5 l 1
 224 -219.5 l 1
 214 -219.5 l 1
 371.5 700 l 1
298.5 270 m 1
 176 277 93.5105 355.9965 113.5 485 c 0
 135 618.5 244 700.5 371.5 700 c 1
 298.5 270 l 1
EndSplineSet
EndChar

StartChar: periodcentered
Encoding: 183 183 119
Width: 234
VWidth: 0
Flags: HMW
LayerCount: 2
Fore
SplineSet
117 221 m 0
 117.5 226.5 124 232 129.5 232 c 0
 135 232 139.5 227 139 221 c 0
 138.5 215.5 132 210 126.5 210 c 0
 121 210 116.5 215 117 221 c 0
EndSplineSet
EndChar

StartChar: uni00B9
Encoding: 185 185 120
Width: 456
VWidth: 0
Flags: HMW
LayerCount: 2
Fore
SplineSet
225.5 666.5 m 1
 226.5 673.5 l 1
 336.5 697 l 1
 262.5 274.5 l 1
 256.5 274.5 l 1
 328 688.5 l 1
 225.5 666.5 l 1
EndSplineSet
EndChar

StartChar: cedilla
Encoding: 184 184 121
Width: 339
VWidth: 0
Flags: HMW
LayerCount: 2
Fore
SplineSet
144 0 m 1
 156 0 l 1
 87.5 -75.5 l 1
 111.5 -62.5 130.5 -51 159.5 -52.5 c 0
 195.5 -54.5 223.5 -84 218.5 -126.5 c 0
 211.5 -183.5 152.5 -220 98.5 -219.5 c 0
 64 -219.5 42.5 -206.5 18 -182 c 1
 25.5 -176 l 1
 49 -197 69 -209.5 99.5 -209.5 c 0
 147 -209.5 202 -178 209 -126 c 0
 213.5 -89 189.5 -64.5 158.5 -62.5 c 0
 129 -60.5 99.5 -74 75 -87.5 c 1
 144 0 l 1
EndSplineSet
EndChar

StartChar: questiondown
Encoding: 191 191 122
Width: 525
VWidth: 0
Flags: HMW
LayerCount: 2
Fore
SplineSet
91 179.5 m 0
 72 83.5 133 1 242 0.5 c 0
 331.5 0 394 49.5 446.5 112 c 1
 455 106 l 1
 400.5 42 336 -10 241.5 -9.5 c 0
 125 -8.5 64 76.5 81 180 c 0
 101 286.5 212.5 355 332.5 363 c 1
 361.5 530 l 1
 369 530 l 1
 345 355 l 1
 345 355.5 l 1
 187.5 344.5 104 258.5 91 179.5 c 0
410.5 699 m 0
 410 693.5 403.5 688 398 688 c 0
 392.5 688 388.5 693 389 699 c 0
 389.5 704.5 396 710 401.5 710 c 0
 407 710 411 705 410.5 699 c 0
EndSplineSet
EndChar

StartChar: multiply
Encoding: 215 215 123
Width: 560
VWidth: 0
Flags: HMW
LayerCount: 2
Fore
SplineSet
66 47 m 1
 60 54 l 1
 291.5 254 l 1
 128 456 l 1
 135.5 463 l 1
 297 260.5 l 1
 528.5 462 l 1
 534.5 455 l 1
 302 254 l 1
 464.5 53 l 1
 457 46 l 1
 296 247.5 l 1
 66 47 l 1
EndSplineSet
EndChar

StartChar: Oslash
Encoding: 216 216 124
Width: 766
VWidth: 0
Flags: HMW
LayerCount: 2
Fore
SplineSet
92 350 m 0
 65.5 171.5 156.5 3.5 348.5 3 c 0
 542.5 2.5 694.5 161.5 724.5 350 c 0
 751 528.5 660 696.5 468 697 c 0
 274 697.5 122 538.5 92 350 c 0
81 350 m 0
 111.5 545.5 270.5 708.5 468.5 708 c 0
 664.5 707.5 762.5 535.5 735.5 350 c 0
 705 154.5 546 -8.5 348 -8 c 0
 152 -7.5 54 164.5 81 350 c 0
789 732.5 m 1
 799 726 l 1
 39 -32.5 l 1
 29.5 -26 l 1
 789 732.5 l 1
EndSplineSet
EndChar

StartChar: Thorn
Encoding: 222 222 125
Width: 504
VWidth: 0
Flags: HMW
LayerCount: 2
Fore
SplineSet
170.5 699.5 m 1
 180.5 699.5 l 1
 59.5 0 l 1
 50 0 l 1
 170.5 699.5 l 1
148 550 m 1
 150 560 l 1
 301 560 l 1
 428 557.5 517 473.5 497 350 c 0
 476 223.5 361.5 142.5 230 140 c 1
 78 140 l 1
 80 150 l 1
 231 150 l 1
 353.5 153 466 234 486 350 c 0
 505.5 469 419 547 300 550 c 1
 148 550 l 1
EndSplineSet
EndChar

StartChar: divide
Encoding: 247 247 126
Width: 604
VWidth: 0
Flags: HMW
LayerCount: 2
Fore
SplineSet
340 451 m 0
 340.5 456.5 347 462 352.5 462 c 0
 358 462 362 457 361.5 451 c 0
 361 445.5 354.5 440 349 440 c 0
 343.5 440 339.5 445 340 451 c 0
268 31 m 0
 268.5 36.5 275 42 280.5 42 c 0
 286 42 290.5 37 290 31 c 0
 289.5 25.5 283 20 277.5 20 c 0
 272 20 267.5 25 268 31 c 0
71 235 m 1
 73 245 l 1
 558 245 l 1
 556.5 235 l 1
 71 235 l 1
EndSplineSet
EndChar

StartChar: oslash
Encoding: 248 248 127
Width: 529
VWidth: 0
Flags: HMW
LayerCount: 2
Fore
SplineSet
55.5 230 m 0
 76 361 188 470 322 469.5 c 0
 454.5 469 527 355 508.5 230 c 0
 488 99 375.5 -10 241.5 -9.5 c 0
 109 -9 37 105 55.5 230 c 0
65.5 230 m 0
 47.5 110 116 1 242 0.5 c 0
 369.5 0 478.5 104 498.5 230 c 0
 516.5 350 448 459 322 459.5 c 0
 194.5 460 85.5 356 65.5 230 c 0
501.5 492.5 m 1
 510 486 l 1
 41 -36.5 l 1
 33 -30 l 1
 501.5 492.5 l 1
EndSplineSet
EndChar

StartChar: circumflex
Encoding: 710 710 128
Width: 465
VWidth: 0
Flags: HMW
LayerCount: 2
Fore
SplineSet
329 717.5 m 1
 156.5 584 l 1
 150.5 591 l 1
 330 729.5 l 1
 462 590 l 1
 454.5 583 l 1
 329 717.5 l 1
EndSplineSet
EndChar

StartChar: ogonek
Encoding: 731 731 129
Width: 242
VWidth: 0
Flags: HMW
LayerCount: 2
Fore
SplineSet
160 -173.5 m 1
 166 -180.5 l 1
 142.5 -200.5 106 -220 65 -219.5 c 0
 9.5 -219 -29.5 -189.5 -23.5 -139.5 c 0
 -14 -65.5 81 -23 148.5 9.5 c 1
 154 0 l 1
 89.5 -31 -5 -74 -14 -140 c 0
 -19 -185 20.5 -209 65.5 -209.5 c 0
 103.5 -210 137.5 -191.5 160 -173.5 c 1
EndSplineSet
EndChar

StartChar: tilde
Encoding: 732 732 130
Width: 514
VWidth: 0
Flags: HMW
LayerCount: 2
Fore
SplineSet
220 649.5 m 1
 229 677.5 248 706.5 289 706.5 c 0
 336.5 706.5 355 659.5 402.5 660.5 c 0
 431.5 661 448 682 464.5 707.5 c 1
 473.5 704.5 l 1
 455 675 432.5 652.5 401 652.5 c 0
 354 652.5 333 698 291 698.5 c 0
 254 699 237.5 673 229 648.5 c 1
 220 649.5 l 1
EndSplineSet
EndChar

StartChar: ring
Encoding: 730 730 131
Width: 269
VWidth: 0
Flags: HMW
LayerCount: 2
Fore
SplineSet
142.5 785.5 m 0
 151 841 205 885 258.5 884.5 c 0
 311.5 884 349 838.5 341 784.5 c 0
 332.5 729 278.5 685 225 685.5 c 0
 172 686 134.5 731.5 142.5 785.5 c 0
152 785 m 0
 145 737.5 177.5 696.5 225.5 695.5 c 0
 274 694.5 324 736 331.5 785 c 0
 338.5 832.5 306 873.5 258 874.5 c 0
 209.5 875.5 159.5 834 152 785 c 0
EndSplineSet
EndChar

StartChar: dotaccent
Encoding: 729 729 132
Width: 234
VWidth: 0
Flags: HMW
LayerCount: 2
Fore
SplineSet
207.5 751 m 0
 208 756.5 214.5 762 220 762 c 0
 225.5 762 229.5 757 229 751 c 0
 228.5 745.5 222.5 740 217 740 c 0
 211.5 740 207 745 207.5 751 c 0
EndSplineSet
EndChar

StartChar: uni2010
Encoding: 8208 8208 133
Width: 203
VWidth: 0
Flags: HMW
LayerCount: 2
Fore
SplineSet
23 265 m 1
 24.5 275 l 1
 219 275 l 1
 217 265 l 1
 23 265 l 1
EndSplineSet
EndChar

StartChar: endash
Encoding: 8211 8211 134
Width: 718
VWidth: 0
Flags: HMW
LayerCount: 2
Fore
SplineSet
86 265 m 1
 87.5 275 l 1
 670 275 l 1
 668.5 265 l 1
 86 265 l 1
EndSplineSet
EndChar

StartChar: figuredash
Encoding: 8210 8210 135
Width: 572
VWidth: 0
Flags: HMW
LayerCount: 2
Fore
SplineSet
86 265 m 1
 87.5 275 l 1
 524.5 275 l 1
 523 265 l 1
 86 265 l 1
EndSplineSet
EndChar

StartChar: emdash
Encoding: 8212 8212 136
Width: 863
VWidth: 0
Flags: HMW
LayerCount: 2
Fore
SplineSet
86 265 m 1
 87.5 275 l 1
 815.5 275 l 1
 814 265 l 1
 86 265 l 1
EndSplineSet
EndChar

StartChar: minus
Encoding: 8722 8722 137
Width: 572
VWidth: 0
Flags: HMW
LayerCount: 2
Fore
SplineSet
86 265 m 1
 87.5 275 l 1
 524.5 275 l 1
 523 265 l 1
 86 265 l 1
EndSplineSet
EndChar

StartChar: quoteright
Encoding: 8217 8217 138
Width: 237
VWidth: 0
Flags: HMW
LayerCount: 2
Fore
SplineSet
261 699 m 1
 273 699 l 1
 139.5 471 l 1
 129.5 471 l 1
 261 699 l 1
EndSplineSet
EndChar

StartChar: quoteleft
Encoding: 8216 8216 139
Width: 218
VWidth: 0
Flags: HMW
LayerCount: 2
Fore
SplineSet
122.5 471 m 1
 110 471 l 1
 243.5 699 l 1
 253.5 699 l 1
 122.5 471 l 1
EndSplineSet
EndChar

StartChar: quotesinglbase
Encoding: 8218 8218 140
Width: 237
VWidth: 0
Flags: HMW
LayerCount: 2
Fore
SplineSet
135.5 79 m 1
 148 79 l 1
 14.5 -149 l 1
 4.5 -149 l 1
 135.5 79 l 1
EndSplineSet
EndChar

StartChar: quotedblleft
Encoding: 8220 8220 141
Width: 373
VWidth: 0
Flags: HMW
LayerCount: 2
Fore
SplineSet
141.5 471 m 1
 129.5 471 l 1
 263 699 l 1
 273 699 l 1
 141.5 471 l 1
277.5 471 m 1
 265.5 471 l 1
 398.5 699 l 1
 409 699 l 1
 277.5 471 l 1
EndSplineSet
EndChar

StartChar: quotedblright
Encoding: 8221 8221 142
Width: 373
VWidth: 0
Flags: HMW
LayerCount: 2
Fore
SplineSet
241.5 699 m 1
 253.5 699 l 1
 120.5 471 l 1
 110 471 l 1
 241.5 699 l 1
377.5 699 m 1
 389.5 699 l 1
 256 471 l 1
 246 471 l 1
 377.5 699 l 1
EndSplineSet
EndChar

StartChar: perthousand
Encoding: 8240 8240 143
Width: 1039
VWidth: 0
Flags: HMW
LayerCount: 2
Fore
SplineSet
714.5 140.5 m 0
 727.5 221 796 290 883.5 289.5 c 0
 970.5 289 1014.5 217.5 1002.5 139.5 c 0
 989.5 59 921 -10 833.5 -9.5 c 0
 746.5 -9 702.5 62.5 714.5 140.5 c 0
724.5 140 m 0
 713 69.5 752.5 0 834 -0.5 c 0
 916 -1 980 66 992.5 140 c 0
 1004 211 964 279 883 279.5 c 0
 801 280 737 214 724.5 140 c 0
102 560.5 m 0
 115 641 183.5 710 271 709.5 c 0
 358 709 402 637.5 390 559.5 c 0
 377 479 308.5 410 221 410.5 c 0
 134 411 90 482.5 102 560.5 c 0
112 560 m 0
 100.5 489.5 140 420 221.5 419.5 c 0
 303.5 419 367.5 486 380 560 c 0
 391.5 631 351.5 699 270.5 699.5 c 0
 188.5 700 124.5 634 112 560 c 0
355.5 140.5 m 0
 368.5 221 437 290 524.5 289.5 c 0
 611.5 289 655.5 217.5 643.5 139.5 c 0
 630.5 59 562 -10 474.5 -9.5 c 0
 387.5 -9 343.5 62.5 355.5 140.5 c 0
365.5 140 m 0
 354 69.5 393 0 474.5 -0.5 c 0
 556.5 -1 621 66 633.5 140 c 0
 645 211 605 279 524 279.5 c 0
 442 280 378 214 365.5 140 c 0
648.5 699 m 1
 660.5 699 l 1
 97 0 l 1
 84.5 0 l 1
 648.5 699 l 1
EndSplineSet
EndChar

StartChar: guilsinglleft
Encoding: 8249 8249 144
Width: 315
VWidth: 0
Flags: HMW
LayerCount: 2
Fore
SplineSet
64.5 255 m 1
 225 27 l 1
 217.5 20 l 1
 55 256 l 1
 297.5 489 l 1
 303.5 482 l 1
 64.5 255 l 1
EndSplineSet
EndChar

StartChar: guilsinglright
Encoding: 8250 8250 145
Width: 339
VWidth: 0
Flags: HMW
LayerCount: 2
Fore
SplineSet
308 255 m 1
 147 483 l 1
 155 490 l 1
 317.5 254 l 1
 75 21 l 1
 69 28 l 1
 308 255 l 1
EndSplineSet
EndChar

StartChar: uni2031
Encoding: 8241 8241 146
Width: 1398
VWidth: 0
Flags: HMW
LayerCount: 2
Fore
SplineSet
1073.5 140.5 m 0
 1086.5 221 1155.5 290 1243 289.5 c 0
 1330 289 1373.5 217.5 1361.5 139.5 c 0
 1348.5 59 1280 -10 1192.5 -9.5 c 0
 1105.5 -9 1061.5 62.5 1073.5 140.5 c 0
1083.5 140 m 0
 1072 69.5 1111.5 0 1193 -0.5 c 0
 1275 -1 1339.5 66 1352 140 c 0
 1363.5 211 1323 279 1242 279.5 c 0
 1160 280 1096 214 1083.5 140 c 0
714.5 140.5 m 0
 727.5 221 796 290 883.5 289.5 c 0
 970.5 289 1014.5 217.5 1002.5 139.5 c 0
 989.5 59 921 -10 833.5 -9.5 c 0
 746.5 -9 702.5 62.5 714.5 140.5 c 0
724.5 140 m 0
 713 69.5 752.5 0 834 -0.5 c 0
 916 -1 980 66 992.5 140 c 0
 1004 211 964 279 883 279.5 c 0
 801 280 737 214 724.5 140 c 0
102 560.5 m 0
 115 641 183.5 710 271 709.5 c 0
 358 709 402 637.5 390 559.5 c 0
 377 479 308.5 410 221 410.5 c 0
 134 411 90 482.5 102 560.5 c 0
112 560 m 0
 100.5 489.5 140 420 221.5 419.5 c 0
 303.5 419 367.5 486 380 560 c 0
 391.5 631 351.5 699 270.5 699.5 c 0
 188.5 700 124.5 634 112 560 c 0
355.5 140.5 m 0
 368.5 221 437 290 524.5 289.5 c 0
 611.5 289 655.5 217.5 643.5 139.5 c 0
 630.5 59 562 -10 474.5 -9.5 c 0
 387.5 -9 343.5 62.5 355.5 140.5 c 0
365.5 140 m 0
 354 69.5 393 0 474.5 -0.5 c 0
 556.5 -1 621 66 633.5 140 c 0
 645 211 605 279 524 279.5 c 0
 442 280 378 214 365.5 140 c 0
648.5 699 m 1
 660.5 699 l 1
 97 0 l 1
 84.5 0 l 1
 648.5 699 l 1
EndSplineSet
EndChar

StartChar: uni203D
Encoding: 8253 8253 147
Width: 540
VWidth: 0
Flags: HMW
LayerCount: 2
Fore
SplineSet
500.5 520 m 0
 517 616.5 460 699 349 699.5 c 0
 259.5 700 197 650.5 144.5 588 c 1
 136.5 594 l 1
 191 658 255 710 349.5 709.5 c 0
 466 708.5 527.5 623.5 510.5 520 c 0
 491.5 416.5 392 344.5 283 337.5 c 1
 276 345.5 l 1
 383.5 351.5 481.5 419.5 500.5 520 c 0
302.5 509.5 m 1
 314 509.5 l 1
 251.5 170.5 l 1
 245.5 170.5 l 1
 302.5 509.5 l 1
209.5 1 m 0
 210 6.5 216.5 12 222 12 c 0
 227.5 12 232 7 231.5 1 c 0
 231 -4.5 224.5 -10 219 -10 c 0
 213.5 -10 209 -5 209.5 1 c 0
EndSplineSet
EndChar

StartChar: Euro
Encoding: 8364 8364 148
Width: 679
VWidth: 0
Flags: HMW
LayerCount: 2
Fore
SplineSet
121.5 445 m 1
 123 455 l 1
 609.5 455 l 1
 608 445 l 1
 121.5 445 l 1
101 325 m 1
 102.5 335 l 1
 564 335 l 1
 562 325 l 1
 101 325 l 1
188 350 m 0
 166 183 216 2 389.5 0.5 c 0
 446 0 498.5 18.5 544 45.5 c 1
 541 30.5 l 1
 494 7 443 -10 389 -9.5 c 0
 204.5 -8.5 155 177.5 178 350 c 0
 205.5 537 327.5 709.5 511 709.5 c 0
 562 709.5 608 694.5 650.5 669.5 c 1
 648 654.5 l 1
 608.5 684 562.5 700 510 700 c 0
 331 700 215 532.5 188 350 c 0
EndSplineSet
EndChar

StartChar: fraction
Encoding: 8260 8260 149
Width: 684
VWidth: 0
Flags: HMW
LayerCount: 2
Fore
SplineSet
706.5 699 m 1
 719 699 l 1
 42.5 0 l 1
 30.5 0 l 1
 706.5 699 l 1
EndSplineSet
EndChar

StartChar: onequarter
Encoding: 188 188 150
Width: 731
VWidth: 0
Flags: HMW
LayerCount: 2
Fore
SplineSet
743.5 699 m 1
 755.5 699 l 1
 79.5 0 l 1
 67.5 0 l 1
 743.5 699 l 1
107 666.5 m 1
 108 673.5 l 1
 218 697 l 1
 144 274.5 l 1
 138 274.5 l 1
 209.5 688.5 l 1
 107 666.5 l 1
376.5 84 m 1
 383 90 l 1
 596.5 90 l 1
 598.5 90 l 1
 664.5 90 l 1
 664 84 l 1
 376.5 84 l 1
382.5 85 m 1
 375.5 85 l 1
 657 418.5 l 1
 656.5 419.5 l 1
 585 0 l 1
 579 0 l 1
 594 85 l 1
 594 88 l 1
 648 398.5 l 1
 382.5 85 l 1
EndSplineSet
EndChar

StartChar: onehalf
Encoding: 189 189 151
Width: 794
VWidth: 0
Flags: HMW
LayerCount: 2
Fore
SplineSet
743.5 699 m 1
 755.5 699 l 1
 79.5 0 l 1
 67.5 0 l 1
 743.5 699 l 1
107 666.5 m 1
 108 673.5 l 1
 218 697 l 1
 144 274.5 l 1
 138 274.5 l 1
 209.5 688.5 l 1
 107 666.5 l 1
454.5 2.5 m 1
 674.5 202 l 2
 707 232.5 741.5 265 749.5 313 c 0
 758.5 362 734 421 665 422.5 c 0
 588.5 424 539.5 353 524 279 c 1
 518 279 l 1
 534 356.5 585 430 665 428.5 c 0
 736.5 427 765.5 365.5 756.5 313 c 0
 749 265 713 230 679.5 199 c 2
 470.5 8.5 l 1
 719.5 8 l 1
 718.5 2 l 1
 454.5 2.5 l 1
EndSplineSet
EndChar

StartChar: threequarters
Encoding: 190 190 152
Width: 795
VWidth: 0
Flags: HMW
LayerCount: 2
Fore
SplineSet
808.5 699 m 1
 821 699 l 1
 144.5 0 l 1
 132.5 0 l 1
 808.5 699 l 1
198 497.5 m 1
 199 502.5 l 1
 256 507.5 326 537.5 337.5 600 c 0
 346.5 649.5 314 698.5 254 699.5 c 0
 189 700.5 146 653 131 597 c 1
 125 597 l 1
 140.5 657 185.5 706.5 254.5 705.5 c 0
 319.5 704.5 353 652.5 343.5 599.5 c 0
 331.5 533.5 261.5 502 198 497.5 c 1
178 274.5 m 0
 101 275 68.5 327 73.5 391 c 1
 79.5 391 l 1
 75 329 103.5 281 178 280.5 c 0
 245 280 303 324.5 312.5 385 c 0
 323.5 457 254 490 198 495.5 c 1
 199 500.5 l 1
 261.5 495 330 459.5 318.5 384.5 c 0
 308.5 320.5 248 274 178 274.5 c 0
441.5 84 m 1
 448 90 l 1
 661.5 90 l 1
 663.5 90 l 1
 729.5 90 l 1
 729 84 l 1
 441.5 84 l 1
448 85 m 1
 440.5 85 l 1
 722 418.5 l 1
 721.5 419.5 l 1
 650 0 l 1
 644 0 l 1
 659 85 l 1
 659.5 88 l 1
 713 398.5 l 1
 448 85 l 1
EndSplineSet
EndChar

StartChar: uni2150
Encoding: 8528 8528 153
Width: 817
VWidth: 0
Flags: HMW
LayerCount: 2
Fore
SplineSet
695 699 m 1
 707 699 l 1
 31 0 l 1
 19 0 l 1
 695 699 l 1
107 666.5 m 1
 108 673.5 l 1
 218 697 l 1
 144 274.5 l 1
 138 274.5 l 1
 209.5 688.5 l 1
 107 666.5 l 1
551 414 m 1
 552 420 l 1
 826.5 419.5 l 1
 538.5 0 l 1
 531 0 l 1
 815 413.5 l 1
 551 414 l 1
EndSplineSet
EndChar

StartChar: uni2151
Encoding: 8529 8529 154
Width: 760
VWidth: 0
Flags: HMW
LayerCount: 2
Fore
SplineSet
695 699 m 1
 707 699 l 1
 31 0 l 1
 19 0 l 1
 695 699 l 1
107 666.5 m 1
 108 673.5 l 1
 218 697 l 1
 144 274.5 l 1
 138 274.5 l 1
 209.5 688.5 l 1
 107 666.5 l 1
725 290 m 0
 735.5 358 701 421 627 421.5 c 0
 553 422 493 361 482 290 c 0
 473 227.5 511.5 168 576 166.5 c 0
 654 165 713.5 225.5 725 290 c 0
518 3 m 1
 510.5 3.5 l 1
 688.5 208 l 1
 689 208.5 l 1
 659 181 620.5 159 576 160 c 0
 507 161 467 225.5 476.5 290.5 c 0
 487.5 365.5 548.5 428.5 627 427.5 c 0
 706 426.5 742 362.5 731 290 c 0
 725 255 703 219.5 682 195 c 2
 518 3 l 1
EndSplineSet
EndChar

StartChar: uni2152
Encoding: 8530 8530 155
Width: 1048
VWidth: 0
Flags: HMW
LayerCount: 2
Fore
SplineSet
695 699 m 1
 707 699 l 1
 31 0 l 1
 19 0 l 1
 695 699 l 1
107 666.5 m 1
 108 673.5 l 1
 218 697 l 1
 144 274.5 l 1
 138 274.5 l 1
 209.5 688.5 l 1
 107 666.5 l 1
460.5 393.5 m 1
 461.5 400.5 l 1
 571 424 l 1
 497.5 1.5 l 1
 491.5 1.5 l 1
 563 415.5 l 1
 460.5 393.5 l 1
736.5 210 m 0
 726.5 125 732 1.5 821.5 0.5 c 0
 910.5 -0.5 965.5 115 979 210 c 0
 989 295 984 418.5 894.5 419.5 c 0
 805.5 420.5 750 305 736.5 210 c 0
729.5 210 m 0
 743.5 310.5 801 426 894.5 425.5 c 0
 989 424.5 997 300.5 986.5 210 c 0
 972.5 109.5 915 -6 821.5 -5.5 c 0
 727 -4.5 719 119.5 729.5 210 c 0
EndSplineSet
EndChar

StartChar: onethird
Encoding: 8531 8531 156
Width: 732
VWidth: 0
Flags: HMW
LayerCount: 2
Fore
SplineSet
695 699 m 1
 707 699 l 1
 31 0 l 1
 19 0 l 1
 695 699 l 1
107 666.5 m 1
 108 673.5 l 1
 218 697 l 1
 144 274.5 l 1
 138 274.5 l 1
 209.5 688.5 l 1
 107 666.5 l 1
570.5 217.5 m 1
 571.5 222.5 l 1
 628.5 227.5 698.5 257.5 710 320 c 0
 719 369.5 686.5 418.5 626.5 419.5 c 0
 561.5 420.5 518.5 373 503.5 317 c 1
 497.5 317 l 1
 513 377 557.5 426.5 626.5 425.5 c 0
 691.5 424.5 725.5 372.5 716 319.5 c 0
 704 253.5 634 222 570.5 217.5 c 1
550.5 -5.5 m 0
 473.5 -5 441 47 446 111 c 1
 452 111 l 1
 447.5 49 476 1 550.5 0.5 c 0
 617.5 0 675.5 44.5 685 105 c 0
 696 177 626.5 210 570.5 215.5 c 1
 571.5 220.5 l 1
 634 215 702.5 179.5 691 104.5 c 0
 681 40.5 620.5 -6 550.5 -5.5 c 0
EndSplineSet
EndChar

StartChar: twothirds
Encoding: 8532 8532 157
Width: 855
VWidth: 0
Flags: HMW
LayerCount: 2
Fore
SplineSet
818.5 699 m 1
 830.5 699 l 1
 154 0 l 1
 142 0 l 1
 818.5 699 l 1
53 282.5 m 1
 273 483 l 2
 305.5 513.5 340 546 348 594 c 0
 357 643 332.5 701.5 263.5 702.5 c 0
 187 704 138 633 122.5 559 c 1
 116.5 559 l 1
 132.5 636.5 183.5 710 263.5 708.5 c 0
 335 707.5 363 646.5 354 594 c 0
 346.5 546 311.5 510 278 479 c 2
 69 288.5 l 1
 318 288 l 1
 317 282 l 1
 53 282.5 l 1
693.5 217.5 m 1
 694.5 222.5 l 1
 751.5 227.5 821.5 257.5 833 320 c 0
 842 369.5 810 418.5 750 419.5 c 0
 685 420.5 642 373 627 317 c 1
 621 317 l 1
 636.5 377 681 426.5 750 425.5 c 0
 815 424.5 848.5 372.5 839 319.5 c 0
 827 253.5 757 222 693.5 217.5 c 1
674 -5.5 m 0
 597 -5 564.5 47 569.5 111 c 1
 575.5 111 l 1
 571 49 599.5 1 674 0.5 c 0
 741 0 798.5 44.5 808 105 c 0
 819 177 750 210 694 215.5 c 1
 694.5 220.5 l 1
 757 215 825.5 179.5 814 104.5 c 0
 804 40.5 744 -6 674 -5.5 c 0
EndSplineSet
EndChar

StartChar: uni2155
Encoding: 8533 8533 158
Width: 722
VWidth: 0
Flags: HMW
LayerCount: 2
Fore
SplineSet
695 699 m 1
 707 699 l 1
 31 0 l 1
 19 0 l 1
 695 699 l 1
107 666.5 m 1
 108 673.5 l 1
 218 697 l 1
 144 274.5 l 1
 138 274.5 l 1
 209.5 688.5 l 1
 107 666.5 l 1
659.5 135.5 m 0
 647.5 51.5 581.5 -8 503.5 -7.5 c 0
 442.5 -7.5 413 28 397 80 c 1
 402 83 l 1
 418 32.5 445 -1 503.5 -1.5 c 0
 578.5 -2 642 55.5 653.5 136 c 0
 662.5 199.5 630 258 565 259.5 c 0
 512.5 261 469 231 433.5 195 c 1
 446.5 213.5 l 1
 471 242 516.5 266.5 565 265.5 c 0
 633.5 264 669 203 659.5 135.5 c 0
529.5 411.5 m 1
 446 213.5 l 1
 433 195 l 1
 526 417.5 l 1
 718 418 l 1
 717 412 l 1
 529.5 411.5 l 1
EndSplineSet
EndChar

StartChar: uni2156
Encoding: 8534 8534 159
Width: 845
VWidth: 0
Flags: HMW
LayerCount: 2
Fore
SplineSet
818.5 699 m 1
 830.5 699 l 1
 154 0 l 1
 142 0 l 1
 818.5 699 l 1
53 282.5 m 1
 273 483 l 2
 305.5 513.5 340 546 348 594 c 0
 357 643 332.5 701.5 263.5 702.5 c 0
 187 704 138 633 122.5 559 c 1
 116.5 559 l 1
 132.5 636.5 183.5 710 263.5 708.5 c 0
 335 707.5 363 646.5 354 594 c 0
 346.5 546 311.5 510 278 479 c 2
 69 288.5 l 1
 318 288 l 1
 317 282 l 1
 53 282.5 l 1
782.5 135.5 m 0
 770.5 51.5 705 -8 627 -7.5 c 0
 566 -7.5 536 28 520 80 c 1
 525.5 83 l 1
 541.5 32.5 568.5 -1 627 -1.5 c 0
 702 -2 765 55.5 776.5 136 c 0
 785.5 199.5 753.5 258 688.5 259.5 c 0
 636 261 592.5 231 557 195 c 1
 569.5 213.5 l 1
 594 242 640 266.5 688.5 265.5 c 0
 757 264 792 203 782.5 135.5 c 0
652.5 411.5 m 1
 569.5 213.5 l 1
 556 195 l 1
 649 417.5 l 1
 841 418 l 1
 840 412 l 1
 652.5 411.5 l 1
EndSplineSet
EndChar

StartChar: uni2157
Encoding: 8535 8535 160
Width: 806
VWidth: 0
Flags: HMW
LayerCount: 2
Fore
SplineSet
779.5 699 m 1
 791.5 699 l 1
 115.5 0 l 1
 103 0 l 1
 779.5 699 l 1
198 497.5 m 1
 199 502.5 l 1
 256 507.5 326 537.5 337.5 600 c 0
 346.5 649.5 314 698.5 254 699.5 c 0
 189 700.5 146 653 131 597 c 1
 125 597 l 1
 140.5 657 185.5 706.5 254.5 705.5 c 0
 319.5 704.5 353 652.5 343.5 599.5 c 0
 331.5 533.5 261.5 502 198 497.5 c 1
178 274.5 m 0
 101 275 68.5 327 73.5 391 c 1
 79.5 391 l 1
 75 329 103.5 281 178 280.5 c 0
 245 280 303 324.5 312.5 385 c 0
 323.5 457 254 490 198 495.5 c 1
 199 500.5 l 1
 261.5 495 330 459.5 318.5 384.5 c 0
 308.5 320.5 248 274 178 274.5 c 0
744 135.5 m 0
 732 51.5 666 -8 588 -7.5 c 0
 527 -7.5 497.5 28 481.5 80 c 1
 486.5 83 l 1
 502.5 32.5 529.5 -1 588 -1.5 c 0
 663 -2 726.5 55.5 738 136 c 0
 747 199.5 714.5 258 649.5 259.5 c 0
 597 261 553.5 231 518 195 c 1
 531 213.5 l 1
 555.5 242 601 266.5 649.5 265.5 c 0
 718 264 753.5 203 744 135.5 c 0
613.5 411.5 m 1
 530.5 213.5 l 1
 517.5 195 l 1
 610.5 417.5 l 1
 802.5 418 l 1
 801.5 412 l 1
 613.5 411.5 l 1
EndSplineSet
EndChar

StartChar: uni2158
Encoding: 8536 8536 161
Width: 840
VWidth: 0
Flags: HMW
LayerCount: 2
Fore
SplineSet
813.5 699 m 1
 825.5 699 l 1
 149.5 0 l 1
 137 0 l 1
 813.5 699 l 1
69 364 m 1
 75.5 370 l 1
 289 370 l 1
 291 370 l 1
 357.5 370 l 1
 356.5 364 l 1
 69 364 l 1
75.5 365 m 1
 68 365 l 1
 350 699.5 l 1
 351 699.5 l 1
 278 280.5 l 1
 271 280.5 l 1
 286.5 365 l 1
 286.5 368 l 1
 340.5 678.5 l 1
 75.5 365 l 1
778 135.5 m 0
 766 51.5 700 -8 622 -7.5 c 0
 561 -7.5 531.5 28 515.5 80 c 1
 520.5 83 l 1
 536.5 32.5 563.5 -1 622 -1.5 c 0
 697 -2 760 55.5 771.5 136 c 0
 780.5 199.5 748.5 258 683.5 259.5 c 0
 631 261 587.5 231 552 195 c 1
 564.5 213.5 l 1
 589 242 635 266.5 683.5 265.5 c 0
 752 264 787.5 203 778 135.5 c 0
647.5 411.5 m 1
 564.5 213.5 l 1
 551.5 195 l 1
 644.5 417.5 l 1
 836 418 l 1
 835.5 412 l 1
 647.5 411.5 l 1
EndSplineSet
EndChar

StartChar: uni2159
Encoding: 8537 8537 162
Width: 712
VWidth: 0
Flags: HMW
LayerCount: 2
Fore
SplineSet
695 699 m 1
 707 699 l 1
 31 0 l 1
 19 0 l 1
 695 699 l 1
107 666.5 m 1
 108 673.5 l 1
 218 697 l 1
 144 274.5 l 1
 138 274.5 l 1
 209.5 688.5 l 1
 107 666.5 l 1
416 130 m 0
 405.5 62 440.5 -1 514.5 -1.5 c 0
 588.5 -2 648 59 659 130 c 0
 668 192.5 630.5 252 566 253.5 c 0
 488 255 427.5 194.5 416 130 c 0
623 417 m 1
 631.5 416.5 l 1
 453 212 l 1
 452.5 211.5 l 1
 482.5 239 521 261 566 260 c 0
 635 259 674.5 194.5 665 129.5 c 0
 654 54.5 593.5 -8.5 514.5 -7.5 c 0
 435.5 -6.5 399 57.5 410 130 c 0
 416 165 438.5 200.5 459.5 225 c 2
 623 417 l 1
EndSplineSet
EndChar

StartChar: uni215A
Encoding: 8538 8538 163
Width: 830
VWidth: 0
Flags: HMW
LayerCount: 2
Fore
SplineSet
813.5 699 m 1
 825.5 699 l 1
 149.5 0 l 1
 137 0 l 1
 813.5 699 l 1
330.5 415.5 m 0
 318.5 331.5 253 272 175 272.5 c 0
 114 272.5 84 308 68 360 c 1
 73.5 363 l 1
 89.5 312.5 116.5 279 175 278.5 c 0
 250 278 313 335.5 324.5 416 c 0
 333.5 479.5 301.5 538 236.5 539.5 c 0
 184 541 140.5 511 105 475 c 1
 117.5 493.5 l 1
 142 522 188 546.5 236.5 545.5 c 0
 305 544 340 483 330.5 415.5 c 0
200.5 691.5 m 1
 117.5 493.5 l 1
 104 475 l 1
 197 697.5 l 1
 389 698 l 1
 388 692 l 1
 200.5 691.5 l 1
534.5 130 m 0
 524 62 558.5 -1 632.5 -1.5 c 0
 706.5 -2 766.5 59 777.5 130 c 0
 786.5 192.5 749 252 684.5 253.5 c 0
 606.5 255 546 194.5 534.5 130 c 0
741.5 417 m 1
 750 416.5 l 1
 571 212 l 1
 570.5 211.5 l 1
 600.5 239 639.5 261 684.5 260 c 0
 753.5 259 793 194.5 783.5 129.5 c 0
 772.5 54.5 711.5 -8.5 632.5 -7.5 c 0
 553.5 -6.5 517.5 57.5 528.5 130 c 0
 534.5 165 556.5 200.5 577.5 225 c 2
 741.5 417 l 1
EndSplineSet
EndChar

StartChar: oneeighth
Encoding: 8539 8539 164
Width: 737
VWidth: 0
Flags: HMW
LayerCount: 2
Fore
SplineSet
695 699 m 1
 707 699 l 1
 31 0 l 1
 19 0 l 1
 695 699 l 1
107 666.5 m 1
 108 673.5 l 1
 218 697 l 1
 144 274.5 l 1
 138 274.5 l 1
 209.5 688.5 l 1
 107 666.5 l 1
498.5 325.5 m 0
 507 377.5 559.5 426 617 425.5 c 0
 674 425 709.5 375 701.5 324.5 c 0
 693 269.5 635.5 220.5 582.5 221.5 c 0
 530 222 491 272.5 498.5 325.5 c 0
504.5 325.5 m 0
 497 275 536 226.5 582 225.5 c 0
 628.5 224.5 687.5 272 695.5 324.5 c 0
 703 373.5 671 418.5 617 419.5 c 0
 562.5 420.5 512.5 375.5 504.5 325.5 c 0
450.5 111.5 m 0
 460.5 172.5 521.5 223 582.5 222.5 c 0
 643 222 684.5 170 676.5 110.5 c 0
 667.5 47.5 613.5 -6.5 543.5 -5.5 c 0
 473.5 -4.5 440.5 50.5 450.5 111.5 c 0
456.5 111 m 0
 447 52.5 478 1.5 543.5 0.5 c 0
 609 -0.5 661.5 50 670.5 111 c 0
 678.5 168 638.5 217.5 582.5 218.5 c 0
 525.5 219.5 466.5 170 456.5 111 c 0
EndSplineSet
EndChar

StartChar: threeeighths
Encoding: 8540 8540 165
Width: 821
VWidth: 0
Flags: HMW
LayerCount: 2
Fore
SplineSet
779.5 699 m 1
 791.5 699 l 1
 115.5 0 l 1
 103 0 l 1
 779.5 699 l 1
198 497.5 m 1
 199 502.5 l 1
 256 507.5 326 537.5 337.5 600 c 0
 346.5 649.5 314 698.5 254 699.5 c 0
 189 700.5 146 653 131 597 c 1
 125 597 l 1
 140.5 657 185.5 706.5 254.5 705.5 c 0
 319.5 704.5 353 652.5 343.5 599.5 c 0
 331.5 533.5 261.5 502 198 497.5 c 1
178 274.5 m 0
 101 275 68.5 327 73.5 391 c 1
 79.5 391 l 1
 75 329 103.5 281 178 280.5 c 0
 245 280 303 324.5 312.5 385 c 0
 323.5 457 254 490 198 495.5 c 1
 199 500.5 l 1
 261.5 495 330 459.5 318.5 384.5 c 0
 308.5 320.5 248 274 178 274.5 c 0
583 325.5 m 0
 591.5 377.5 644 426 701.5 425.5 c 0
 758.5 425 794 375 786 324.5 c 0
 777.5 269.5 720 220.5 667 221.5 c 0
 614.5 222 575.5 272.5 583 325.5 c 0
589 325.5 m 0
 581.5 275 620.5 226.5 666.5 225.5 c 0
 713 224.5 772 272 780 324.5 c 0
 787.5 373.5 755.5 418.5 701.5 419.5 c 0
 647 420.5 597 375.5 589 325.5 c 0
535 111.5 m 0
 545 172.5 606 223 667 222.5 c 0
 727.5 222 769 170 761 110.5 c 0
 752 47.5 698 -6.5 628 -5.5 c 0
 558 -4.5 525 50.5 535 111.5 c 0
541 111 m 0
 531.5 52.5 562.5 1 628 0.5 c 0
 693.5 -0.5 746 50 755 111 c 0
 763 168 723 217.5 667 218.5 c 0
 610 219.5 551 170 541 111 c 0
EndSplineSet
EndChar

StartChar: fiveeighths
Encoding: 8541 8541 166
Width: 855
VWidth: 0
Flags: HMW
LayerCount: 2
Fore
SplineSet
813.5 699 m 1
 825.5 699 l 1
 149.5 0 l 1
 137 0 l 1
 813.5 699 l 1
330.5 415.5 m 0
 318.5 331.5 253 272 175 272.5 c 0
 114 272.5 84 308 68 360 c 1
 73.5 363 l 1
 89.5 312.5 116.5 279 175 278.5 c 0
 250 278 313 335.5 324.5 416 c 0
 333.5 479.5 301.5 538 236.5 539.5 c 0
 184 541 140.5 511 105 475 c 1
 117.5 493.5 l 1
 142 522 188 546.5 236.5 545.5 c 0
 305 544 340 483 330.5 415.5 c 0
200.5 691.5 m 1
 117.5 493.5 l 1
 104 475 l 1
 197 697.5 l 1
 389 698 l 1
 388 692 l 1
 200.5 691.5 l 1
617 325.5 m 0
 625.5 377.5 678 426 735.5 425.5 c 0
 792.5 425 828 375 820 324.5 c 0
 811.5 269.5 753.5 220.5 700.5 221.5 c 0
 648 222 609.5 272.5 617 325.5 c 0
623 325.5 m 0
 615.5 275 654.5 226.5 700.5 225.5 c 0
 747 224.5 806 272 814 324.5 c 0
 821.5 373.5 789.5 418.5 735.5 419.5 c 0
 681 420.5 631 375.5 623 325.5 c 0
569 111.5 m 0
 579 172.5 639.5 223 700.5 222.5 c 0
 761 222 803 170 795 110.5 c 0
 786 47.5 732 -6.5 662 -5.5 c 0
 592 -4.5 559 50.5 569 111.5 c 0
575 111 m 0
 565.5 52.5 596.5 1 662 0.5 c 0
 727.5 -0.5 780 50 789 111 c 0
 797 168 757 217.5 701 218.5 c 0
 644 219.5 585 170 575 111 c 0
EndSplineSet
EndChar

StartChar: seveneighths
Encoding: 8542 8542 167
Width: 749
VWidth: 0
Flags: HMW
LayerCount: 2
Fore
SplineSet
706.5 699 m 1
 719 699 l 1
 42.5 0 l 1
 30.5 0 l 1
 706.5 699 l 1
125.5 694 m 1
 126 700 l 1
 400.5 699.5 l 1
 112.5 281 l 1
 105.5 281 l 1
 389 693.5 l 1
 125.5 694 l 1
510 325.5 m 0
 518.5 377.5 571 426 628.5 425.5 c 0
 685.5 425 721 375 713 324.5 c 0
 704.5 269.5 647 220.5 594 221.5 c 0
 541.5 222 502.5 272.5 510 325.5 c 0
516 325.5 m 0
 508.5 275 548 226.5 594 225.5 c 0
 640.5 224.5 699 272 707 324.5 c 0
 714.5 373.5 682.5 418.5 628.5 419.5 c 0
 574 420.5 524 375.5 516 325.5 c 0
462 111.5 m 0
 472 172.5 533 223 594 222.5 c 0
 654.5 222 696 170 688 110.5 c 0
 679 47.5 625.5 -6.5 555.5 -5.5 c 0
 485.5 -4.5 452 50.5 462 111.5 c 0
468 111 m 0
 458.5 52.5 490 1.5 555.5 0.5 c 0
 621 -0.5 673 50 682 111 c 0
 690 168 650.5 217.5 594.5 218.5 c 0
 537.5 219.5 478 170 468 111 c 0
EndSplineSet
EndChar

StartChar: uni2074
Encoding: 8308 8308 168
Width: 360
VWidth: 0
Flags: HMW
LayerCount: 2
Fore
SplineSet
69 364 m 1
 75.5 370 l 1
 289 370 l 1
 291 370 l 1
 357.5 370 l 1
 356.5 364 l 1
 69 364 l 1
75.5 365 m 1
 68 365 l 1
 350 699.5 l 1
 351 699.5 l 1
 278 280.5 l 1
 271 280.5 l 1
 286.5 365 l 1
 286.5 368 l 1
 340.5 678.5 l 1
 75.5 365 l 1
EndSplineSet
EndChar

StartChar: uni2075
Encoding: 8309 8309 169
Width: 330
VWidth: 0
Flags: HMW
LayerCount: 2
Fore
SplineSet
330.5 415.5 m 0
 318.5 331.5 253 272 175 272.5 c 0
 114 272.5 84 308 68 360 c 1
 73.5 363 l 1
 89.5 312.5 116.5 279 175 278.5 c 0
 250 278 313 335.5 324.5 416 c 0
 333.5 479.5 301.5 538 236.5 539.5 c 0
 184 541 140.5 511 105 475 c 1
 117.5 493.5 l 1
 142 522 188 546.5 236.5 545.5 c 0
 305 544 340 483 330.5 415.5 c 0
200.5 691.5 m 1
 117.5 493.5 l 1
 104 475 l 1
 197 697.5 l 1
 389 698 l 1
 388 692 l 1
 200.5 691.5 l 1
EndSplineSet
EndChar

StartChar: uni2076
Encoding: 8310 8310 170
Width: 322
VWidth: 0
Flags: HMW
LayerCount: 2
Fore
SplineSet
87.5 410 m 0
 77 342 111.5 279 185.5 278.5 c 0
 259.5 278 319.5 339 330.5 410 c 0
 339.5 472.5 302 532 237.5 533.5 c 0
 159.5 535 99 474.5 87.5 410 c 0
294.5 697 m 1
 302.5 696.5 l 1
 124 492 l 1
 123.5 491.5 l 1
 153.5 519 192 541 237 540 c 0
 306 539 345.5 474.5 336 409.5 c 0
 325 334.5 264.5 271.5 185.5 272.5 c 0
 106.5 273.5 70.5 337.5 81.5 410 c 0
 87.5 445 109.5 480.5 130.5 505 c 2
 294.5 697 l 1
EndSplineSet
EndChar

StartChar: uni2077
Encoding: 8311 8311 171
Width: 341
VWidth: 0
Flags: HMW
LayerCount: 2
Fore
SplineSet
125.5 694 m 1
 126 700 l 1
 400.5 699.5 l 1
 112.5 281 l 1
 105.5 281 l 1
 389 693.5 l 1
 125.5 694 l 1
EndSplineSet
EndChar

StartChar: uni2078
Encoding: 8312 8312 172
Width: 293
VWidth: 0
Flags: HMW
LayerCount: 2
Fore
SplineSet
121.5 605.5 m 0
 130 657.5 182.5 706 240 705.5 c 0
 297 705 332 655 324 604.5 c 0
 315.5 549.5 258 500.5 205 501.5 c 0
 152.5 502 114 552.5 121.5 605.5 c 0
127 605.5 m 0
 119.5 555 159 506.5 205 505.5 c 0
 251.5 504.5 310 552 318 604.5 c 0
 325.5 653.5 293.5 698.5 239.5 699.5 c 0
 185 700.5 135 655.5 127 605.5 c 0
73 391.5 m 0
 83 452.5 144 503 205 502.5 c 0
 265.5 502 307 450 299 390.5 c 0
 290 327.5 236.5 273.5 166.5 274.5 c 0
 96.5 275.5 63 330.5 73 391.5 c 0
79 391 m 0
 69.5 332.5 101 281 166.5 280.5 c 0
 232 279.5 284 330 293 391 c 0
 301 448 261.5 497.5 205.5 498.5 c 0
 148.5 499.5 89 450 79 391 c 0
EndSplineSet
EndChar

StartChar: uni2079
Encoding: 8313 8313 173
Width: 322
VWidth: 0
Flags: HMW
LayerCount: 2
Fore
SplineSet
348 570 m 0
 358.5 638 323.5 701 249.5 701.5 c 0
 175.5 702 116 641 105 570 c 0
 96 507.5 134 448 198.5 446.5 c 0
 276.5 445 336.5 505.5 348 570 c 0
141 283 m 1
 133.5 283.5 l 1
 311 488 l 1
 311.5 488.5 l 1
 281.5 461 243.5 439 199 440 c 0
 130 441 89.5 505.5 99 570.5 c 0
 110 645.5 171 708.5 249.5 707.5 c 0
 328.5 706.5 365 642.5 354 570 c 0
 348 535 325.5 499.5 304.5 475 c 2
 141 283 l 1
EndSplineSet
EndChar

StartChar: uni2070
Encoding: 8304 8304 174
Width: 314
VWidth: 0
Flags: HMW
LayerCount: 2
Fore
SplineSet
97 490 m 0
 87 405 92.5 281.5 182 280.5 c 0
 271 279.5 326.5 395 340 490 c 0
 350 575 344.5 698.5 255 699.5 c 0
 166 700.5 110.5 585 97 490 c 0
90 490 m 0
 104 590.5 161.5 706 255 705.5 c 0
 349.5 704.5 357.5 580.5 347 490 c 0
 333 389.5 275.5 274 182 274.5 c 0
 87.5 275.5 79.5 399.5 90 490 c 0
EndSplineSet
EndChar

StartChar: uni2080
Encoding: 8320 8320 175
Width: 324
VWidth: 0
Flags: HMW
LayerCount: 2
Fore
SplineSet
49.5 210 m 0
 39.5 125 44.5 1.5 134 0.5 c 0
 223 -0.5 278.5 115 292 210 c 0
 302 295 297 418.5 207.5 419.5 c 0
 118.5 420.5 63 305 49.5 210 c 0
42.5 210 m 0
 56.5 310.5 113.5 426 207 425.5 c 0
 301.5 424.5 309.5 300.5 299 210 c 0
 285 109.5 228 -6 134.5 -5.5 c 0
 40 -4.5 32 119.5 42.5 210 c 0
EndSplineSet
EndChar

StartChar: uni2084
Encoding: 8324 8324 176
Width: 360
VWidth: 0
Flags: HMW
LayerCount: 2
Fore
SplineSet
21 84 m 1
 27.5 90 l 1
 241 90 l 1
 243 90 l 1
 309.5 90 l 1
 308.5 84 l 1
 21 84 l 1
27.5 85 m 1
 20.5 85 l 1
 302 419.5 l 1
 303.5 419.5 l 1
 230.5 0 l 1
 223.5 0 l 1
 238.5 85 l 1
 239 88 l 1
 293 398.5 l 1
 27.5 85 l 1
EndSplineSet
EndChar

StartChar: uni2085
Encoding: 8325 8325 177
Width: 330
VWidth: 0
Flags: HMW
LayerCount: 2
Fore
SplineSet
283 135.5 m 0
 271 51.5 205 -8 127 -7.5 c 0
 66 -7.5 36.5 28 20.5 80 c 1
 25.5 83 l 1
 41.5 32.5 68.5 -1 127 -1.5 c 0
 202 -2 265.5 55.5 277 136 c 0
 286 199.5 253.5 258 188.5 259.5 c 0
 136 261 92.5 231 57 195 c 1
 70 213.5 l 1
 94.5 242 140 266.5 188.5 265.5 c 0
 257 264 292.5 203 283 135.5 c 0
152.5 411.5 m 1
 69.5 213.5 l 1
 56.5 195 l 1
 149.5 417.5 l 1
 341.5 418 l 1
 340.5 412 l 1
 152.5 411.5 l 1
EndSplineSet
EndChar

StartChar: uni2086
Encoding: 8326 8326 178
Width: 322
VWidth: 0
Flags: HMW
LayerCount: 2
Fore
SplineSet
39.5 130 m 0
 29 62 63.5 -1 137.5 -1.5 c 0
 211.5 -2 271.5 59 282.5 130 c 0
 291.5 192.5 254 252 189.5 253.5 c 0
 111.5 255 51 194.5 39.5 130 c 0
246.5 417 m 1
 255 416.5 l 1
 76 212 l 1
 75.5 211.5 l 1
 105.5 239 144.5 261 189.5 260 c 0
 258.5 259 298 194.5 288.5 129.5 c 0
 277.5 54.5 216.5 -8.5 137.5 -7.5 c 0
 58.5 -6.5 22.5 57.5 33.5 130 c 0
 39.5 165 62 200.5 83 225 c 2
 246.5 417 l 1
EndSplineSet
EndChar

StartChar: uni2087
Encoding: 8327 8327 179
Width: 341
VWidth: 0
Flags: HMW
LayerCount: 2
Fore
SplineSet
77.5 414 m 1
 78.5 420 l 1
 353 419.5 l 1
 64.5 0 l 1
 57.5 0 l 1
 341 413.5 l 1
 77.5 414 l 1
EndSplineSet
EndChar

StartChar: uni2088
Encoding: 8328 8328 180
Width: 293
VWidth: 0
Flags: HMW
LayerCount: 2
Fore
SplineSet
73.5 325.5 m 0
 82 377.5 134.5 426 192 425.5 c 0
 249 425 284.5 375 276.5 324.5 c 0
 268 269.5 210.5 220.5 157.5 221.5 c 0
 105 222 66 272.5 73.5 325.5 c 0
79.5 325.5 m 0
 72 275 111 226.5 157 225.5 c 0
 203.5 224.5 262.5 272 270.5 324.5 c 0
 278 373.5 246 418.5 192 419.5 c 0
 137.5 420.5 87.5 375.5 79.5 325.5 c 0
25.5 111.5 m 0
 35.5 172.5 96.5 223 157.5 222.5 c 0
 218 222 259.5 170 251.5 110.5 c 0
 242.5 47.5 188.5 -6.5 118.5 -5.5 c 0
 48.5 -4.5 15.5 50.5 25.5 111.5 c 0
31.5 111 m 0
 22 52.5 53 1 118.5 0.5 c 0
 184 -0.5 236.5 50 245.5 111 c 0
 253.5 168 213.5 217.5 157.5 218.5 c 0
 100.5 219.5 41.5 170 31.5 111 c 0
EndSplineSet
EndChar

StartChar: uni2089
Encoding: 8329 8329 181
Width: 322
VWidth: 0
Flags: HMW
LayerCount: 2
Fore
SplineSet
300 290 m 0
 310.5 358 276 421 202 421.5 c 0
 128 422 68 361 57 290 c 0
 48 227.5 86.5 168 151 166.5 c 0
 229 165 288.5 225.5 300 290 c 0
93 3 m 1
 85.5 3.5 l 1
 263.5 208 l 1
 264 208.5 l 1
 234 181 195.5 159 151 160 c 0
 82 161 41.5 225.5 51 290.5 c 0
 62 365.5 123.5 428.5 202 427.5 c 0
 281 426.5 317 362.5 306 290 c 0
 300 255 278 219.5 257 195 c 2
 93 3 l 1
EndSplineSet
EndChar

StartChar: uni2081
Encoding: 8321 8321 182
Width: 279
VWidth: 0
Flags: HMW
LayerCount: 2
Fore
SplineSet
132.5 393.5 m 1
 133.5 400.5 l 1
 243 424 l 1
 169.5 1.5 l 1
 163.5 1.5 l 1
 235 415.5 l 1
 132.5 393.5 l 1
EndSplineSet
EndChar

StartChar: uni2082
Encoding: 8322 8322 183
Width: 322
VWidth: 0
Flags: HMW
LayerCount: 2
Fore
SplineSet
2 2.5 m 1
 222.5 203 l 2
 255 233.5 289.5 266 297.5 314 c 0
 306.5 363 281.5 421.5 212.5 422.5 c 0
 136 424 87.5 353 72 279 c 1
 66 279 l 1
 82 356.5 132.5 430 212.5 428.5 c 0
 284 427.5 312.5 366.5 303.5 314 c 0
 296 266 261 230 227.5 199 c 2
 18.5 8.5 l 1
 267.5 8 l 1
 266.5 2 l 1
 2 2.5 l 1
EndSplineSet
EndChar

StartChar: uni2083
Encoding: 8323 8323 184
Width: 308
VWidth: 0
Flags: HMW
LayerCount: 2
Fore
SplineSet
145.5 217.5 m 1
 146 222.5 l 1
 203 227.5 273.5 257.5 285 320 c 0
 294 369.5 261.5 418.5 201.5 419.5 c 0
 136.5 420.5 93.5 373 78.5 317 c 1
 72.5 317 l 1
 88 377 132.5 426.5 201.5 425.5 c 0
 266.5 424.5 300.5 372.5 291 319.5 c 0
 279 253.5 209 222 145.5 217.5 c 1
125.5 -5.5 m 0
 48.5 -5 16 47 21 111 c 1
 27 111 l 1
 22.5 49 51 1 125.5 0.5 c 0
 192.5 0 250.5 44.5 260 105 c 0
 271 177 201.5 210 145.5 215.5 c 1
 146.5 220.5 l 1
 209 215 277.5 179.5 266 104.5 c 0
 256 40.5 195.5 -6 125.5 -5.5 c 0
EndSplineSet
EndChar

StartChar: Agrave
Encoding: 192 192 185
Width: 582
VWidth: 0
Flags: HMW
LayerCount: 2
Fore
SplineSet
142.5 272 m 1
 144 282 l 1
 479 282 l 1
 477.5 272 l 1
 142.5 272 l 1
382.5 688 m 1
 152.5 277 l 1
 151 273 l 1
 -1.5 0 l 1
 -13.5 0 l 1
 386.5 715 l 1
 540.5 0 l 1
 528.5 0 l 1
 472 273 l 1
 471.5 276 l 1
 382.5 688 l 1
290.5 932 m 1
 299.5 939.5 l 1
 438.5 780 l 1
 434 775.5 l 1
 290.5 932 l 1
EndSplineSet
EndChar

StartChar: Aacute
Encoding: 193 193 186
Width: 582
VWidth: 0
Flags: HMW
LayerCount: 2
Fore
SplineSet
142.5 272 m 1
 144 282 l 1
 479 282 l 1
 477.5 272 l 1
 142.5 272 l 1
382.5 688 m 1
 152.5 277 l 1
 151 273 l 1
 -1.5 0 l 1
 -13.5 0 l 1
 386.5 715 l 1
 540.5 0 l 1
 528.5 0 l 1
 472 273 l 1
 471.5 276 l 1
 382.5 688 l 1
555.5 931 m 1
 359 776 l 1
 356 781 l 1
 549 939 l 1
 555.5 931 l 1
EndSplineSet
EndChar

StartChar: Acircumflex
Encoding: 194 194 187
Width: 582
VWidth: 0
Flags: HMW
LayerCount: 2
Fore
SplineSet
142.5 272 m 1
 144 282 l 1
 479 282 l 1
 477.5 272 l 1
 142.5 272 l 1
382.5 688 m 1
 152.5 277 l 1
 151 273 l 1
 -1.5 0 l 1
 -13.5 0 l 1
 386.5 715 l 1
 540.5 0 l 1
 528.5 0 l 1
 472 273 l 1
 471.5 276 l 1
 382.5 688 l 1
420 909.5 m 1
 247.5 776 l 1
 241.5 783 l 1
 421 921.5 l 1
 553 782 l 1
 545.5 775 l 1
 420 909.5 l 1
EndSplineSet
EndChar

StartChar: Atilde
Encoding: 195 195 188
Width: 582
VWidth: 0
Flags: HMW
LayerCount: 2
Fore
SplineSet
142.5 272 m 1
 144 282 l 1
 479 282 l 1
 477.5 272 l 1
 142.5 272 l 1
382.5 688 m 1
 152.5 277 l 1
 151 273 l 1
 -1.5 0 l 1
 -13.5 0 l 1
 386.5 715 l 1
 540.5 0 l 1
 528.5 0 l 1
 472 273 l 1
 471.5 276 l 1
 382.5 688 l 1
277 796.5 m 1
 286.5 824.5 306 853.5 347 853.5 c 0
 399.5 853.5 412.5 806.5 459.5 807.5 c 0
 488.5 808 505.5 829 522.5 854.5 c 1
 532.5 851.5 l 1
 514 822 490.5 799.5 459 799.5 c 0
 407 799.5 390.5 846 348.5 845.5 c 0
 312 845 296 819.5 287 795.5 c 1
 277 796.5 l 1
EndSplineSet
EndChar

StartChar: Adieresis
Encoding: 196 196 189
Width: 582
VWidth: 0
Flags: HMW
LayerCount: 2
Fore
SplineSet
142.5 272 m 1
 144 282 l 1
 479 282 l 1
 477.5 272 l 1
 142.5 272 l 1
382.5 688 m 1
 152.5 277 l 1
 151 273 l 1
 -1.5 0 l 1
 -13.5 0 l 1
 386.5 715 l 1
 540.5 0 l 1
 528.5 0 l 1
 472 273 l 1
 471.5 276 l 1
 382.5 688 l 1
488 806 m 0
 488.5 811.5 495 817 500.5 817 c 0
 506 817 510 812 509.5 806 c 0
 509 800.5 502.5 795 497 795 c 0
 491.5 795 487.5 800 488 806 c 0
293.5 806 m 0
 294 811.5 300.5 817 306 817 c 0
 311.5 817 316 812 315.5 806 c 0
 315 800.5 308.5 795 303 795 c 0
 297.5 795 293 800 293.5 806 c 0
EndSplineSet
EndChar

StartChar: Aring
Encoding: 197 197 190
Width: 582
VWidth: 0
Flags: HMW
LayerCount: 2
Fore
SplineSet
142.5 272 m 1
 144 282 l 1
 479 282 l 1
 477.5 272 l 1
 142.5 272 l 1
382.5 688 m 1
 152.5 277 l 1
 151 273 l 1
 -1.5 0 l 1
 -13.5 0 l 1
 386.5 715 l 1
 540.5 0 l 1
 528.5 0 l 1
 472 273 l 1
 471.5 276 l 1
 382.5 688 l 1
302.5 808.5 m 0
 311 864 365.5 908 419 907.5 c 0
 472 907 509.5 861.5 501.5 807.5 c 0
 493 752 438.5 708 385 708.5 c 0
 332 709 294.5 754.5 302.5 808.5 c 0
312.5 808 m 0
 305.5 760.5 338 719.5 386 718.5 c 0
 434.5 717.5 484 759 491.5 808 c 0
 498.5 855.5 466 896.5 418 897.5 c 0
 369.5 898.5 320 857 312.5 808 c 0
EndSplineSet
EndChar

StartChar: AE
Encoding: 198 198 191
Width: 869
VWidth: 0
Flags: HMW
LayerCount: 2
Fore
SplineSet
221.5 280 m 1
 223 290 l 1
 505 290 l 1
 503 280 l 1
 221.5 280 l 1
563 700 m 1
 576.5 699 l 1
 -10 0 l 1
 -23 0 l 1
 563 700 l 1
455 0 m 1
 457 10 l 1
 766.5 10 l 1
 765 0 l 1
 455 0 l 1
576.5 690 m 1
 563 700 l 1
 884.5 700 l 1
 882.5 690 l 1
 576.5 690 l 1
520.5 384 m 1
 522.5 394 l 1
 812.5 394 l 1
 811 384 l 1
 520.5 384 l 1
568.5 699.5 m 1
 579.5 699.5 l 1
 458.5 0 l 1
 447.5 0 l 1
 568.5 699.5 l 1
EndSplineSet
EndChar

StartChar: Ccedilla
Encoding: 199 199 192
Width: 664
VWidth: 0
Flags: HMW
LayerCount: 2
Fore
SplineSet
93 350 m 0
 67 173.5 153 6 342 4.5 c 0
 436 4 510 35 575.5 87 c 1
 572.5 71.5 l 1
 506.5 23 435.5 -8 341 -7.5 c 0
 145 -6.5 54 165.5 81 350 c 0
 111.5 545.5 264 707 462 708 c 0
 550.5 708.5 612.5 681.5 667.5 628.5 c 1
 665 613.5 l 1
 613.5 670.5 545 696.5 461 696 c 0
 270 695 123 539 93 350 c 0
336 -1.5 m 1
 348 -1.5 l 1
 279.5 -76.5 l 1
 303.5 -63.5 322.5 -52 351.5 -53.5 c 0
 387.5 -55.5 415.5 -85 410.5 -127.5 c 0
 403.5 -184.5 344.5 -221 290.5 -220.5 c 0
 256 -220.5 234.5 -207.5 210 -183 c 1
 217.5 -177 l 1
 241 -198 261 -210.5 291.5 -210.5 c 0
 339 -210.5 393.5 -179 400.5 -127 c 0
 405 -90 381.5 -65.5 350.5 -63.5 c 0
 321 -61.5 291.5 -75 267 -88.5 c 1
 336 -1.5 l 1
EndSplineSet
EndChar

StartChar: Egrave
Encoding: 200 200 193
Width: 494
VWidth: 0
Flags: HMW
LayerCount: 2
Fore
SplineSet
62 0 m 1
 63.5 10 l 1
 392 10 l 1
 390.5 0 l 1
 62 0 l 1
180 690 m 1
 181.5 700 l 1
 509.5 700 l 1
 508 690 l 1
 180 690 l 1
127.5 384 m 1
 129.5 394 l 1
 438 394 l 1
 436.5 384 l 1
 127.5 384 l 1
180 699.5 m 1
 191 699.5 l 1
 70.5 0 l 1
 59.5 0 l 1
 180 699.5 l 1
231.5 925 m 1
 240 932.5 l 1
 379 773 l 1
 374.5 768.5 l 1
 231.5 925 l 1
EndSplineSet
EndChar

StartChar: Eacute
Encoding: 201 201 194
Width: 494
VWidth: 0
Flags: HMW
LayerCount: 2
Fore
SplineSet
62 0 m 1
 63.5 10 l 1
 392 10 l 1
 390.5 0 l 1
 62 0 l 1
180 690 m 1
 181.5 700 l 1
 509.5 700 l 1
 508 690 l 1
 180 690 l 1
127.5 384 m 1
 129.5 394 l 1
 438 394 l 1
 436.5 384 l 1
 127.5 384 l 1
180 699.5 m 1
 191 699.5 l 1
 70.5 0 l 1
 59.5 0 l 1
 180 699.5 l 1
535 924 m 1
 338.5 769 l 1
 335 774 l 1
 528.5 932 l 1
 535 924 l 1
EndSplineSet
EndChar

StartChar: Ecircumflex
Encoding: 202 202 195
Width: 494
VWidth: 0
Flags: HMW
LayerCount: 2
Fore
SplineSet
62 0 m 1
 63.5 10 l 1
 392 10 l 1
 390.5 0 l 1
 62 0 l 1
180 690 m 1
 181.5 700 l 1
 509.5 700 l 1
 508 690 l 1
 180 690 l 1
127.5 384 m 1
 129.5 394 l 1
 438 394 l 1
 436.5 384 l 1
 127.5 384 l 1
180 699.5 m 1
 191 699.5 l 1
 70.5 0 l 1
 59.5 0 l 1
 180 699.5 l 1
380 902.5 m 1
 207.5 769 l 1
 201.5 776 l 1
 381 914.5 l 1
 513 775 l 1
 505.5 768 l 1
 380 902.5 l 1
EndSplineSet
EndChar

StartChar: Edieresis
Encoding: 203 203 196
Width: 494
VWidth: 0
Flags: HMW
LayerCount: 2
Fore
SplineSet
62 0 m 1
 63.5 10 l 1
 392 10 l 1
 390.5 0 l 1
 62 0 l 1
180 690 m 1
 181.5 700 l 1
 509.5 700 l 1
 508 690 l 1
 180 690 l 1
127.5 384 m 1
 129.5 394 l 1
 438 394 l 1
 436.5 384 l 1
 127.5 384 l 1
180 699.5 m 1
 191 699.5 l 1
 70.5 0 l 1
 59.5 0 l 1
 180 699.5 l 1
448 799 m 0
 448.5 804.5 455 810 460.5 810 c 0
 466 810 470 805 469.5 799 c 0
 469 793.5 462.5 788 457 788 c 0
 451.5 788 447.5 793 448 799 c 0
253.5 799 m 0
 254 804.5 260.5 810 266 810 c 0
 271.5 810 276 805 275.5 799 c 0
 275 793.5 268.5 788 263 788 c 0
 257.5 788 253 793 253.5 799 c 0
EndSplineSet
EndChar

StartChar: Igrave
Encoding: 204 204 197
Width: 174
VWidth: 0
Flags: HMW
LayerCount: 2
Fore
SplineSet
175.5 699.5 m 1
 185.5 699.5 l 1
 64.5 0 l 1
 54.5 0 l 1
 175.5 699.5 l 1
66.5 925 m 1
 75 932.5 l 1
 214 773 l 1
 209.5 768.5 l 1
 66.5 925 l 1
EndSplineSet
EndChar

StartChar: Iacute
Encoding: 205 205 198
Width: 174
VWidth: 0
Flags: HMW
LayerCount: 2
Fore
SplineSet
175.5 699.5 m 1
 185.5 699.5 l 1
 64.5 0 l 1
 54.5 0 l 1
 175.5 699.5 l 1
370 924 m 1
 173.5 769 l 1
 170 774 l 1
 363.5 932 l 1
 370 924 l 1
EndSplineSet
EndChar

StartChar: Icircumflex
Encoding: 206 206 199
Width: 174
VWidth: 0
Flags: HMW
LayerCount: 2
Fore
SplineSet
175.5 699.5 m 1
 185.5 699.5 l 1
 64.5 0 l 1
 54.5 0 l 1
 175.5 699.5 l 1
215 902.5 m 1
 42.5 769 l 1
 36.5 776 l 1
 216 914.5 l 1
 348 775 l 1
 340.5 768 l 1
 215 902.5 l 1
EndSplineSet
EndChar

StartChar: Idieresis
Encoding: 207 207 200
Width: 174
VWidth: 0
Flags: HMW
LayerCount: 2
Fore
SplineSet
175.5 699.5 m 1
 185.5 699.5 l 1
 64.5 0 l 1
 54.5 0 l 1
 175.5 699.5 l 1
253.5 799 m 0
 254 804.5 260.5 810 266 810 c 0
 271.5 810 276 805 275.5 799 c 0
 275 793.5 268.5 788 263 788 c 0
 257.5 788 253 793 253.5 799 c 0
118 799 m 0
 118.5 804.5 125 810 130.5 810 c 0
 136 810 140 805 139.5 799 c 0
 139 793.5 132.5 788 127 788 c 0
 121.5 788 117.5 793 118 799 c 0
EndSplineSet
EndChar

StartChar: Ntilde
Encoding: 209 209 201
Width: 645
VWidth: 0
Flags: HMW
LayerCount: 2
Fore
SplineSet
659.5 699.5 m 1
 670.5 699.5 l 1
 547.5 -15 l 1
 148.5 678 l 1
 31.5 0 l 1
 20.5 0 l 1
 143.5 715 l 1
 542 17 l 1
 659.5 699.5 l 1
299.75 756.5 m 1
 309.25 784.5 328.75 813.5 369.75 813.5 c 0
 417.25 813.5 435.25 766.5 482.25 767.5 c 0
 511.25 768 528.25 789 545.25 814.5 c 1
 554.25 811.5 l 1
 535.75 782 512.75 759.5 480.75 759.5 c 0
 433.75 759.5 413.25 805 371.25 805.5 c 0
 334.25 806 317.25 780 308.75 755.5 c 1
 299.75 756.5 l 1
EndSplineSet
EndChar

StartChar: Eth
Encoding: 208 208 202
Width: 659
VWidth: 0
Flags: HMW
LayerCount: 2
Fore
SplineSet
36.5 345 m 1
 38 355 l 1
 329.5 355 l 1
 328 345 l 1
 36.5 345 l 1
180 699.5 m 1
 191 699.5 l 1
 70.5 0 l 1
 59.5 0 l 1
 180 699.5 l 1
216 0 m 1
 65 0 l 1
 67 11 l 1
 217 11 l 1
 414.5 14.5 558.5 158 589.5 350 c 0
 617.5 532.5 528.5 685 333.5 689 c 1
 182.5 689 l 1
 184.5 700 l 1
 334.5 700 l 1
 535.5 696.5 629 538.5 600.5 350 c 0
 569 152 420 3 216 0 c 1
EndSplineSet
EndChar

StartChar: Ograve
Encoding: 210 210 203
Width: 751
VWidth: 0
Flags: HMW
LayerCount: 2
Fore
SplineSet
92 350 m 0
 65.5 171.5 156.5 3.5 348.5 3 c 0
 542.5 2.5 694.5 161.5 724.5 350 c 0
 751 528.5 660 696.5 468 697 c 0
 274 697.5 122 538.5 92 350 c 0
81 350 m 0
 111.5 545.5 270.5 708.5 468.5 708 c 0
 664.5 707.5 762.5 535.5 735.5 350 c 0
 705 154.5 546 -8.5 348 -8 c 0
 152 -7.5 54 164.5 81 350 c 0
375 925 m 1
 384 932.5 l 1
 522.5 773 l 1
 516 768.5 l 1
 375 925 l 1
EndSplineSet
EndChar

StartChar: Oacute
Encoding: 211 211 204
Width: 751
VWidth: 0
Flags: HMW
LayerCount: 2
Fore
SplineSet
92 350 m 0
 65.5 171.5 156.5 3.5 348.5 3 c 0
 542.5 2.5 694.5 161.5 724.5 350 c 0
 751 528.5 660 696.5 468 697 c 0
 274 697.5 122 538.5 92 350 c 0
81 350 m 0
 111.5 545.5 270.5 708.5 468.5 708 c 0
 664.5 707.5 762.5 535.5 735.5 350 c 0
 705 154.5 546 -8.5 348 -8 c 0
 152 -7.5 54 164.5 81 350 c 0
638 924 m 1
 443.5 769 l 1
 438 774 l 1
 631 932 l 1
 638 924 l 1
EndSplineSet
EndChar

StartChar: Ocircumflex
Encoding: 212 212 205
Width: 751
VWidth: 0
Flags: HMW
LayerCount: 2
Fore
SplineSet
92 350 m 0
 65.5 171.5 156.5 3.5 348.5 3 c 0
 542.5 2.5 694.5 161.5 724.5 350 c 0
 751 528.5 660 696.5 468 697 c 0
 274 697.5 122 538.5 92 350 c 0
81 350 m 0
 111.5 545.5 270.5 708.5 468.5 708 c 0
 664.5 707.5 762.5 535.5 735.5 350 c 0
 705 154.5 546 -8.5 348 -8 c 0
 152 -7.5 54 164.5 81 350 c 0
503 902.5 m 1
 331 769 l 1
 325 776 l 1
 504.5 914.5 l 1
 636.5 775 l 1
 628.5 768 l 1
 503 902.5 l 1
EndSplineSet
EndChar

StartChar: Otilde
Encoding: 213 213 206
Width: 751
VWidth: 0
Flags: HMW
LayerCount: 2
Fore
SplineSet
92 350 m 0
 65.5 171.5 156.5 3.5 348.5 3 c 0
 542.5 2.5 694.5 161.5 724.5 350 c 0
 751 528.5 660 696.5 468 697 c 0
 274 697.5 122 538.5 92 350 c 0
81 350 m 0
 111.5 545.5 270.5 708.5 468.5 708 c 0
 664.5 707.5 762.5 535.5 735.5 350 c 0
 705 154.5 546 -8.5 348 -8 c 0
 152 -7.5 54 164.5 81 350 c 0
361 789.5 m 1
 370 817 390 846.5 431.5 846.5 c 0
 479.006 846.5 496.5 799.5 543.5 800.5 c 0
 572.5 801 590 822 607 847.5 c 1
 614.5 844.5 l 1
 596 815 573.5 792.5 541.5 792.5 c 0
 494.5 792.5 474.5 838 433 838.5 c 0
 395.5 839 378 813 369 788.5 c 1
 361 789.5 l 1
EndSplineSet
EndChar

StartChar: Odieresis
Encoding: 214 214 207
Width: 751
VWidth: 0
Flags: HMW
LayerCount: 2
Fore
SplineSet
92 350 m 0
 65.5 171.5 156.5 3.5 348.5 3 c 0
 542.5 2.5 694.5 161.5 724.5 350 c 0
 751 528.5 660 696.5 468 697 c 0
 274 697.5 122 538.5 92 350 c 0
81 350 m 0
 111.5 545.5 270.5 708.5 468.5 708 c 0
 664.5 707.5 762.5 535.5 735.5 350 c 0
 705 154.5 546 -8.5 348 -8 c 0
 152 -7.5 54 164.5 81 350 c 0
582.5 809 m 0
 583 814.5 589.5 820 595 820 c 0
 600.5 820 604.5 815 604 809 c 0
 603.5 803.5 597 798 591.5 798 c 0
 586 798 582 803 582.5 809 c 0
369 809 m 0
 369.5 814.5 376 820 381.5 820 c 0
 387 820 391 815 390.5 809 c 0
 390 803.5 383.5 798 378 798 c 0
 372.5 798 368.5 803 369 809 c 0
EndSplineSet
EndChar

StartChar: Ugrave
Encoding: 217 217 208
Width: 558
VWidth: 0
Flags: HMW
LayerCount: 2
Fore
SplineSet
175.5 699.5 m 1
 186 699.5 l 1
 103.5 220 l 2
 88.5 104 129 2 252 1.5 c 0
 375 1 456 98 476 220 c 2
 558.5 699.5 l 1
 569.5 699.5 l 1
 487.5 220 l 2
 466.5 92.5 386 -10 251.5 -9.5 c 0
 117 -9 77 98.5 93 220 c 2
 175.5 699.5 l 1
278 925 m 1
 286.5 932.5 l 1
 425.5 773 l 1
 421 768.5 l 1
 278 925 l 1
EndSplineSet
EndChar

StartChar: Uacute
Encoding: 218 218 209
Width: 558
VWidth: 0
Flags: HMW
LayerCount: 2
Fore
SplineSet
175.5 699.5 m 1
 186 699.5 l 1
 103.5 220 l 2
 88.5 104 129 2 252 1.5 c 0
 375 1 456 98 476 220 c 2
 558.5 699.5 l 1
 569.5 699.5 l 1
 487.5 220 l 2
 466.5 92.5 386 -10 251.5 -9.5 c 0
 117 -9 77 98.5 93 220 c 2
 175.5 699.5 l 1
543 924 m 1
 346.5 769 l 1
 343 774 l 1
 536 932 l 1
 543 924 l 1
EndSplineSet
EndChar

StartChar: Ucircumflex
Encoding: 219 219 210
Width: 558
VWidth: 0
Flags: HMW
LayerCount: 2
Fore
SplineSet
175.5 699.5 m 1
 186 699.5 l 1
 103.5 220 l 2
 88.5 104 129 2 252 1.5 c 0
 375 1 456 98 476 220 c 2
 558.5 699.5 l 1
 569.5 699.5 l 1
 487.5 220 l 2
 466.5 92.5 386 -10 251.5 -9.5 c 0
 117 -9 77 98.5 93 220 c 2
 175.5 699.5 l 1
407 902.5 m 1
 234.5 769 l 1
 229 776 l 1
 408.5 914.5 l 1
 540.5 775 l 1
 532.5 768 l 1
 407 902.5 l 1
EndSplineSet
EndChar

StartChar: Udieresis
Encoding: 220 220 211
Width: 558
VWidth: 0
Flags: HMW
LayerCount: 2
Fore
SplineSet
175.5 699.5 m 1
 186 699.5 l 1
 103.5 220 l 2
 88.5 104 129 2 252 1.5 c 0
 375 1 456 98 476 220 c 2
 558.5 699.5 l 1
 569.5 699.5 l 1
 487.5 220 l 2
 466.5 92.5 386 -10 251.5 -9.5 c 0
 117 -9 77 98.5 93 220 c 2
 175.5 699.5 l 1
462 779 m 0
 462.5 784.5 469 790 474.5 790 c 0
 480 790 484 785 483.5 779 c 0
 483 773.5 476.5 768 471 768 c 0
 465.5 768 461.5 773 462 779 c 0
287 779 m 0
 287.5 784.5 294 790 299.5 790 c 0
 305 790 309.5 785 309 779 c 0
 308.5 773.5 302 768 296.5 768 c 0
 291 768 286.5 773 287 779 c 0
EndSplineSet
EndChar

StartChar: Yacute
Encoding: 221 221 212
Width: 492
VWidth: 0
Flags: HMW
LayerCount: 2
Fore
SplineSet
528.5 924 m 1
 332.5 769 l 1
 328.5 774 l 1
 521.5 932 l 1
 528.5 924 l 1
557.5 699 m 1
 570.5 699 l 1
 265 266.5 l 1
 219 0 l 1
 208 0 l 1
 254.5 266.5 l 1
 107 700 l 1
 119.5 700 l 1
 261 281.5 l 1
 557.5 699 l 1
EndSplineSet
EndChar

StartChar: agrave
Encoding: 224 224 213
Width: 525
VWidth: 0
Flags: HMW
LayerCount: 2
Fore
SplineSet
489.5 459.5 m 1
 499.5 459.5 l 1
 419.5 0 l 1
 410 0 l 1
 489.5 459.5 l 1
55.5 230 m 0
 75 361.5 176.5 471 303 469.5 c 0
 427.5 468 470.5 336.5 455 230 c 0
 436.5 115.5 347 -9 222 -9.5 c 0
 95.5 -10 38.5 105.5 55.5 230 c 0
65.5 230 m 0
 49 111 103.5 -0.5 225.5 0.5 c 0
 340 1.5 432 119.5 450 230 c 0
 465 332 418.5 457.5 305 459.5 c 0
 183.5 462 84.5 356 65.5 230 c 0
248.5 697 m 1
 257.5 704.5 l 1
 396 545 l 1
 392 540.5 l 1
 248.5 697 l 1
EndSplineSet
Substitution2: "alt a" agrave.alt
EndChar

StartChar: aacute
Encoding: 225 225 214
Width: 525
VWidth: 0
Flags: HMW
LayerCount: 2
Fore
SplineSet
489.5 459.5 m 1
 499.5 459.5 l 1
 419.5 0 l 1
 410 0 l 1
 489.5 459.5 l 1
55.5 230 m 0
 75 361.5 176.5 471 303 469.5 c 0
 427.5 468 470.5 336.5 455 230 c 0
 436.5 115.5 347 -9 222 -9.5 c 0
 95.5 -10 38.5 105.5 55.5 230 c 0
65.5 230 m 0
 49 111 103.5 -0.5 225.5 0.5 c 0
 340 1.5 432 119.5 450 230 c 0
 465 332 418.5 457.5 305 459.5 c 0
 183.5 462 84.5 356 65.5 230 c 0
436 696 m 1
 239.5 541 l 1
 236 546 l 1
 429 704 l 1
 436 696 l 1
EndSplineSet
Substitution2: "alt a" aacute.alt
EndChar

StartChar: acircumflex
Encoding: 226 226 215
Width: 525
VWidth: 0
Flags: HMW
LayerCount: 2
Fore
SplineSet
489.5 459.5 m 1
 499.5 459.5 l 1
 419.5 0 l 1
 410 0 l 1
 489.5 459.5 l 1
55.5 230 m 0
 75 361.5 176.5 471 303 469.5 c 0
 427.5 468 470.5 336.5 455 230 c 0
 436.5 115.5 347 -9 222 -9.5 c 0
 95.5 -10 38.5 105.5 55.5 230 c 0
65.5 230 m 0
 49 111 103.5 -0.5 225.5 0.5 c 0
 340 1.5 432 119.5 450 230 c 0
 465 332 418.5 457.5 305 459.5 c 0
 183.5 462 84.5 356 65.5 230 c 0
340.5 684.5 m 1
 168.5 551 l 1
 162.5 558 l 1
 342 696.5 l 1
 474 557 l 1
 466.5 550 l 1
 340.5 684.5 l 1
EndSplineSet
Substitution2: "alt a" acircumflex.alt
EndChar

StartChar: atilde
Encoding: 227 227 216
Width: 525
VWidth: 0
Flags: HMW
LayerCount: 2
Fore
SplineSet
489.5 459.5 m 1
 499.5 459.5 l 1
 419.5 0 l 1
 410 0 l 1
 489.5 459.5 l 1
55.5 230 m 0
 75 361.5 176.5 471 303 469.5 c 0
 427.5 468 470.5 336.5 455 230 c 0
 436.5 115.5 347 -9 222 -9.5 c 0
 95.5 -10 38.5 105.5 55.5 230 c 0
65.5 230 m 0
 49 111 103.5 -0.5 225.5 0.5 c 0
 340 1.5 432 119.5 450 230 c 0
 465 332 418.5 457.5 305 459.5 c 0
 183.5 462 84.5 356 65.5 230 c 0
194.5 551.5 m 1
 187.5 578 234 608.5 264.5 608.5 c 0
 312 609 330 561.5 377 562.5 c 0
 406 563 423 584 440 609.5 c 1
 450 606.5 l 1
 431.5 577 408 554.5 376.5 554.5 c 0
 329.5 554.5 308 601 266 600.5 c 0
 229.5 600 213.5 574.5 204.5 550.5 c 1
 194.5 551.5 l 1
EndSplineSet
Substitution2: "alt a" atilde.alt
EndChar

StartChar: adieresis
Encoding: 228 228 217
Width: 525
VWidth: 0
Flags: HMW
LayerCount: 2
Fore
SplineSet
489.5 459.5 m 1
 499.5 459.5 l 1
 419.5 0 l 1
 410 0 l 1
 489.5 459.5 l 1
55.5 230 m 0
 75 361.5 176.5 471 303 469.5 c 0
 427.5 468 470.5 336.5 455 230 c 0
 436.5 115.5 347 -9 222 -9.5 c 0
 95.5 -10 38.5 105.5 55.5 230 c 0
65.5 230 m 0
 49 111 103.5 -0.5 225.5 0.5 c 0
 340 1.5 432 119.5 450 230 c 0
 465 332 418.5 457.5 305 459.5 c 0
 183.5 462 84.5 356 65.5 230 c 0
420 591 m 0
 420.5 596.5 427 602 432.5 602 c 0
 438 602 442 597 441.5 591 c 0
 441 585.5 434.5 580 429 580 c 0
 423.5 580 419.5 585 420 591 c 0
226 591 m 0
 226.5 596.5 233 602 238.5 602 c 0
 244 602 248 597 247.5 591 c 0
 247 585.5 240.5 580 235 580 c 0
 229.5 580 225.5 585 226 591 c 0
EndSplineSet
Substitution2: "alt a" adieresis.alt
EndChar

StartChar: aring
Encoding: 229 229 218
Width: 525
VWidth: 0
Flags: HMW
LayerCount: 2
Fore
SplineSet
489.5 459.5 m 1
 499.5 459.5 l 1
 419.5 0 l 1
 410 0 l 1
 489.5 459.5 l 1
55.5 230 m 0
 75 361.5 176.5 471 303 469.5 c 0
 427.5 468 470.5 336.5 455 230 c 0
 436.5 115.5 347 -9 222 -9.5 c 0
 95.5 -10 38.5 105.5 55.5 230 c 0
65.5 230 m 0
 49 111 103.5 -0.5 225.5 0.5 c 0
 340 1.5 432 119.5 450 230 c 0
 465 332 418.5 457.5 305 459.5 c 0
 183.5 462 84.5 356 65.5 230 c 0
231.5 630.5 m 0
 240 686 294 730 347.5 729.5 c 0
 400.5 729 438 683.5 430 629.5 c 0
 421.5 574 367.5 530 314 530.5 c 0
 261 531 223.5 576.5 231.5 630.5 c 0
241 630 m 0
 234 582.5 266.5 541.5 314.5 540.5 c 0
 363 539.5 413 581 420.5 630 c 0
 427.5 677.5 395 718.5 347 719.5 c 0
 298.5 720.5 248.5 679 241 630 c 0
EndSplineSet
Substitution2: "alt a" aring.alt
EndChar

StartChar: germandbls
Encoding: 223 223 219
Width: 514
VWidth: 0
Flags: HMW
LayerCount: 2
Fore
SplineSet
217 0 m 1
 347 8 451 95.5 472.5 225 c 0
 493.5 364 389 436.5 273.5 443 c 1
 274.5 449.5 l 1
 415 443.5 504 354.5 482.5 225 c 0
 460.5 89 351.5 -2.5 215.5 -9.5 c 1
 217 0 l 1
274 445.5 m 1
 275 453 l 1
 382.5 457 479 495 498.5 606 c 0
 515 699 472.5 779.5 356 779.5 c 0
 255.5 779.5 180.5 698 163.5 606 c 2
 59.5 0 l 1
 50 0 l 1
 153.5 606 l 1
 172 708 250 789 356.5 789.5 c 0
 479.5 790 525.5 708.5 508.5 605.5 c 0
 488.5 499 407 449.5 274 445.5 c 1
EndSplineSet
EndChar

StartChar: ae
Encoding: 230 230 220
Width: 800
VWidth: 0
Flags: HMW
LayerCount: 2
Fore
SplineSet
43.5 132 m 0
 31 62.5 73 0.5 160.5 0.5 c 0
 253.5 0.5 333 83.5 346.5 166 c 1
 354.5 165 l 1
 341 78.5 261 -9.5 160 -9.5 c 0
 68 -9.5 21.5 55.5 34 132.5 c 0
 49.5 225.5 139 281 238.5 280.5 c 0
 299.5 280.5 338 256.5 361 235 c 1
 359 225.5 l 1
 334.5 249.5 294 270.5 238 270.5 c 0
 143 270.5 58.5 218 43.5 132 c 0
122 395.5 m 1
 116 404 l 1
 157.5 435 210.5 471.5 283.5 469.5 c 0
 365.5 467 390.5 399 381 330 c 1
 354 161.5 l 1
 346.5 162 l 1
 372.5 320 l 2
 382.8005 387.203 365.5 457.5 280 459.5 c 0
 212 461 161.5 425 122 395.5 c 1
363 228 m 1
 364.5 238 l 1
 769.5 238 l 1
 773.5 228 l 1
 363 228 l 1
768 250 m 2
 785 363 716 459 614 460 c 0
 482.5 461 392 351 367.5 235 c 1
 367.5 235 l 1
 355 119.5 399 2.5 518.5 0.5 c 0
 623.5 -1 687.5 52 740.5 112 c 1
 748 106 l 1
 691 40 625.5 -11 518 -9.5 c 0
 397 -7.5 339 110.5 356.5 230 c 0
 359.5 247 365 263 370.5 279 c 0
 406.5 385 496 471 618.5 469.5 c 0
 716 468 795.5 373 779.5 253 c 0
 778 245 776 236 773.5 228 c 1
 764.5 230.5 l 1
 768 250 l 2
EndSplineSet
EndChar

StartChar: ccedilla
Encoding: 231 231 221
Width: 473
VWidth: 0
Flags: HMW
LayerCount: 2
Fore
SplineSet
60.5 230 m 0
 42.5 110.5 111.5 1 237.5 0.5 c 0
 305 0.5 363 32 399 60 c 1
 397 47.5 l 1
 361 19 303 -9.5 236.5 -9.5 c 0
 104 -9.5 32 105 50.5 230 c 0
 71 361.5 183.5 470 317.5 469.5 c 0
 379.5 469.5 431 443 459 412 c 1
 457 399.5 l 1
 430.5 431 379.5 459.5 317 459.5 c 0
 189.5 459.5 81 356 60.5 230 c 0
231.5 -3.5 m 1
 244 -3.5 l 1
 175.5 -78.5 l 1
 199.5 -65.5 218.5 -54 247.5 -55.5 c 0
 283.5 -57.5 311.5 -87 306.5 -129.5 c 0
 299.5 -186.5 240.5 -223 186.5 -222.5 c 0
 152 -222.5 130.5 -209.5 106 -185 c 1
 113.5 -179 l 1
 137 -200 157 -212.5 187.5 -212.5 c 0
 235 -212.5 289.5 -181 296.5 -129 c 0
 301 -92 277.5 -67.5 246.5 -65.5 c 0
 217 -63.5 187.5 -77 163 -90.5 c 1
 231.5 -3.5 l 1
EndSplineSet
EndChar

StartChar: egrave
Encoding: 232 232 222
Width: 487
VWidth: 0
Flags: HMW
LayerCount: 2
Fore
SplineSet
68.5 228 m 1
 70 238 l 1
 451.5 238 l 1
 474 343.5 416 458 302 459 c 0
 187 460 90 357 71.5 233 c 1
 72 232.5 l 1
 60.5 118.5 108.501 1.54834 225 0.5 c 0
 325.497 -0.20166 384 59 428.5 112.5 c 1
 436 106 l 1
 390.5 51.5 332.01 -9.85156 224.5 -9.5 c 0
 103 -9 47.5 112.5 62 232 c 0
 66 258.5 73 284 83.5 308 c 0
 121 396.5 202.5 470 302 469.5 c 0
 412 468.5 479.5 364.5 465.5 254 c 0
 464 245.5 461.5 236 459.5 228 c 1
 68.5 228 l 1
174.8355 686.005 m 1
 183.3355 693.505 l 1
 324.8355 534.005 l 1
 319.3355 529.505 l 1
 174.8355 686.005 l 1
EndSplineSet
EndChar

StartChar: eacute
Encoding: 233 233 223
Width: 487
VWidth: 0
Flags: HMW
LayerCount: 2
Fore
SplineSet
68.5 228 m 1
 70 238 l 1
 451.5 238 l 1
 474 343.5 416 458 302 459 c 0
 187 460 90 357 71.5 233 c 1
 72 232.5 l 1
 60.5 118.5 108.501 1.54834 225 0.5 c 0
 325.497 -0.20166 384 59 428.5 112.5 c 1
 436 106 l 1
 390.5 51.5 332.01 -9.85156 224.5 -9.5 c 0
 103 -9 47.5 112.5 62 232 c 0
 66 258.5 73 284 83.5 308 c 0
 121 396.5 202.5 470 302 469.5 c 0
 412 468.5 479.5 364.5 465.5 254 c 0
 464 245.5 461.5 236 459.5 228 c 1
 68.5 228 l 1
487.13 684.505 m 1
 294.63 529.505 l 1
 289.63 534.505 l 1
 480.13 692.505 l 1
 487.13 684.505 l 1
EndSplineSet
EndChar

StartChar: ecircumflex
Encoding: 234 234 224
Width: 487
VWidth: 0
Flags: HMW
LayerCount: 2
Fore
SplineSet
68.5 228 m 1
 70 238 l 1
 451.5 238 l 1
 474 343.5 416 458 302 459 c 0
 187 460 90 357 71.5 233 c 1
 72 232.5 l 1
 60.5 118.5 108.501 1.54834 225 0.5 c 0
 325.497 -0.20166 384 59 428.5 112.5 c 1
 436 106 l 1
 390.5 51.5 332.01 -9.85156 224.5 -9.5 c 0
 103 -9 47.5 112.5 62 232 c 0
 66 258.5 73 284 83.5 308 c 0
 121 396.5 202.5 470 302 469.5 c 0
 412 468.5 479.5 364.5 465.5 254 c 0
 464 245.5 461.5 236 459.5 228 c 1
 68.5 228 l 1
330.3645 664.005 m 1
 157.8645 530.505 l 1
 151.8645 537.505 l 1
 331.3645 676.005 l 1
 463.3645 536.505 l 1
 455.8645 529.505 l 1
 330.3645 664.005 l 1
EndSplineSet
EndChar

StartChar: edieresis
Encoding: 235 235 225
Width: 487
VWidth: 0
Flags: HMW
LayerCount: 2
Fore
SplineSet
68.5 228 m 1
 70 238 l 1
 451.5 238 l 1
 474 343.5 416 458 302 459 c 0
 187 460 90 357 71.5 233 c 1
 72 232.5 l 1
 60.5 118.5 108.501 1.54834 225 0.5 c 0
 325.497 -0.20166 384 59 428.5 112.5 c 1
 436 106 l 1
 390.5 51.5 332.01 -9.85156 224.5 -9.5 c 0
 103 -9 47.5 112.5 62 232 c 0
 66 258.5 73 284 83.5 308 c 0
 121 396.5 202.5 470 302 469.5 c 0
 412 468.5 479.5 364.5 465.5 254 c 0
 464 245.5 461.5 236 459.5 228 c 1
 68.5 228 l 1
394.129 540.505 m 0
 394.629 546.005 400.629 551.505 406.129 551.505 c 0
 411.629 551.505 416.129 546.505 415.629 540.505 c 0
 415.129 535.005 408.629 529.505 403.129 529.505 c 0
 397.629 529.505 393.629 534.505 394.129 540.505 c 0
200.129 540.505 m 0
 200.629 546.005 206.629 551.505 212.129 551.505 c 0
 217.629 551.505 222.129 546.505 221.629 540.505 c 0
 221.129 535.005 214.629 529.505 209.129 529.505 c 0
 203.629 529.505 199.629 534.505 200.129 540.505 c 0
EndSplineSet
EndChar

StartChar: igrave
Encoding: 236 236 226
Width: 184
VWidth: 0
Flags: HMW
LayerCount: 2
Fore
SplineSet
139.5 459.5 m 1
 149 459.5 l 1
 69.5 0 l 1
 59.5 0 l 1
 139.5 459.5 l 1
31.5 687 m 1
 40.5 694.5 l 1
 179 535 l 1
 172.5 530.5 l 1
 31.5 687 l 1
EndSplineSet
EndChar

StartChar: dotlessi
Encoding: 305 305 227
Width: 184
VWidth: 0
Flags: HMW
LayerCount: 2
Fore
SplineSet
139.5 459.5 m 1
 149 459.5 l 1
 69.5 0 l 1
 59.5 0 l 1
 139.5 459.5 l 1
EndSplineSet
EndChar

StartChar: kgreenlandic
Encoding: 312 312 228
Width: 361
VWidth: 0
Flags: HMW
LayerCount: 2
Fore
SplineSet
129.5 459.5 m 1
 139.5 459.5 l 1
 59.5 0 l 1
 49.5 0 l 1
 129.5 459.5 l 1
369.5 459 m 1
 385.5 459 l 1
 117.5 270 l 1
 324.5 0 l 1
 311 0 l 1
 104 270.5 l 1
 369.5 459 l 1
EndSplineSet
EndChar

StartChar: iacute
Encoding: 237 237 229
Width: 184
VWidth: 0
Flags: HMW
LayerCount: 2
Fore
SplineSet
139.5 459.5 m 1
 149 459.5 l 1
 69.5 0 l 1
 59.5 0 l 1
 139.5 459.5 l 1
333.5 686 m 1
 139 531 l 1
 133.5 536 l 1
 326.5 694 l 1
 333.5 686 l 1
EndSplineSet
EndChar

StartChar: icircumflex
Encoding: 238 238 230
Width: 184
VWidth: 0
Flags: HMW
LayerCount: 2
Fore
SplineSet
139.5 459.5 m 1
 149 459.5 l 1
 69.5 0 l 1
 59.5 0 l 1
 139.5 459.5 l 1
179 664.5 m 1
 7 531 l 1
 1 538 l 1
 180.5 676.5 l 1
 312.5 537 l 1
 304.5 530 l 1
 179 664.5 l 1
EndSplineSet
EndChar

StartChar: idieresis
Encoding: 239 239 231
Width: 184
VWidth: 0
Flags: HMW
LayerCount: 2
Fore
SplineSet
139.5 459.5 m 1
 149 459.5 l 1
 69.5 0 l 1
 59.5 0 l 1
 139.5 459.5 l 1
224.5 541 m 0
 225 546.5 231 552 236.5 552 c 0
 242 552 246.5 547 246 541 c 0
 245.5 535.5 239 530 233.5 530 c 0
 228 530 224 535 224.5 541 c 0
69 541 m 0
 69.5 546.5 76 552 81.5 552 c 0
 87 552 91 547 90.5 541 c 0
 90 535.5 83.5 530 78 530 c 0
 72.5 530 68.5 535 69 541 c 0
EndSplineSet
EndChar

StartChar: ntilde
Encoding: 241 241 232
Width: 460
VWidth: 0
Flags: HMW
LayerCount: 2
Fore
SplineSet
144.5 459.5 m 1
 64.5 0 l 1
 54.5 0 l 1
 134.5 459.5 l 1
 144.5 459.5 l 1
396.5 320 m 2
 406 392.5 388 458.5 301.5 459.5 c 0
 205 460.5 132.5 369 112 281 c 1
 107 281 l 1
 127.5 379 200.5 470 302 469.5 c 0
 394 469 417 399 406.5 320 c 2
 350.5 0 l 1
 341 0 l 1
 396.5 320 l 2
175 551.5 m 1
 184.5 579.5 204 608.5 245 608.5 c 0
 292.5 608.5 310.5 561.5 357.5 562.5 c 0
 386.5 563 403.5 584 420.5 609.5 c 1
 429.5 606.5 l 1
 411 577 388 554.5 356 554.5 c 0
 309 554.5 288.5 600 246.5 600.5 c 0
 209.5 601 192.5 575 184 550.5 c 1
 175 551.5 l 1
EndSplineSet
EndChar

StartChar: ograve
Encoding: 242 242 233
Width: 539
VWidth: 0
Flags: HMW
LayerCount: 2
Fore
SplineSet
55.5 230 m 0
 76 361 188 470 322 469.5 c 0
 454.5 469 527 355 508.5 230 c 0
 488 99 375.5 -10 241.5 -9.5 c 0
 109 -9 37 105 55.5 230 c 0
65.5 230 m 0
 47.5 110 116 1 242 0.5 c 0
 369.5 0 478.5 104 498.5 230 c 0
 516.5 350 448 459 322 459.5 c 0
 194.5 460 85.5 356 65.5 230 c 0
227.5 687 m 1
 236.5 694.5 l 1
 375 535 l 1
 370.5 530.5 l 1
 227.5 687 l 1
EndSplineSet
EndChar

StartChar: oacute
Encoding: 243 243 234
Width: 539
VWidth: 0
Flags: HMW
LayerCount: 2
Fore
SplineSet
55.5 230 m 0
 76 361 188 470 322 469.5 c 0
 454.5 469 527 355 508.5 230 c 0
 488 99 375.5 -10 241.5 -9.5 c 0
 109 -9 37 105 55.5 230 c 0
65.5 230 m 0
 47.5 110 116 1 242 0.5 c 0
 369.5 0 478.5 104 498.5 230 c 0
 516.5 350 448 459 322 459.5 c 0
 194.5 460 85.5 356 65.5 230 c 0
492.5 686 m 1
 296 531 l 1
 292.5 536 l 1
 486 694 l 1
 492.5 686 l 1
EndSplineSet
EndChar

StartChar: ocircumflex
Encoding: 244 244 235
Width: 539
VWidth: 0
Flags: HMW
LayerCount: 2
Fore
SplineSet
55.5 230 m 0
 76 361 188 470 322 469.5 c 0
 454.5 469 527 355 508.5 230 c 0
 488 99 375.5 -10 241.5 -9.5 c 0
 109 -9 37 105 55.5 230 c 0
65.5 230 m 0
 47.5 110 116 1 242 0.5 c 0
 369.5 0 478.5 104 498.5 230 c 0
 516.5 350 448 459 322 459.5 c 0
 194.5 460 85.5 356 65.5 230 c 0
360 684.5 m 1
 188 551 l 1
 182 558 l 1
 361.5 696.5 l 1
 493.5 557 l 1
 485.5 550 l 1
 360 684.5 l 1
EndSplineSet
EndChar

StartChar: otilde
Encoding: 245 245 236
Width: 539
VWidth: 0
Flags: HMW
LayerCount: 2
Fore
SplineSet
55.5 230 m 0
 76 361 188 470 322 469.5 c 0
 454.5 469 527 355 508.5 230 c 0
 488 99 375.5 -10 241.5 -9.5 c 0
 109 -9 37 105 55.5 230 c 0
65.5 230 m 0
 47.5 110 116 1 242 0.5 c 0
 369.5 0 478.5 104 498.5 230 c 0
 516.5 350 448 459 322 459.5 c 0
 194.5 460 85.5 356 65.5 230 c 0
213.5 551.5 m 1
 206.5 578 253.5 608.5 284 608.5 c 0
 331.5 609 349.5 561.5 396.5 562.5 c 0
 425.5 563 442.5 584 459.5 609.5 c 1
 469 606.5 l 1
 450.5 577 427.5 554.5 396 554.5 c 0
 349 554.5 327.5 601 285.5 600.5 c 0
 249 600 232.5 574.5 223.5 550.5 c 1
 213.5 551.5 l 1
EndSplineSet
EndChar

StartChar: odieresis
Encoding: 246 246 237
Width: 539
VWidth: 0
Flags: HMW
LayerCount: 2
Fore
SplineSet
55.5 230 m 0
 76 361 188 470 322 469.5 c 0
 454.5 469 527 355 508.5 230 c 0
 488 99 375.5 -10 241.5 -9.5 c 0
 109 -9 37 105 55.5 230 c 0
65.5 230 m 0
 47.5 110 116 1 242 0.5 c 0
 369.5 0 478.5 104 498.5 230 c 0
 516.5 350 448 459 322 459.5 c 0
 194.5 460 85.5 356 65.5 230 c 0
424.5 561 m 0
 425 566.5 431.5 572 437 572 c 0
 442.5 572 446.5 567 446 561 c 0
 445.5 555.5 439.5 550 434 550 c 0
 428.5 550 424 555 424.5 561 c 0
230.5 561 m 0
 231 566.5 237.5 572 243 572 c 0
 248.5 572 252.5 567 252 561 c 0
 251.5 555.5 245 550 239.5 550 c 0
 234 550 230 555 230.5 561 c 0
EndSplineSet
EndChar

StartChar: ugrave
Encoding: 249 249 238
Width: 460
VWidth: 0
Flags: HMW
LayerCount: 2
Fore
SplineSet
341 0 m 1
 420.5 459.5 l 1
 430.5 459.5 l 1
 351 0 l 1
 341 0 l 1
90.5 150 m 2
 80.5 72.5 95 1 184 0.5 c 0
 280.5 -0.5 352.5 90.5 373 179 c 1
 378.5 179 l 1
 358 81 284.5 -10.5 183 -9.5 c 0
 88 -9 69.5 65.5 80.5 150 c 2
 134.5 459.5 l 1
 144.5 459.5 l 1
 90.5 150 l 2
171 697 m 1
 180 704.5 l 1
 318.5 545 l 1
 313 540.5 l 1
 171 697 l 1
EndSplineSet
EndChar

StartChar: uacute
Encoding: 250 250 239
Width: 460
VWidth: 0
Flags: HMW
LayerCount: 2
Fore
SplineSet
341 0 m 1
 420.5 459.5 l 1
 430.5 459.5 l 1
 351 0 l 1
 341 0 l 1
90.5 150 m 2
 80.5 72.5 95 1 184 0.5 c 0
 280.5 -0.5 352.5 90.5 373 179 c 1
 378.5 179 l 1
 358 81 284.5 -10.5 183 -9.5 c 0
 88 -9 69.5 65.5 80.5 150 c 2
 134.5 459.5 l 1
 144.5 459.5 l 1
 90.5 150 l 2
474 696 m 1
 278.5 541 l 1
 274 546 l 1
 467 704 l 1
 474 696 l 1
EndSplineSet
EndChar

StartChar: ucircumflex
Encoding: 251 251 240
Width: 460
VWidth: 0
Flags: HMW
LayerCount: 2
Fore
SplineSet
341 0 m 1
 420.5 459.5 l 1
 430.5 459.5 l 1
 351 0 l 1
 341 0 l 1
90.5 150 m 2
 80.5 72.5 95 1 184 0.5 c 0
 280.5 -0.5 352.5 90.5 373 179 c 1
 378.5 179 l 1
 358 81 284.5 -10.5 183 -9.5 c 0
 88 -9 69.5 65.5 80.5 150 c 2
 134.5 459.5 l 1
 144.5 459.5 l 1
 90.5 150 l 2
319.5 674.5 m 1
 146.5 541 l 1
 141.5 548 l 1
 321 686.5 l 1
 453 547 l 1
 444 540 l 1
 319.5 674.5 l 1
EndSplineSet
EndChar

StartChar: udieresis
Encoding: 252 252 241
Width: 460
VWidth: 0
Flags: HMW
LayerCount: 2
Fore
SplineSet
341 0 m 1
 420.5 459.5 l 1
 430.5 459.5 l 1
 351 0 l 1
 341 0 l 1
90.5 150 m 2
 80.5 72.5 95 1 184 0.5 c 0
 280.5 -0.5 352.5 90.5 373 179 c 1
 378.5 179 l 1
 358 81 284.5 -10.5 183 -9.5 c 0
 88 -9 69.5 65.5 80.5 150 c 2
 134.5 459.5 l 1
 144.5 459.5 l 1
 90.5 150 l 2
365.5 561.5 m 0
 366 567 373.5 572 379 572 c 0
 384.5 571.5 387.5 567 387 561 c 0
 386.5 555.5 381 550 375.5 550 c 0
 370 550 365 555.5 365.5 561.5 c 0
210 561.5 m 0
 210.5 567 218 572 223.5 572 c 0
 229 571.5 232.5 567 232 561 c 0
 231.5 555.5 226 550 220.5 550 c 0
 215 550 209.5 555.5 210 561.5 c 0
EndSplineSet
EndChar

StartChar: yacute
Encoding: 253 253 242
Width: 412
VWidth: 0
Flags: HMW
LayerCount: 2
Fore
SplineSet
455 459.5 m 1
 46.5 -219.5 l 1
 35.5 -219 l 1
 180.5 20.5 l 1
 61 460 l 1
 73 460 l 1
 190.5 20 l 1
 179.5 20.5 l 1
 444 459.5 l 1
 455 459.5 l 1
448 686 m 1
 252.5 531 l 1
 248 536 l 1
 441 694 l 1
 448 686 l 1
EndSplineSet
EndChar

StartChar: thorn
Encoding: 254 254 243
Width: 525
VWidth: 0
Flags: HMW
LayerCount: 2
Fore
SplineSet
22 -219.5 m 1
 12.5 -219.5 l 1
 184 779.5 l 1
 194 779.5 l 1
 22 -219.5 l 1
494 230 m 0
 474.5 98.5 373 -11 246.5 -9.5 c 0
 122 -8 79 123.5 94.5 230 c 0
 113 344.5 202 469 327 469.5 c 0
 453.5 470 511 354.5 494 230 c 0
484 230 m 0
 500.5 349 445.5 460.5 323.5 459.5 c 0
 209 458.5 117.5 340.5 99.5 230 c 0
 84.5 128 130.5 2.5 244 0.5 c 0
 365.5 -2 465 104 484 230 c 0
EndSplineSet
EndChar

StartChar: ydieresis
Encoding: 255 255 244
Width: 412
VWidth: 0
Flags: HMW
LayerCount: 2
Fore
SplineSet
455 459.5 m 1
 46.5 -219.5 l 1
 35.5 -219 l 1
 180.5 20.5 l 1
 61 460 l 1
 73 460 l 1
 190.5 20 l 1
 179.5 20.5 l 1
 444 459.5 l 1
 455 459.5 l 1
342 561 m 0
 342.5 566.5 348 572 353.5 572 c 0
 359 572 364 566.5 363.5 560.5 c 0
 363 555 356 550 350.5 550 c 0
 345 550.5 341.5 555 342 561 c 0
187 561 m 0
 187.5 566.5 193 572 198.5 572 c 0
 204 572 209 566.5 208.5 560.5 c 0
 208 555 200.5 550 195 550 c 0
 189.5 550.5 186.5 555 187 561 c 0
EndSplineSet
EndChar

StartChar: Amacron
Encoding: 256 256 245
Width: 582
VWidth: 0
Flags: HMW
LayerCount: 2
Fore
SplineSet
142.5 272 m 1
 144 282 l 1
 479 282 l 1
 477.5 272 l 1
 142.5 272 l 1
382.5 688 m 1
 152.5 277 l 1
 151 273 l 1
 -1.5 0 l 1
 -13.5 0 l 1
 386.5 715 l 1
 540.5 0 l 1
 528.5 0 l 1
 472 273 l 1
 471.5 276 l 1
 382.5 688 l 1
230 795 m 1
 231.5 805 l 1
 571.5 805 l 1
 569.5 795 l 1
 230 795 l 1
EndSplineSet
EndChar

StartChar: amacron
Encoding: 257 257 246
Width: 525
VWidth: 0
Flags: HMW
LayerCount: 2
Fore
SplineSet
489.5 459.5 m 1
 499.5 459.5 l 1
 419.5 0 l 1
 410 0 l 1
 489.5 459.5 l 1
55.5 230 m 0
 75 361.5 176.5 471 303 469.5 c 0
 427.5 468 470.5 336.5 455 230 c 0
 436.5 115.5 347 -9 222 -9.5 c 0
 95.5 -10 38.5 105.5 55.5 230 c 0
65.5 230 m 0
 49 111 103.5 -0.5 225.5 0.5 c 0
 340 1.5 432 119.5 450 230 c 0
 465 332 418.5 457.5 305 459.5 c 0
 183.5 462 84.5 356 65.5 230 c 0
147 550 m 1
 149 560 l 1
 488.5 560 l 1
 487 550 l 1
 147 550 l 1
EndSplineSet
Substitution2: "alt a" amacron.alt
EndChar

StartChar: breve
Encoding: 728 728 247
Width: 529
VWidth: 0
Flags: HMW
LayerCount: 2
Fore
SplineSet
225.5 850 m 1
 235 850 l 1
 230.5 781.5 272.5 721 358 720.5 c 0
 446 720 504.5 782 523 849.5 c 1
 533 849 l 1
 514 776.5 455 710.5 357.5 710.5 c 0
 262 710.5 220 777 225.5 850 c 1
EndSplineSet
EndChar

StartChar: Abreve
Encoding: 258 258 248
Width: 582
VWidth: 0
Flags: HMW
LayerCount: 2
Fore
SplineSet
142.5 272 m 1
 144 282 l 1
 479 282 l 1
 477.5 272 l 1
 142.5 272 l 1
382.5 688 m 1
 152.5 277 l 1
 151 273 l 1
 -1.5 0 l 1
 -13.5 0 l 1
 386.5 715 l 1
 540.5 0 l 1
 528.5 0 l 1
 472 273 l 1
 471.5 276 l 1
 382.5 688 l 1
268.5 925 m 1
 278.5 925 l 1
 272.5 857 313.5 796 399 795.5 c 0
 487 795 546.5 857 566 924 c 1
 576 924 l 1
 556 852 496 785 398.5 785.5 c 0
 303 786 261.5 852 268.5 925 c 1
EndSplineSet
EndChar

StartChar: abreve
Encoding: 259 259 249
Width: 525
VWidth: 0
Flags: HMW
LayerCount: 2
Fore
SplineSet
489.5 459.5 m 1
 499.5 459.5 l 1
 419.5 0 l 1
 410 0 l 1
 489.5 459.5 l 1
55.5 230 m 0
 75 361.5 176.5 471 303 469.5 c 0
 427.5 468 470.5 336.5 455 230 c 0
 436.5 115.5 347 -9 222 -9.5 c 0
 95.5 -10 38.5 105.5 55.5 230 c 0
65.5 230 m 0
 49 111 103.5 -0.5 225.5 0.5 c 0
 340 1.5 432 119.5 450 230 c 0
 465 332 418.5 457.5 305 459.5 c 0
 183.5 462 84.5 356 65.5 230 c 0
188 690 m 1
 197.5 690 l 1
 191.5 622 232.5 561 318 560.5 c 0
 406 560 466 622 485.5 689 c 1
 495.5 689 l 1
 475.5 617 415 550 317.5 550.5 c 0
 222 551 181 617 188 690 c 1
EndSplineSet
Substitution2: "alt a" abreve.alt
EndChar

StartChar: Aogonek
Encoding: 260 260 250
Width: 582
VWidth: 0
Flags: HMW
LayerCount: 2
Fore
SplineSet
144.5 272 m 1
 146 282 l 1
 479 282 l 1
 477.5 272 l 1
 144.5 272 l 1
382.5 688 m 1
 152.5 277 l 1
 151 273 l 1
 -1.5 0 l 1
 -13.5 0 l 1
 386.5 715 l 1
 540.5 0 l 1
 528.5 0 l 1
 472 273 l 1
 471.5 276 l 1
 382.5 688 l 1
544 -173.5 m 1
 550 -181 l 1
 526.5 -201 489 -220 448 -219.5 c 0
 392.5 -219 354 -189.5 361 -139.5 c 0
 372 -65 467 -23 535.5 9.5 c 1
 541 0 l 1
 476 -31 381 -73.5 371 -140 c 0
 365 -185 404 -209 449 -209.5 c 0
 487 -210 521.5 -191 544 -173.5 c 1
EndSplineSet
EndChar

StartChar: aogonek
Encoding: 261 261 251
Width: 525
VWidth: 0
Flags: HMW
LayerCount: 2
Fore
SplineSet
489.5 459.5 m 1
 499.5 459.5 l 1
 419.5 0 l 1
 410 0 l 1
 489.5 459.5 l 1
55.5 230 m 0
 75 361.5 176.5 471 303 469.5 c 0
 427.5 468 470.5 336.5 455 230 c 0
 436.5 115.5 347 -9 222 -9.5 c 0
 95.5 -10 38.5 105.5 55.5 230 c 0
65.5 230 m 0
 49 111 103.5 -0.5 225.5 0.5 c 0
 340 1.5 432 119.5 450 230 c 0
 465 332 418.5 457.5 305 459.5 c 0
 183.5 462 84.5 356 65.5 230 c 0
423.5 -173.5 m 1
 429.5 -181 l 1
 406 -201 368.5 -220 327.5 -219.5 c 0
 272 -219 233.5 -189.5 240.5 -139.5 c 0
 251.5 -65 347 -23.5 415.5 9.5 c 1
 421 0 l 1
 356 -31 260.5 -73.5 250.5 -140 c 0
 244.5 -185 283.5 -209 328.5 -209.5 c 0
 366.5 -210 401 -191 423.5 -173.5 c 1
EndSplineSet
Substitution2: "alt a" aogonek.alt
EndChar

StartChar: Cacute
Encoding: 262 262 252
Width: 664
VWidth: 0
Flags: HMW
LayerCount: 2
Fore
SplineSet
93 350 m 0
 67 173.5 153 6 342 4.5 c 0
 436 4 510 35 575.5 87 c 1
 572.5 71.5 l 1
 506.5 23 435.5 -8 341 -7.5 c 0
 145 -6.5 54 165.5 81 350 c 0
 111.5 545.5 264 707 462 708 c 0
 550.5 708.5 612.5 681.5 667.5 628.5 c 1
 665 613.5 l 1
 613.5 670.5 545 696.5 461 696 c 0
 270 695 123 539 93 350 c 0
632 924 m 1
 435.5 769 l 1
 432 774 l 1
 625.5 932 l 1
 632 924 l 1
EndSplineSet
EndChar

StartChar: cacute
Encoding: 263 263 253
Width: 473
VWidth: 0
Flags: HMW
LayerCount: 2
Fore
SplineSet
60.5 230 m 0
 42.5 110.5 111.5 1 237.5 0.5 c 0
 305 0.5 363 32 399 60 c 1
 397 47.5 l 1
 361 19 303 -9.5 236.5 -9.5 c 0
 104 -9.5 32 105 50.5 230 c 0
 71 361.5 183.5 470 317.5 469.5 c 0
 379.5 469.5 431 443 459 412 c 1
 457 399.5 l 1
 430.5 431 379.5 459.5 317 459.5 c 0
 189.5 459.5 81 356 60.5 230 c 0
498 696 m 1
 303.5 541 l 1
 298 546 l 1
 491.5 704 l 1
 498 696 l 1
EndSplineSet
EndChar

StartChar: Ccircumflex
Encoding: 264 264 254
Width: 664
VWidth: 0
Flags: HMW
LayerCount: 2
Fore
SplineSet
93 350 m 0
 67 173.5 153 6 342 4.5 c 0
 436 4 510 35 575.5 87 c 1
 572.5 71.5 l 1
 506.5 23 435.5 -8 341 -7.5 c 0
 145 -6 54 165.5 81 350 c 0
 111.5 545.5 264 707 462 708 c 0
 550.5 708.5 612.5 681.5 667.5 628.5 c 1
 665 613.5 l 1
 613.5 670.5 545 696.5 461 696 c 0
 270 695 123 539 93 350 c 0
496.5 902.5 m 1
 324 769 l 1
 318 776 l 1
 497.5 914.5 l 1
 629.5 775 l 1
 622 768 l 1
 496.5 902.5 l 1
EndSplineSet
EndChar

StartChar: ccircumflex
Encoding: 265 265 255
Width: 473
VWidth: 0
Flags: HMW
LayerCount: 2
Fore
SplineSet
60.5 230 m 0
 42.5 110.5 111.5 1 237.5 0.5 c 0
 305 0.5 363 32 399 60 c 1
 397 47.5 l 1
 361 19 303 -9.5 236.5 -9.5 c 0
 104 -9.5 32 105 50.5 230 c 0
 71 361.5 183.5 470 317.5 469.5 c 0
 379.5 469.5 431 443 459 412 c 1
 457 399.5 l 1
 430.5 431 379.5 459.5 317 459.5 c 0
 189.5 459.5 81 356 60.5 230 c 0
352 664.5 m 1
 179.5 531 l 1
 173.5 538 l 1
 353 676.5 l 1
 485 537 l 1
 477.5 530 l 1
 352 664.5 l 1
EndSplineSet
EndChar

StartChar: Cdotaccent
Encoding: 266 266 256
Width: 664
VWidth: 0
Flags: HMW
LayerCount: 2
Fore
SplineSet
93 350 m 0
 67 173.5 153 6 342 4.5 c 0
 436 4 510 35 575.5 87 c 1
 572.5 71.5 l 1
 506.5 23 435.5 -8 341 -7.5 c 0
 145 -6.5 54 165.5 81 350 c 0
 111.5 545.5 264 707 462 708 c 0
 550.5 708.5 612.5 681.5 667.5 628.5 c 1
 665 613.5 l 1
 613.5 670.5 545 696.5 461 696 c 0
 270 695 123 539 93 350 c 0
465.5 789 m 0
 466 794.5 472.5 800 478 800 c 0
 483.5 800 487.5 795 487 789 c 0
 486.5 783.5 480 778 474.5 778 c 0
 469 778 465 783 465.5 789 c 0
EndSplineSet
EndChar

StartChar: cdotaccent
Encoding: 267 267 257
Width: 473
VWidth: 0
Flags: HMW
LayerCount: 2
Fore
SplineSet
60.5 230 m 0
 42.5 110.5 111.5 1 237.5 0.5 c 0
 305 0.5 363 32 399 60 c 1
 397 47.5 l 1
 361 19 303 -9.5 236.5 -9.5 c 0
 104 -9.5 32 105 50.5 230 c 0
 71 361.5 183.5 470 317.5 469.5 c 0
 379.5 469.5 431 443 459 412 c 1
 457 399.5 l 1
 430.5 431 379.5 459.5 317 459.5 c 0
 189.5 459.5 81 356 60.5 230 c 0
321 551 m 0
 321.5 556.5 328 562 333.5 562 c 0
 339 562 343 557 342.5 551 c 0
 342 545.5 335.5 540 330 540 c 0
 324.5 540 320.5 545 321 551 c 0
EndSplineSet
EndChar

StartChar: Ccaron
Encoding: 268 268 258
Width: 664
VWidth: 0
Flags: HMW
LayerCount: 2
Fore
SplineSet
93 350 m 0
 67 173.5 153 6 342 4.5 c 0
 436 4 510 35 575.5 87 c 1
 572.5 71.5 l 1
 506.5 23 435.5 -8 341 -7.5 c 0
 145 -6 54 165.5 81 350 c 0
 111.5 545.5 264 707 462 708 c 0
 550.5 708.5 612.5 681.5 667.5 628.5 c 1
 665 613.5 l 1
 613.5 670.5 545 696.5 461 696 c 0
 270 695 123 539 93 350 c 0
476 790.5 m 1
 647.5 925 l 1
 654 917 l 1
 474.5 778.5 l 1
 342.5 918 l 1
 351.5 926 l 1
 476 790.5 l 1
EndSplineSet
EndChar

StartChar: ccaron
Encoding: 269 269 259
Width: 473
VWidth: 0
Flags: HMW
LayerCount: 2
Fore
SplineSet
60.5 230 m 0
 42.5 110.5 111.5 1 237.5 0.5 c 0
 305 0.5 363 32 399 60 c 1
 397 47.5 l 1
 361 19 303 -9.5 236.5 -9.5 c 0
 104 -9.5 32 105 50.5 230 c 0
 71 361.5 183.5 470 317.5 469.5 c 0
 379.5 469.5 431 443 459 412 c 1
 457 399.5 l 1
 430.5 431 379.5 459.5 317 459.5 c 0
 189.5 459.5 81 356 60.5 230 c 0
333 562.5 m 1
 504.5 697 l 1
 511.5 689 l 1
 332 550.5 l 1
 200 690 l 1
 208.5 698 l 1
 333 562.5 l 1
EndSplineSet
EndChar

StartChar: Dcaron
Encoding: 270 270 260
Width: 616
VWidth: 0
Flags: HMW
LayerCount: 2
Fore
SplineSet
180 699.5 m 1
 191 699.5 l 1
 70.5 0 l 1
 59.5 0 l 1
 180 699.5 l 1
216 0 m 1
 65 0 l 1
 67 11 l 1
 217 11 l 1
 416 14 558.5 157 589.5 350 c 0
 617.5 533 529.5 685 333.5 689 c 1
 182.5 689 l 1
 184.5 700 l 1
 334.5 700 l 1
 535.5 696.5 629 538.5 600.5 350 c 0
 569 152 420 3 216 0 c 1
419 810.5 m 1
 590.5 945 l 1
 597.5 937 l 1
 418 798.5 l 1
 286 938 l 1
 294.5 946 l 1
 419 810.5 l 1
EndSplineSet
EndChar

StartChar: dcaron
Encoding: 271 271 261
Width: 553
VWidth: 0
Flags: HMW
LayerCount: 2
Fore
SplineSet
544 779.5 m 1
 554 779.5 l 1
 419.5 0 l 1
 410 0 l 1
 544 779.5 l 1
55.5 230 m 0
 75 361.5 176.5 471 303 469.5 c 0
 427.5 468 470.5 336.5 455 230 c 0
 436.5 115.5 347 -9 222 -9.5 c 0
 95.5 -10 38.5 105.5 55.5 230 c 0
65.5 230 m 0
 49 111 103.5 -0.5 225.5 0.5 c 0
 340 1.5 432 119.5 450 230 c 0
 465 332 418.5 457.5 305 459.5 c 0
 183.5 462 84.5 356 65.5 230 c 0
739.5 763 m 1
 750 758 l 1
 598.5 510 l 1
 592.5 512 l 1
 739.5 763 l 1
EndSplineSet
EndChar

StartChar: Dcroat
Encoding: 272 272 262
Width: 659
VWidth: 0
Flags: HMW
LayerCount: 2
Fore
SplineSet
36.5 345 m 1
 38 355 l 1
 329.5 355 l 1
 328 345 l 1
 36.5 345 l 1
180 699.5 m 1
 191 699.5 l 1
 70.5 0 l 1
 59.5 0 l 1
 180 699.5 l 1
216 0 m 1
 65 0 l 1
 67 11 l 1
 217 11 l 1
 414.5 14.5 558.5 158 589.5 350 c 0
 617.5 532.5 528.5 685 333.5 689 c 1
 182.5 689 l 1
 184.5 700 l 1
 334.5 700 l 1
 535.5 696.5 629 538.5 600.5 350 c 0
 569 152 420 3 216 0 c 1
EndSplineSet
EndChar

StartChar: dcroat
Encoding: 273 273 263
Width: 525
VWidth: 0
Flags: HMW
LayerCount: 2
Fore
SplineSet
371 655 m 1
 372.5 665 l 1
 664 665 l 1
 662 655 l 1
 371 655 l 1
544 779.5 m 1
 554 779.5 l 1
 419.5 0 l 1
 410 0 l 1
 544 779.5 l 1
55.5 230 m 0
 75 363 176.5 471 303 469.5 c 0
 423.5 468 470.5 341.5 455 230 c 0
 436.5 110.5 343 -9 222 -9.5 c 0
 95.5 -10 38 104 55.5 230 c 0
65.5 230 m 0
 49 111 104.5 -0.5 225.5 0.5 c 0
 342.5 1.5 432 124.5 450 230 c 0
 465 326.5 421 457 305 459.5 c 0
 184 462 84.5 355.5 65.5 230 c 0
EndSplineSet
EndChar

StartChar: Emacron
Encoding: 274 274 264
Width: 494
VWidth: 0
Flags: HMW
LayerCount: 2
Fore
SplineSet
62 0 m 1
 63.5 10 l 1
 392 10 l 1
 390.5 0 l 1
 62 0 l 1
180 690 m 1
 181.5 700 l 1
 509.5 700 l 1
 508 690 l 1
 180 690 l 1
127.5 384 m 1
 129.5 394 l 1
 438 394 l 1
 436.5 384 l 1
 127.5 384 l 1
180 699.5 m 1
 191 699.5 l 1
 70.5 0 l 1
 59.5 0 l 1
 180 699.5 l 1
217 835 m 1
 219 845 l 1
 558.5 845 l 1
 557 835 l 1
 217 835 l 1
EndSplineSet
EndChar

StartChar: emacron
Encoding: 275 275 265
Width: 487
VWidth: 0
Flags: HMW
LayerCount: 2
Fore
SplineSet
68.5 228 m 1
 70 238 l 1
 451.5 238 l 1
 474 343.5 416 458 302 459 c 0
 187 460 90 357 71.5 233 c 1
 72 232.5 l 1
 60.5 118.5 108.5 1.5 225 0.5 c 0
 325.5 0 384 59 428.5 112.5 c 1
 436 106 l 1
 390.5 51.5 332 -10 224.5 -9.5 c 0
 103 -9 47.5 112.5 62 232 c 0
 66 258.5 73 284 83.5 308 c 0
 121 396.5 202.5 470 302 469.5 c 0
 412 468.5 479.5 364.5 465.5 254 c 0
 464 245.5 461.5 236 459.5 228 c 1
 68.5 228 l 1
137 529.5 m 1
 138.5 539.5 l 1
 478 539.5 l 1
 476.5 529.5 l 1
 137 529.5 l 1
EndSplineSet
EndChar

StartChar: Ebreve
Encoding: 276 276 266
Width: 494
VWidth: 0
Flags: HMW
LayerCount: 2
Fore
SplineSet
62 0 m 1
 63.5 10 l 1
 392 10 l 1
 390.5 0 l 1
 62 0 l 1
180 690 m 1
 181.5 700 l 1
 509.5 700 l 1
 508 690 l 1
 180 690 l 1
127.5 384 m 1
 129.5 394 l 1
 438 394 l 1
 436.5 384 l 1
 127.5 384 l 1
180 699.5 m 1
 191 699.5 l 1
 70.5 0 l 1
 59.5 0 l 1
 180 699.5 l 1
236.5 908 m 1
 246.5 908 l 1
 240.5 840 281.5 779 367 778.5 c 0
 455 778 514.5 840 534 907 c 1
 544 907 l 1
 524 835 464 768 366.5 768.5 c 0
 271 769 229.5 835 236.5 908 c 1
EndSplineSet
EndChar

StartChar: ebreve
Encoding: 277 277 267
Width: 487
VWidth: 0
Flags: HMW
LayerCount: 2
Fore
SplineSet
68.5 228 m 1
 70 238 l 1
 451.5 238 l 1
 474 343.5 416 458 302 459 c 0
 187 460 90 357 71.5 233 c 1
 72 232.5 l 1
 60.5 118.5 108.501 1.54834 225 0.5 c 0
 325.497 -0.20166 384 59 428.5 112.5 c 1
 436 106 l 1
 390.5 51.5 332.01 -9.85156 224.5 -9.5 c 0
 103 -9 47.5 112.5 62 232 c 0
 66 258.5 73 284 83.5 308 c 0
 121 396.5 202.5 470 302 469.5 c 0
 412 468.5 479.5 364.5 465.5 254 c 0
 464 245.5 461.5 236 459.5 228 c 1
 68.5 228 l 1
165.3255 669.005 m 1
 174.8255 669.005 l 1
 170.3255 600.505 212.3255 540.005 297.8255 539.505 c 0
 385.8255 539.005 444.3255 601.005 462.8255 668.505 c 1
 472.8255 668.005 l 1
 453.8255 595.505 394.8255 529.505 297.3255 529.505 c 0
 201.8255 529.505 159.8255 596.005 165.3255 669.005 c 1
EndSplineSet
EndChar

StartChar: Edotaccent
Encoding: 278 278 268
Width: 494
VWidth: 0
Flags: HMW
LayerCount: 2
Fore
SplineSet
62 0 m 1
 63.5 10 l 1
 392 10 l 1
 390.5 0 l 1
 62 0 l 1
180 690 m 1
 181.5 700 l 1
 509.5 700 l 1
 508 690 l 1
 180 690 l 1
127.5 384 m 1
 129.5 394 l 1
 438 394 l 1
 436.5 384 l 1
 127.5 384 l 1
180 699.5 m 1
 191 699.5 l 1
 70.5 0 l 1
 59.5 0 l 1
 180 699.5 l 1
347.5 779 m 0
 348 784.5 354.5 790 360 790 c 0
 365.5 790 369.5 785 369 779 c 0
 368.5 773.5 362 768 356.5 768 c 0
 351 768 347 773 347.5 779 c 0
EndSplineSet
EndChar

StartChar: edotaccent
Encoding: 279 279 269
Width: 487
VWidth: 0
Flags: HMW
LayerCount: 2
Fore
SplineSet
68.5 228 m 1
 70 238 l 1
 451.5 238 l 1
 474 343.5 416 458 302 459 c 0
 187 460 90 357 71.5 233 c 1
 72 232.5 l 1
 60.5 118.5 108.501 1.54834 225 0.5 c 0
 325.497 -0.20166 384 59 428.5 112.5 c 1
 436 106 l 1
 390.5 51.5 332.01 -9.85156 224.5 -9.5 c 0
 103 -9 47.5 112.5 62 232 c 0
 66 258.5 73 284 83.5 308 c 0
 121 396.5 202.5 470 302 469.5 c 0
 412 468.5 479.5 364.5 465.5 254 c 0
 464 245.5 461.5 236 459.5 228 c 1
 68.5 228 l 1
297.129 540.505 m 0
 297.629 546.005 304.129 551.505 309.629 551.505 c 0
 315.129 551.505 319.129 546.505 318.629 540.505 c 0
 318.129 535.005 312.129 529.505 306.629 529.505 c 0
 301.129 529.505 296.629 534.505 297.129 540.505 c 0
EndSplineSet
EndChar

StartChar: Eogonek
Encoding: 280 280 270
Width: 494
VWidth: 0
Flags: HMW
LayerCount: 2
Fore
SplineSet
62 0 m 1
 63.5 10 l 1
 392 10 l 1
 390.5 0 l 1
 62 0 l 1
180 690 m 1
 181.5 700 l 1
 509.5 700 l 1
 508 690 l 1
 180 690 l 1
127.5 384 m 1
 129.5 394 l 1
 438 394 l 1
 436.5 384 l 1
 127.5 384 l 1
180 699.5 m 1
 191 699.5 l 1
 70.5 0 l 1
 59.5 0 l 1
 180 699.5 l 1
393.5 -173.5 m 1
 399.5 -181 l 1
 376 -201 338.5 -220 297.5 -219.5 c 0
 242 -219 203.5 -189.5 210.5 -139.5 c 0
 221.5 -65 316.5 -23.5 385 9.5 c 1
 390.5 0 l 1
 325.5 -31 230.5 -73.5 220.5 -140 c 0
 214.5 -185 253.5 -209 298.5 -209.5 c 0
 336.5 -210 371 -191 393.5 -173.5 c 1
EndSplineSet
EndChar

StartChar: eogonek
Encoding: 281 281 271
Width: 487
VWidth: 0
Flags: HMW
LayerCount: 2
Fore
SplineSet
68.5 228 m 1
 70 238 l 1
 451.5 238 l 1
 474 343.5 416 458 302 459 c 0
 187 460 90 357 71.5 233 c 1
 72 232.5 l 1
 60.5 118.5 108.501 1.54834 225 0.5 c 0
 325.497 -0.20166 384 59 428.5 112.5 c 1
 436 106 l 1
 390.5 51.5 332.01 -9.85156 224.5 -9.5 c 0
 103 -9 47.5 112.5 62 232 c 0
 66 258.5 73 284 83.5 308 c 0
 121 396.5 202.5 470 302 469.5 c 0
 412 468.5 479.5 364.5 465.5 254 c 0
 464 245.5 461.5 236 459.5 228 c 1
 68.5 228 l 1
237.5 -177 m 1
 243 -184 l 1
 219.5 -204 183 -223.5 142 -223 c 0
 86.5 -222.5 48 -193 54 -143 c 0
 63.5 -69 157 -32.5 224.5 0 c 1
 231 -9 l 1
 166.5 -40 72.5 -75.5 63.5 -143.5 c 0
 58.5 -188.5 97.5 -212.5 142.5 -213 c 0
 180.5 -213.5 215 -195 237.5 -177 c 1
EndSplineSet
EndChar

StartChar: Ecaron
Encoding: 282 282 272
Width: 494
VWidth: 0
Flags: HMW
LayerCount: 2
Fore
SplineSet
62 0 m 1
 63.5 10 l 1
 392 10 l 1
 390.5 0 l 1
 62 0 l 1
180 690 m 1
 181.5 700 l 1
 509.5 700 l 1
 508 690 l 1
 180 690 l 1
127.5 384 m 1
 129.5 394 l 1
 438 394 l 1
 436.5 384 l 1
 127.5 384 l 1
180 699.5 m 1
 191 699.5 l 1
 70.5 0 l 1
 59.5 0 l 1
 180 699.5 l 1
357.5 780.5 m 1
 529 915 l 1
 536 907 l 1
 356.5 768.5 l 1
 224.5 908 l 1
 233.5 916 l 1
 357.5 780.5 l 1
EndSplineSet
EndChar

StartChar: ecaron
Encoding: 283 283 273
Width: 487
VWidth: 0
Flags: HMW
LayerCount: 2
Fore
SplineSet
68.5 228 m 1
 70 238 l 1
 451.5 238 l 1
 474 343.5 416 458 302 459 c 0
 187 460 90 357 71.5 233 c 1
 72 232.5 l 1
 60.5 118.5 108.501 1.54834 225 0.5 c 0
 325.497 -0.20166 384 59 428.5 112.5 c 1
 436 106 l 1
 390.5 51.5 332.01 -9.85156 224.5 -9.5 c 0
 103 -9 47.5 112.5 62 232 c 0
 66 258.5 73 284 83.5 308 c 0
 121 396.5 202.5 470 302 469.5 c 0
 412 468.5 479.5 364.5 465.5 254 c 0
 464 245.5 461.5 236 459.5 228 c 1
 68.5 228 l 1
296.5755 541.505 m 1
 468.0755 676.005 l 1
 475.0755 668.005 l 1
 295.5755 529.505 l 1
 163.0755 669.005 l 1
 172.0755 677.005 l 1
 296.5755 541.505 l 1
EndSplineSet
EndChar

StartChar: Gcircumflex
Encoding: 284 284 274
Width: 742
VWidth: 0
Flags: HMW
LayerCount: 2
Fore
SplineSet
437 330 m 1
 438.5 340 l 1
 720 339.5 l 1
 685 162.5 547.5 -7.5 350.5 -7.5 c 0
 154.5 -7.5 54 164.5 81 350 c 0
 111.5 546 273 708.5 471.5 708 c 0
 587.5 708 667.5 646 716.5 556 c 1
 706 550 l 1
 665.5 637.5 581 697 471 697 c 0
 276.5 697.5 122.5 540.5 92 350 c 0
 65.5 172 159 3.5 351.5 3.5 c 0
 539 3.5 670.5 162 708 329.5 c 1
 437 330 l 1
506 902.5 m 1
 333.5 769 l 1
 327.5 776 l 1
 507 914.5 l 1
 639.5 775 l 1
 631.5 768 l 1
 506 902.5 l 1
EndSplineSet
EndChar

StartChar: gcircumflex
Encoding: 285 285 275
Width: 525
VWidth: 0
Flags: HMW
LayerCount: 2
Fore
SplineSet
26.5 -30 m 1
 36.5 -30 l 1
 25 -133 69.5 -218.5 179.5 -219.5 c 0
 298 -220.5 391.5 -123 412 10 c 2
 489.5 459.5 l 1
 499.5 459.5 l 1
 422.5 10 l 2
 401 -128 304.5 -230 179 -229.5 c 0
 62.5 -229 14.5 -137 26.5 -30 c 1
55.5 230 m 0
 75 361.5 176.5 471 303 469.5 c 0
 427.5 468 470.5 336.5 455 230 c 0
 436.5 115.5 347 -9 222 -9.5 c 0
 95.5 -10 38.5 105.5 55.5 230 c 0
65.5 230 m 0
 48.5 110.5 103.5 0 225.5 0.5 c 0
 341.5 1 433 121.5 450.5 235 c 0
 465 331.5 417.5 457.5 305 459.5 c 0
 183.5 462 84.5 356 65.5 230 c 0
337.5 664.5 m 1
 165 531 l 1
 159 538 l 1
 338.5 676.5 l 1
 470.5 537 l 1
 463 530 l 1
 337.5 664.5 l 1
EndSplineSet
EndChar

StartChar: Gbreve
Encoding: 286 286 276
Width: 742
VWidth: 0
Flags: HMW
LayerCount: 2
Fore
SplineSet
437 330 m 1
 438.5 340 l 1
 720 339.5 l 1
 685 162.5 547.5 -7.5 350.5 -7.5 c 0
 154.5 -7.5 54 164.5 81 350 c 0
 111.5 546 273 708.5 471.5 708 c 0
 587.5 708 667.5 646 716.5 556 c 1
 706 550 l 1
 665.5 637.5 581 697 471 697 c 0
 276.5 697.5 122.5 540.5 92 350 c 0
 65.5 172 159 3.5 351.5 3.5 c 0
 539 3.5 670.5 162 708 329.5 c 1
 437 330 l 1
353 908 m 1
 363 908 l 1
 357 840 398 779 483.5 778.5 c 0
 571.5 778 631 840 650.5 907 c 1
 660.5 907 l 1
 640.5 835 580.5 768 483 768.5 c 0
 387.5 769 346 835 353 908 c 1
EndSplineSet
EndChar

StartChar: gbreve
Encoding: 287 287 277
Width: 525
VWidth: 0
Flags: HMW
LayerCount: 2
Fore
SplineSet
26.5 -30 m 1
 36.5 -30 l 1
 25 -133 69.5 -218.5 179.5 -219.5 c 0
 298 -220.5 391.5 -123 412 10 c 2
 489.5 459.5 l 1
 499.5 459.5 l 1
 422.5 10 l 2
 401 -128 304.5 -230 179 -229.5 c 0
 62.5 -229 14.5 -137 26.5 -30 c 1
55.5 230 m 0
 75 361.5 176.5 471 303 469.5 c 0
 427.5 468 470.5 336.5 455 230 c 0
 436.5 115.5 347 -9 222 -9.5 c 0
 95.5 -10 38.5 105.5 55.5 230 c 0
65.5 230 m 0
 48.5 110.5 103.5 0 225.5 0.5 c 0
 341.5 1 433 121.5 450.5 235 c 0
 465 331.5 417.5 457.5 305 459.5 c 0
 183.5 462 84.5 356 65.5 230 c 0
184.5 670 m 1
 194 670 l 1
 188 602 229 541 314.5 540.5 c 0
 402.5 540 462.5 602 482 669 c 1
 492 669 l 1
 472 597 411.5 530 314 530.5 c 0
 218.5 531 177.5 597 184.5 670 c 1
EndSplineSet
EndChar

StartChar: Gdotaccent
Encoding: 288 288 278
Width: 742
VWidth: 0
Flags: HMW
LayerCount: 2
Fore
SplineSet
437 330 m 1
 438.5 340 l 1
 720 339.5 l 1
 685 162.5 547.5 -7.5 350.5 -7.5 c 0
 154.5 -7.5 54 164.5 81 350 c 0
 111.5 546 273 708.5 471.5 708 c 0
 587.5 708 667.5 646 716.5 556 c 1
 706 550 l 1
 665.5 637.5 581 697 471 697 c 0
 276.5 697.5 122.5 540.5 92 350 c 0
 65.5 172 159 3.5 351.5 3.5 c 0
 539 3.5 670.5 162 708 329.5 c 1
 437 330 l 1
473.5 779 m 0
 474 784.5 480.5 790 486 790 c 0
 491.5 790 495.5 785 495 779 c 0
 494.5 773.5 488 768 482.5 768 c 0
 477 768 473 773 473.5 779 c 0
EndSplineSet
EndChar

StartChar: gdotaccent
Encoding: 289 289 279
Width: 525
VWidth: 0
Flags: HMW
LayerCount: 2
Fore
SplineSet
26.5 -30 m 1
 36.5 -30 l 1
 25 -133 69.5 -218.5 179.5 -219.5 c 0
 298 -220.5 391.5 -123 412 10 c 2
 489.5 459.5 l 1
 499.5 459.5 l 1
 422.5 10 l 2
 401 -128 304.5 -230 179 -229.5 c 0
 62.5 -229 14.5 -137 26.5 -30 c 1
55.5 230 m 0
 75 361.5 176.5 471 303 469.5 c 0
 427.5 468 470.5 336.5 455 230 c 0
 436.5 115.5 347 -9 222 -9.5 c 0
 95.5 -10 38.5 105.5 55.5 230 c 0
65.5 230 m 0
 48.5 110.5 103.5 0 225.5 0.5 c 0
 341.5 1 433 121.5 450.5 235 c 0
 465 331.5 417.5 457.5 305 459.5 c 0
 183.5 462 84.5 356 65.5 230 c 0
305 541 m 0
 305.5 546.5 312 552 317.5 552 c 0
 323 552 327 547 326.5 541 c 0
 326 535.5 319.5 530 314 530 c 0
 308.5 530 304.5 535 305 541 c 0
EndSplineSet
EndChar

StartChar: uni0122
Encoding: 290 290 280
Width: 742
VWidth: 0
Flags: HMW
LayerCount: 2
Fore
SplineSet
437 330 m 1
 438.5 340 l 1
 720 339.5 l 1
 685 162.5 547.5 -7.5 350.5 -7.5 c 0
 154.5 -7.5 54 164.5 81 350 c 0
 111.5 546 273 708.5 471.5 708 c 0
 587.5 708 667.5 646 716.5 556 c 1
 706 550 l 1
 665.5 637.5 581 697 471 697 c 0
 276.5 697.5 122.5 540.5 92 350 c 0
 65.5 172 159 3.5 351.5 3.5 c 0
 539 3.5 670.5 162 708 329.5 c 1
 437 330 l 1
386 -69 m 1
 396.5 -74 l 1
 245 -322 l 1
 239 -320 l 1
 386 -69 l 1
EndSplineSet
EndChar

StartChar: Hcircumflex
Encoding: 292 292 281
Width: 627
VWidth: 0
Flags: HMW
LayerCount: 2
Fore
SplineSet
127.5 377 m 1
 129 387 l 1
 575.5 387 l 1
 574 377 l 1
 127.5 377 l 1
622.5 699.5 m 1
 633.5 699.5 l 1
 513 0 l 1
 502 0 l 1
 622.5 699.5 l 1
180 699.5 m 1
 191 699.5 l 1
 70.5 0 l 1
 59.5 0 l 1
 180 699.5 l 1
442 902.5 m 1
 268.5 769 l 1
 263.5 776 l 1
 443 914.5 l 1
 575.5 775 l 1
 566.5 768 l 1
 442 902.5 l 1
EndSplineSet
EndChar

StartChar: hcircumflex
Encoding: 293 293 282
Width: 460
VWidth: 0
Flags: HMW
LayerCount: 2
Fore
SplineSet
199 779.5 m 1
 64.5 0 l 1
 54.5 0 l 1
 189 779.5 l 1
 199 779.5 l 1
396.5 320 m 2
 406 392.5 388 458.5 301.5 459.5 c 0
 205 460.5 132.5 369 112 281 c 1
 107 281 l 1
 127.5 379 200.5 470 302 469.5 c 0
 394 469 417 399 406.5 320 c 2
 350.5 0 l 1
 341 0 l 1
 396.5 320 l 2
235 974.5 m 1
 61.5 841 l 1
 56.5 848 l 1
 236 986.5 l 1
 368.5 847 l 1
 359.5 840 l 1
 235 974.5 l 1
EndSplineSet
EndChar

StartChar: Itilde
Encoding: 296 296 283
Width: 174
VWidth: 0
Flags: HMW
LayerCount: 2
Fore
SplineSet
175.5 699.5 m 1
 185.5 699.5 l 1
 64.5 0 l 1
 54.5 0 l 1
 175.5 699.5 l 1
89.5 831.5 m 1
 99 859.5 119 888.5 160 888.5 c 0
 207.5 888.5 225.5 841.5 272.5 842.5 c 0
 301.5 843 318.5 864 335.5 889.5 c 1
 344.5 886.5 l 1
 326 857 303 834.5 271 834.5 c 0
 224 834.5 203.5 880 161.5 880.5 c 0
 124.5 881 107 855 98.5 830.5 c 1
 89.5 831.5 l 1
EndSplineSet
EndChar

StartChar: itilde
Encoding: 297 297 284
Width: 184
VWidth: 0
Flags: HMW
LayerCount: 2
Fore
SplineSet
139.5 459.5 m 1
 149 459.5 l 1
 69.5 0 l 1
 59.5 0 l 1
 139.5 459.5 l 1
55.5 591.5 m 1
 65 619.5 85 648.5 126 648.5 c 0
 173.5 648.5 191 601.5 238 602.5 c 0
 267 603 284.5 624 301.5 649.5 c 1
 310 646.5 l 1
 291.5 617 269 594.5 237 594.5 c 0
 190 594.5 169.5 640 127.5 640.5 c 0
 90.5 641 73 615 64.5 590.5 c 1
 55.5 591.5 l 1
EndSplineSet
EndChar

StartChar: Imacron
Encoding: 298 298 285
Width: 174
VWidth: 0
Flags: HMW
LayerCount: 2
Fore
SplineSet
175.5 699.5 m 1
 185.5 699.5 l 1
 64.5 0 l 1
 54.5 0 l 1
 175.5 699.5 l 1
65 835 m 1
 66.5 845 l 1
 406.5 845 l 1
 404.5 835 l 1
 65 835 l 1
EndSplineSet
EndChar

StartChar: imacron
Encoding: 299 299 286
Width: 184
VWidth: 0
Flags: HMW
LayerCount: 2
Fore
SplineSet
139.5 459.5 m 1
 149 459.5 l 1
 69.5 0 l 1
 59.5 0 l 1
 139.5 459.5 l 1
30.5 595 m 1
 32.5 605 l 1
 372 605 l 1
 370.5 595 l 1
 30.5 595 l 1
EndSplineSet
EndChar

StartChar: Ibreve
Encoding: 300 300 287
Width: 174
VWidth: 0
Flags: HMW
LayerCount: 2
Fore
SplineSet
175.5 699.5 m 1
 185.5 699.5 l 1
 64.5 0 l 1
 54.5 0 l 1
 175.5 699.5 l 1
60.5 910 m 1
 70 910 l 1
 64 842 105 781 190.5 780.5 c 0
 278.5 780 338.5 842 358 909 c 1
 368 909 l 1
 348 837 287.5 770 190 770.5 c 0
 94.5 771 53.5 837 60.5 910 c 1
EndSplineSet
EndChar

StartChar: ibreve
Encoding: 301 301 288
Width: 184
VWidth: 0
Flags: HMW
LayerCount: 2
Fore
SplineSet
139.5 459.5 m 1
 149 459.5 l 1
 69.5 0 l 1
 59.5 0 l 1
 139.5 459.5 l 1
26 670 m 1
 36 670 l 1
 30 602 71 541 156.5 540.5 c 0
 244.5 540 304 602 323.5 669 c 1
 333.5 669 l 1
 313.5 597 253.5 530 156 530.5 c 0
 60.5 531 19 597 26 670 c 1
EndSplineSet
EndChar

StartChar: Iogonek
Encoding: 302 302 289
Width: 174
VWidth: 0
Flags: HMW
LayerCount: 2
Fore
SplineSet
175.5 699.5 m 1
 185.5 699.5 l 1
 64.5 0 l 1
 54.5 0 l 1
 175.5 699.5 l 1
68.5 -173.5 m 1
 74.5 -181 l 1
 51 -201 13.5 -220 -27.5 -219.5 c 0
 -83 -219 -121.5 -189.5 -114.5 -139.5 c 0
 -103.5 -65 -8.5 -23.5 60 9.5 c 1
 65.5 0 l 1
 0.5 -31 -95 -73.5 -105 -140 c 0
 -111 -185 -71.5 -209 -26.5 -209.5 c 0
 11.5 -210 46 -191 68.5 -173.5 c 1
EndSplineSet
EndChar

StartChar: iogonek
Encoding: 303 303 290
Width: 184
VWidth: 0
Flags: HMW
LayerCount: 2
Fore
SplineSet
174 695 m 0
 174.5 700 179 705 185 705 c 0
 191 705 194 700.5 193.5 695 c 0
 193 690 188 685 182 685 c 0
 176 685 173.5 689.5 174 695 c 0
139.5 459.5 m 1
 149 459.5 l 1
 69.5 0 l 1
 59.5 0 l 1
 139.5 459.5 l 1
73.5 -173.5 m 1
 79.5 -181 l 1
 56 -201 18.5 -220 -22.5 -219.5 c 0
 -78 -219 -116.5 -189.5 -109.5 -139.5 c 0
 -98.5 -65 -3.5 -23 65 9.5 c 1
 70.5 0 l 1
 5.5 -31 -90 -73.5 -100 -140 c 0
 -106 -185 -66.5 -209 -21.5 -209.5 c 0
 16.5 -210 51 -191 73.5 -173.5 c 1
EndSplineSet
EndChar

StartChar: Idotaccent
Encoding: 304 304 291
Width: 174
VWidth: 0
Flags: HMW
LayerCount: 2
Fore
SplineSet
175.5 699.5 m 1
 185.5 699.5 l 1
 64.5 0 l 1
 54.5 0 l 1
 175.5 699.5 l 1
183.5 786 m 0
 184 791.5 190.5 797 196 797 c 0
 201.5 797 205.5 792 205 786 c 0
 204.5 780.5 198 775 192.5 775 c 0
 187 775 183 780 183.5 786 c 0
EndSplineSet
EndChar

StartChar: uni0136
Encoding: 310 310 292
Width: 440
VWidth: 0
Flags: HMW
LayerCount: 2
Fore
SplineSet
175.5 699.5 m 1
 186 699.5 l 1
 65.5 0 l 1
 54.5 0 l 1
 175.5 699.5 l 1
488.5 699 m 1
 504.5 699 l 1
 142 371.5 l 1
 399 0 l 1
 383 0 l 1
 127.5 372.5 l 1
 488.5 699 l 1
263 -61 m 1
 273.5 -66 l 1
 122.5 -314 l 1
 116.5 -312 l 1
 263 -61 l 1
EndSplineSet
EndChar

StartChar: uni0137
Encoding: 311 311 293
Width: 361
VWidth: 0
Flags: HMW
LayerCount: 2
Fore
SplineSet
184 779.5 m 1
 194 779.5 l 1
 59.5 0 l 1
 50 0 l 1
 184 779.5 l 1
369.5 459 m 1
 385.5 459 l 1
 117.5 270 l 1
 324.5 0 l 1
 311 0 l 1
 104 270.5 l 1
 369.5 459 l 1
223.5 -61 m 1
 233.5 -66 l 1
 82.5 -314 l 1
 76.5 -312 l 1
 223.5 -61 l 1
EndSplineSet
EndChar

StartChar: Lacute
Encoding: 313 313 294
Width: 417
VWidth: 0
Flags: HMW
LayerCount: 2
Fore
SplineSet
180 699.5 m 1
 190 699.5 l 1
 71.5 10 l 1
 372.5 10 l 1
 371 0 l 1
 60 0 l 1
 180 699.5 l 1
545 924 m 1
 348 769 l 1
 345 774 l 1
 538 932 l 1
 545 924 l 1
EndSplineSet
EndChar

StartChar: lacute
Encoding: 314 314 295
Width: 174
VWidth: 0
Flags: HMW
LayerCount: 2
Fore
SplineSet
189 779.5 m 1
 199 779.5 l 1
 64.5 0 l 1
 54.5 0 l 1
 189 779.5 l 1
402 996 m 1
 205 841 l 1
 202 846 l 1
 395 1004 l 1
 402 996 l 1
EndSplineSet
EndChar

StartChar: uni013B
Encoding: 315 315 296
Width: 417
VWidth: 0
Flags: HMW
LayerCount: 2
Fore
SplineSet
180 699.5 m 1
 190 699.5 l 1
 71.5 10 l 1
 372.5 10 l 1
 371 0 l 1
 60 0 l 1
 180 699.5 l 1
212.5 -61 m 1
 223 -66 l 1
 72 -314 l 1
 66 -312 l 1
 212.5 -61 l 1
EndSplineSet
EndChar

StartChar: uni013C
Encoding: 316 316 297
Width: 174
VWidth: 0
Flags: HMW
LayerCount: 2
Fore
SplineSet
189 779.5 m 1
 199 779.5 l 1
 64.5 0 l 1
 54.5 0 l 1
 189 779.5 l 1
77 -61 m 1
 87 -66 l 1
 -64 -314 l 1
 -70 -312 l 1
 77 -61 l 1
EndSplineSet
EndChar

StartChar: Lcaron
Encoding: 317 317 298
Width: 417
VWidth: 0
Flags: HMW
LayerCount: 2
Fore
SplineSet
180 699.5 m 1
 190 699.5 l 1
 71.5 10 l 1
 372.5 10 l 1
 371 0 l 1
 60 0 l 1
 180 699.5 l 1
429 707 m 1
 439.5 702 l 1
 288.5 454 l 1
 282.5 456 l 1
 429 707 l 1
EndSplineSet
EndChar

StartChar: lcaron
Encoding: 318 318 299
Width: 223
VWidth: 0
Flags: HMW
LayerCount: 2
Fore
SplineSet
189 779.5 m 1
 199 779.5 l 1
 64.5 0 l 1
 54.5 0 l 1
 189 779.5 l 1
414.5 763 m 1
 425 758 l 1
 273.5 510 l 1
 267.5 512 l 1
 414.5 763 l 1
EndSplineSet
EndChar

StartChar: Ldot
Encoding: 319 319 300
Width: 417
VWidth: 0
Flags: HMW
LayerCount: 2
Fore
SplineSet
180 699.5 m 1
 190 699.5 l 1
 71.5 10 l 1
 372.5 10 l 1
 371 0 l 1
 60 0 l 1
 180 699.5 l 1
304.5 414 m 0
 305 419.5 311.5 425 317 425 c 0
 322.5 425 326.5 420 326 414 c 0
 325.5 408.5 319 403 313.5 403 c 0
 308 403 304 408 304.5 414 c 0
EndSplineSet
EndChar

StartChar: ldot
Encoding: 320 320 301
Width: 359
VWidth: 0
Flags: HMW
LayerCount: 2
Fore
SplineSet
189 779.5 m 1
 199 779.5 l 1
 64.5 0 l 1
 54.5 0 l 1
 189 779.5 l 1
263.5 396 m 0
 264 401.5 270.5 407 276 407 c 0
 281.5 407 285.5 402 285 396 c 0
 284.5 390.5 278 385 272.5 385 c 0
 267 385 263 390 263.5 396 c 0
EndSplineSet
EndChar

StartChar: eth
Encoding: 240 240 302
Width: 520
VWidth: 0
Flags: HMW
LayerCount: 2
Fore
SplineSet
472.5 220 m 0
 489.5 325 424.5 427 296 426.5 c 0
 187 426 86.5 329.5 68.5 220 c 0
 51 107 109 1 232.5 0.5 c 0
 359.5 0 454 104.5 472.5 220 c 0
292 700 m 1
 455 379 l 2
 476 334.5 491 274.5 482.5 220 c 0
 463.5 93.5 365 -10 232 -9.5 c 0
 99.5 -9 40 100 58.5 220.5 c 0
 77.5 334.5 179 436.5 296.5 436.5 c 0
 365 436.5 418.5 406 456 354.5 c 1
 456 355 l 1
 280.5 700 l 1
 292 700 l 1
211.5 575 m 1
 213.5 585 l 1
 475.5 585 l 1
 474 575 l 1
 211.5 575 l 1
EndSplineSet
EndChar

StartChar: racute
Encoding: 341 341 303
Width: 281
VWidth: 0
Flags: HMW
LayerCount: 2
Fore
SplineSet
144.5 459.5 m 1
 64.5 0 l 1
 54.5 0 l 1
 134.5 459.5 l 1
 144.5 459.5 l 1
310 440 m 1
 294 450.5 277 459 258 459.5 c 0
 172.5 462 127 362.5 112 280.5 c 1
 107 280.5 l 1
 122.5 371.5 167.5 473 258.5 469.5 c 0
 280 469 299.5 458.5 316.5 447.5 c 1
 310 440 l 1
397.5 686 m 1
 201 531 l 1
 197.5 536 l 1
 390.5 694 l 1
 397.5 686 l 1
EndSplineSet
EndChar

StartChar: rcaron
Encoding: 345 345 304
Width: 281
VWidth: 0
Flags: HMW
LayerCount: 2
Fore
SplineSet
144.5 459.5 m 1
 64.5 0 l 1
 54.5 0 l 1
 134.5 459.5 l 1
 144.5 459.5 l 1
310 440 m 1
 294 450.5 277 459 258 459.5 c 0
 172.5 462 127 362.5 112 280.5 c 1
 107 280.5 l 1
 122.5 371.5 167.5 473 258.5 469.5 c 0
 280 469 299.5 458.5 316.5 447.5 c 1
 310 440 l 1
239.5 542.5 m 1
 411 677 l 1
 418 669 l 1
 238.5 530.5 l 1
 106 670 l 1
 115 678 l 1
 239.5 542.5 l 1
EndSplineSet
EndChar

StartChar: Rcaron
Encoding: 344 344 305
Width: 454
VWidth: 0
Flags: HMW
LayerCount: 2
Fore
SplineSet
220 317 m 1
 231.5 317 l 1
 393 0 l 1
 380 0 l 1
 220 317 l 1
180 699.5 m 1
 191 699.5 l 1
 70.5 0 l 1
 59.5 0 l 1
 180 699.5 l 1
179.5 689 m 1
 181.5 700 l 1
 291 700 l 1
 415 698 507.5 631 487.5 507 c 0
 467 381 355.5 316 226 314 c 1
 115.5 314 l 1
 117.5 324 l 1
 226.5 324 l 1
 351.5 326 457 387 477 507 c 0
 496.5 625.5 409.5 686.5 290 689 c 1
 179.5 689 l 1
326.5 780.5 m 1
 498 915 l 1
 505 907 l 1
 325.5 768.5 l 1
 193.5 908 l 1
 202 916 l 1
 326.5 780.5 l 1
EndSplineSet
EndChar

StartChar: uni0213
Encoding: 531 531 306
Width: 281
VWidth: 0
Flags: HMW
LayerCount: 2
Fore
SplineSet
144.5 459.5 m 1
 64.5 0 l 1
 54.5 0 l 1
 134.5 459.5 l 1
 144.5 459.5 l 1
310 440 m 1
 294 450.5 277 459 258 459.5 c 0
 172.5 462 127 362.5 112 280.5 c 1
 107 280.5 l 1
 122.5 371.5 167.5 473 258.5 469.5 c 0
 280 469 299.5 458.5 316.5 447.5 c 1
 310 440 l 1
87 550.5 m 1
 96.5 550.5 l 1
 116 618 175 679.5 263 679.5 c 0
 349 679.5 390 618.5 384.5 550 c 1
 394 550 l 1
 401.5 622.5 361.5 689 266 689.5 c 0
 168 690 107.5 622.5 87 550.5 c 1
EndSplineSet
EndChar

StartChar: uni0212
Encoding: 530 530 307
Width: 454
VWidth: 0
Flags: HMW
LayerCount: 2
Fore
SplineSet
220 317 m 1
 231.5 317 l 1
 393 0 l 1
 380 0 l 1
 220 317 l 1
180 699.5 m 1
 191 699.5 l 1
 70.5 0 l 1
 59.5 0 l 1
 180 699.5 l 1
179.5 689 m 1
 181.5 700 l 1
 291 700 l 1
 415 698 507.5 631 487.5 507 c 0
 467 381 355.5 316 226 314 c 1
 115.5 314 l 1
 117.5 324 l 1
 226.5 324 l 1
 351.5 326 457 387 477 507 c 0
 496.5 625.5 409.5 686.5 290 689 c 1
 179.5 689 l 1
200 768.5 m 1
 209.5 768.5 l 1
 229 836 288 897.5 376 897.5 c 0
 462 897.5 503 836.5 497.5 768 c 1
 507 768 l 1
 514.5 840.5 474.5 907 379 907.5 c 0
 281 908 220.5 840.5 200 768.5 c 1
EndSplineSet
EndChar

StartChar: OE
Encoding: 338 338 308
Width: 922
VWidth: 0
Flags: HMW
LayerCount: 2
Fore
SplineSet
540 385 m 1
 542 395 l 1
 865 395 l 1
 863.5 385 l 1
 540 385 l 1
592 694.5 m 1
 602.5 694.5 l 1
 483.5 5.5 l 1
 473 5.5 l 1
 592 694.5 l 1
820 10 m 1
 818.5 0 l 1
 352 0 l 1
 152.5 3.5 42 159 71 350 c 0
 103 550 265.5 697 470 700 c 1
 936.5 700 l 1
 935 690 l 1
 599 690 l 1
 582.5 690 l 1
 469.5 690 l 1
 274.5 687 112.5 540.5 81 350 c 0
 53 168.5 162.5 13.5 352.5 10 c 1
 462 10 l 1
 485.5 10 l 1
 820 10 l 1
EndSplineSet
EndChar

StartChar: oe
Encoding: 339 339 309
Width: 898
VWidth: 0
Flags: HMW
LayerCount: 2
Fore
SplineSet
859.5 250 m 1
 876 349.5 817 458.5 700.5 459 c 0
 570 459.5 482 344.5 456.5 233 c 1
 457.5 232.5 l 1
 442.5 113.5 493.5 1.5 620.5 0.5 c 0
 712.5 0 781.5 50 832 112 c 1
 839 105 l 1
 783.5 41 715 -10.5 620 -9.5 c 0
 486.5 -8 433.5 113 450.5 230 c 0
 453 247 457 263 462.5 279 c 0
 496.5 383.5 588.5 470 700.5 469.5 c 0
 814 469 888 365 871 253 c 0
 869.5 245 867 236.5 864.5 228.5 c 1
 854.5 229.5 l 1
 859.5 250 l 1
453.5 228 m 1
 455 238 l 1
 866.5 238 l 1
 865 228 l 1
 453.5 228 l 1
55.5 230 m 0
 75 362 175 470.5 298 469.5 c 0
 414.5 468.5 473.5 353 457 230 c 0
 438 99 334.5 -9.5 217.5 -9.5 c 0
 94 -9.5 38.5 105.5 55.5 230 c 0
65.5 230 m 0
 49 111.5 100 0.5 220.5 0.5 c 0
 331.5 0.5 431.5 108.5 450 230 c 0
 465.5 343.5 411 458 300.5 459.5 c 0
 180 461 84.5 355.5 65.5 230 c 0
EndSplineSet
EndChar

StartChar: a.alt
Encoding: 65536 -1 310
Width: 422
VWidth: 0
Flags: HMW
LayerCount: 2
Fore
SplineSet
44.5 135 m 0
 32 51 86 0.5 159.5 0.5 c 0
 253 0.5 324.5 76.5 345.5 159 c 1
 350.5 159 l 1
 330 72.5 261 -9.5 159 -9.5 c 0
 80 -9.5 21.5 45.5 34.5 135.5 c 0
 50 228.5 144 280.5 235 280.5 c 0
 297 280.5 334 259 361 235 c 1
 359 225.5 l 1
 331 251.5 290.5 270.5 234 270.5 c 0
 150 270.5 59.5 222.5 44.5 135 c 0
121.5 395.5 m 1
 116 404 l 1
 157.5 435.5 211 470.5 278.5 469.5 c 0
 367 468 392 399 382 320 c 2
 326.5 0 l 1
 316.5 0 l 1
 372.5 320 l 2
 382 395 360 458 278 459.5 c 0
 215 461 164 428.5 121.5 395.5 c 1
EndSplineSet
EndChar

StartChar: Jcircumflex
Encoding: 308 308 312
Width: 191
VWidth: 0
Flags: HMW
LayerCount: 2
Fore
SplineSet
-178 -158.5 m 1
 -154.5 -184 -122 -208 -80 -208.5 c 0
 10 -210 44 -145 57.5 -50 c 2
 186 699.5 l 1
 197 699.5 l 1
 67 -60 l 2
 53 -153 14 -221 -79.5 -219.5 c 0
 -127 -219 -166 -190.5 -185.5 -165 c 1
 -178 -158.5 l 1
226.5 902.5 m 1
 53 769 l 1
 48.5 776 l 1
 228 914.5 l 1
 360 775 l 1
 351 768 l 1
 226.5 902.5 l 1
EndSplineSet
EndChar

StartChar: jcircumflex
Encoding: 309 309 313
Width: 174
VWidth: 0
Flags: HMW
LayerCount: 2
Fore
SplineSet
-149 -165 m 1
 -134 -186 -114 -208.5 -81 -209.5 c 0
 -6 -211.5 25.5 -138 36.5 -82 c 2
 129.5 459.5 l 1
 139.5 459.5 l 1
 46.5 -82 l 2
 35 -147 -2 -222 -82 -219.5 c 0
 -119.5 -218.5 -141.5 -194.5 -157 -172 c 1
 -149 -165 l 1
169.5 664.5 m 1
 -3 531 l 1
 -9 538 l 1
 170.5 676.5 l 1
 302.5 537 l 1
 295 530 l 1
 169.5 664.5 l 1
EndSplineSet
EndChar

StartChar: Nacute
Encoding: 323 323 314
Width: 645
VWidth: 0
Flags: HMW
LayerCount: 2
Fore
SplineSet
659.5 699.5 m 1
 670.5 699.5 l 1
 547.5 -15 l 1
 148.5 678 l 1
 31.5 0 l 1
 20.5 0 l 1
 143.5 715 l 1
 542 17 l 1
 659.5 699.5 l 1
591 911 m 1
 394.5 756 l 1
 391 761 l 1
 584.5 919 l 1
 591 911 l 1
EndSplineSet
EndChar

StartChar: nacute
Encoding: 324 324 315
Width: 460
VWidth: 0
Flags: HMW
LayerCount: 2
Fore
SplineSet
144.5 459.5 m 1
 64.5 0 l 1
 54.5 0 l 1
 134.5 459.5 l 1
 144.5 459.5 l 1
396.5 320 m 2
 406 392.5 388 458.5 301.5 459.5 c 0
 205 460.5 132.5 369 112 281 c 1
 107 281 l 1
 127.5 379 200.5 470 302 469.5 c 0
 394 469 417 399 406.5 320 c 2
 350.5 0 l 1
 341 0 l 1
 396.5 320 l 2
464 696 m 1
 268.5 541 l 1
 264 546 l 1
 457.5 704 l 1
 464 696 l 1
EndSplineSet
EndChar

StartChar: uni0145
Encoding: 325 325 316
Width: 645
VWidth: 0
Flags: HMW
LayerCount: 2
Fore
SplineSet
298 -46 m 1
 308 -51 l 1
 157 -299 l 1
 151 -297 l 1
 298 -46 l 1
659.5 699.5 m 1
 670.5 699.5 l 1
 547.5 -15 l 1
 148.5 678 l 1
 31.5 0 l 1
 20.5 0 l 1
 143.5 715 l 1
 542 17 l 1
 659.5 699.5 l 1
EndSplineSet
EndChar

StartChar: uni0146
Encoding: 326 326 317
Width: 460
VWidth: 0
Flags: HMW
LayerCount: 2
Fore
SplineSet
144.5 459.5 m 1
 64.5 0 l 1
 54.5 0 l 1
 134.5 459.5 l 1
 144.5 459.5 l 1
396.5 320 m 2
 406 392.5 388 458.5 301.5 459.5 c 0
 205 460.5 132.5 369 112 281 c 1
 107 281 l 1
 127.5 379 200.5 470 302 469.5 c 0
 394 469 417 399 406.5 320 c 2
 350.5 0 l 1
 341 0 l 1
 396.5 320 l 2
213 -41 m 1
 224.5 -46 l 1
 73.5 -294 l 1
 67.5 -292 l 1
 213 -41 l 1
EndSplineSet
EndChar

StartChar: Ncaron
Encoding: 327 327 318
Width: 645
VWidth: 0
Flags: HMW
LayerCount: 2
Fore
SplineSet
435 777.5 m 1
 606.5 912 l 1
 613 904 l 1
 433.5 765.5 l 1
 301.5 905 l 1
 310.5 913 l 1
 435 777.5 l 1
659.5 699.5 m 1
 670.5 699.5 l 1
 547.5 -15 l 1
 148.5 678 l 1
 31.5 0 l 1
 20.5 0 l 1
 143.5 715 l 1
 542 17 l 1
 659.5 699.5 l 1
EndSplineSet
EndChar

StartChar: ncaron
Encoding: 328 328 319
Width: 460
VWidth: 0
Flags: HMW
LayerCount: 2
Fore
SplineSet
144.5 459.5 m 1
 64.5 0 l 1
 54.5 0 l 1
 134.5 459.5 l 1
 144.5 459.5 l 1
396.5 320 m 2
 406 392.5 388 458.5 301.5 459.5 c 0
 205 460.5 132.5 369 112 281 c 1
 107 281 l 1
 127.5 379 200.5 470 302 469.5 c 0
 394 469 417 399 406.5 320 c 2
 350.5 0 l 1
 341 0 l 1
 396.5 320 l 2
296 542.5 m 1
 467.5 677 l 1
 474 669 l 1
 294.5 530.5 l 1
 162.5 670 l 1
 171.5 678 l 1
 296 542.5 l 1
EndSplineSet
EndChar

StartChar: Omacron
Encoding: 332 332 320
Width: 751
VWidth: 0
Flags: HMW
LayerCount: 2
Fore
SplineSet
92 350 m 0
 65.5 171.5 156.5 3.5 348.5 3 c 0
 542.5 2.5 694.5 161.5 724.5 350 c 0
 751 528.5 660 696.5 468 697 c 0
 274 697.5 122 538.5 92 350 c 0
81 350 m 0
 111.5 545.5 270.5 708.5 468.5 708 c 0
 664.5 707.5 762.5 535.5 735.5 350 c 0
 705 154.5 546 -8.5 348 -8 c 0
 152 -7.5 54 164.5 81 350 c 0
313 788 m 1
 314.5 798 l 1
 654.5 798 l 1
 653 788 l 1
 313 788 l 1
EndSplineSet
EndChar

StartChar: omacron
Encoding: 333 333 321
Width: 539
VWidth: 0
Flags: HMW
LayerCount: 2
Fore
SplineSet
55.5 230 m 0
 76 361 188 470 322 469.5 c 0
 454.5 469 527 355 508.5 230 c 0
 488 99 375.5 -10 241.5 -9.5 c 0
 109 -9 37 105 55.5 230 c 0
65.5 230 m 0
 47.5 110 116 1 242 0.5 c 0
 369.5 0 478.5 104 498.5 230 c 0
 516.5 350 448 459 322 459.5 c 0
 194.5 460 85.5 356 65.5 230 c 0
166.5 550 m 1
 168.5 560 l 1
 508 560 l 1
 506.5 550 l 1
 166.5 550 l 1
EndSplineSet
EndChar

StartChar: Obreve
Encoding: 334 334 322
Width: 751
VWidth: 0
Flags: HMW
LayerCount: 2
Fore
SplineSet
92 350 m 0
 65.5 171.5 156.5 3.5 348.5 3 c 0
 542.5 2.5 694.5 161.5 724.5 350 c 0
 751 528.5 660 696.5 468 697 c 0
 274 697.5 122 538.5 92 350 c 0
81 350 m 0
 111.5 545.5 270.5 708.5 468.5 708 c 0
 664.5 707.5 762.5 535.5 735.5 350 c 0
 705 154.5 546 -8.5 348 -8 c 0
 152 -7.5 54 164.5 81 350 c 0
350 908 m 1
 360 908 l 1
 354 840 395 779 480.5 778.5 c 0
 568.5 778 628 840 647.5 907 c 1
 657.5 907 l 1
 637.5 835 577.5 768 480 768.5 c 0
 384.5 769 343 835 350 908 c 1
EndSplineSet
EndChar

StartChar: obreve
Encoding: 335 335 323
Width: 539
VWidth: 0
Flags: HMW
LayerCount: 2
Fore
SplineSet
55.5 230 m 0
 76 361 188 470 322 469.5 c 0
 454.5 469 527 355 508.5 230 c 0
 488 99 375.5 -10 241.5 -9.5 c 0
 109 -9 37 105 55.5 230 c 0
65.5 230 m 0
 47.5 110 116 1 242 0.5 c 0
 369.5 0 478.5 104 498.5 230 c 0
 516.5 350 448 459 322 459.5 c 0
 194.5 460 85.5 356 65.5 230 c 0
204 670 m 1
 213.5 670 l 1
 207.5 602 248.5 541 334 540.5 c 0
 422 540 482 602 501.5 669 c 1
 511.5 669 l 1
 491.5 597 431 530 333.5 530.5 c 0
 238 531 197 597 204 670 c 1
EndSplineSet
EndChar

StartChar: Racute
Encoding: 340 340 324
Width: 454
VWidth: 0
Flags: HMW
LayerCount: 2
Fore
SplineSet
220 317 m 1
 231.5 317 l 1
 393 0 l 1
 380 0 l 1
 220 317 l 1
180 699.5 m 1
 191 699.5 l 1
 70.5 0 l 1
 59.5 0 l 1
 180 699.5 l 1
179.5 689 m 1
 181.5 700 l 1
 291 700 l 1
 415 698 507.5 631 487.5 507 c 0
 467 381 355.5 316 226 314 c 1
 115.5 314 l 1
 117.5 324 l 1
 226.5 324 l 1
 351.5 326 457 387 477 507 c 0
 496.5 625.5 409.5 686.5 290 689 c 1
 179.5 689 l 1
483.5 924 m 1
 288 769 l 1
 283.5 774 l 1
 477 932 l 1
 483.5 924 l 1
EndSplineSet
EndChar

StartChar: uni0156
Encoding: 342 342 325
Width: 454
VWidth: 0
Flags: HMW
LayerCount: 2
Fore
SplineSet
220 317 m 1
 231.5 317 l 1
 393 0 l 1
 380 0 l 1
 220 317 l 1
180 699.5 m 1
 191 699.5 l 1
 70.5 0 l 1
 59.5 0 l 1
 180 699.5 l 1
179.5 689 m 1
 181.5 700 l 1
 291 700 l 1
 415 698 507.5 631 487.5 507 c 0
 467 381 355.5 316 226 314 c 1
 115.5 314 l 1
 117.5 324 l 1
 226.5 324 l 1
 351.5 326 457 387 477 507 c 0
 496.5 625.5 409.5 686.5 290 689 c 1
 179.5 689 l 1
213.5 -61 m 1
 225 -66 l 1
 74 -314 l 1
 68 -312 l 1
 213.5 -61 l 1
EndSplineSet
EndChar

StartChar: uni0157
Encoding: 343 343 326
Width: 281
VWidth: 0
Flags: HMW
LayerCount: 2
Fore
SplineSet
144.5 459.5 m 1
 64.5 0 l 1
 54.5 0 l 1
 134.5 459.5 l 1
 144.5 459.5 l 1
310 440 m 1
 294 450.5 277 459 258 459.5 c 0
 172.5 462 127 362.5 112 280.5 c 1
 107 280.5 l 1
 122.5 371.5 167.5 473 258.5 469.5 c 0
 280 469 299.5 458.5 316.5 447.5 c 1
 310 440 l 1
57.5 -61 m 1
 67.5 -66 l 1
 -83.5 -314 l 1
 -89.5 -312 l 1
 57.5 -61 l 1
EndSplineSet
EndChar

StartChar: Scedilla
Encoding: 350 350 327
Width: 473
VWidth: 0
Flags: HMW
LayerCount: 2
Fore
SplineSet
55 197 m 1
 68 109.5 105.5 4.5 220 3.5 c 0
 337 2.5 406.5 77.5 422 175 c 0
 435.5 269.5 368 325.5 293.5 359 c 0
 215.5 393.5 128.5 448.5 144 550 c 0
 158.5 641.5 245.5 708 338.5 707.5 c 0
 441.5 707 483.5 626 492.5 550 c 1
 482.5 548 l 1
 473 619 434.5 696 338 696.5 c 0
 250 697 169 633.5 155 550 c 0
 139 454.5 221.5 402.5 300 368 c 0
 380 333 447 274 433 175 c 0
 417 74.5 344 -8.5 219.5 -7.5 c 0
 100.5 -6.5 59 98 45 193 c 1
 55 197 l 1
214.5 -1.5 m 1
 226.5 -1.5 l 1
 158 -76.5 l 1
 182 -63.5 201.5 -52 230.5 -53.5 c 0
 266.5 -55.5 294.5 -85 289.5 -127.5 c 0
 282.5 -184.5 223.5 -221 169.5 -220.5 c 0
 135 -220.5 113 -207.5 88.5 -183 c 1
 96 -177 l 1
 119.5 -198 139.5 -210.5 170 -210.5 c 0
 217.5 -210.5 272.5 -179 279.5 -127 c 0
 284 -90 260.5 -65.5 229.5 -63.5 c 0
 200 -61.5 170 -75 145.5 -88.5 c 1
 214.5 -1.5 l 1
EndSplineSet
EndChar

StartChar: scedilla
Encoding: 351 351 328
Width: 391
VWidth: 0
Flags: HMW
LayerCount: 2
Fore
SplineSet
46.5 147 m 1
 50.5 78 73.5 0.5 164.5 0 c 0
 234 -0.5 295.5 49 305.5 117 c 0
 315.5 181.5 263.5 210.5 204 231 c 0
 138 254 86.5 280 99 359 c 0
 110.5 426.5 174 468 243.5 467.5 c 0
 315 467 344.5 421.5 357 368 c 1
 347 365 l 1
 335 414.5 308 457 243 457.5 c 0
 180 458 119 420.5 108.5 359 c 0
 96 284.5 148 261.5 210.5 240 c 0
 271 219 325.5 186 315.5 117 c 0
 305 42.5 240 -10 164 -9.5 c 0
 66 -9 40 69.5 36.5 144 c 1
 46.5 147 l 1
159 -3.5 m 1
 171 -3.5 l 1
 102.5 -78.5 l 1
 126.5 -65.5 145.5 -54 174.5 -55.5 c 0
 210.5 -57.5 238.5 -87 233.5 -129.5 c 0
 226.5 -186.5 167.5 -223 113.5 -222.5 c 0
 79 -222.5 57.5 -209.5 33 -185 c 1
 40.5 -179 l 1
 64 -200 84 -212.5 114.5 -212.5 c 0
 162 -212.5 217 -181 224 -129 c 0
 228.5 -92 205 -67.5 174 -65.5 c 0
 144.5 -63.5 114.5 -77 90 -90.5 c 1
 159 -3.5 l 1
EndSplineSet
EndChar

StartChar: Zcaron
Encoding: 381 381 329
Width: 519
VWidth: 0
Flags: HMW
LayerCount: 2
Fore
SplineSet
129 689 m 1
 131 700 l 1
 597.5 699.5 l 1
 16 11.5 l 1
 470 11 l 1
 468 0 l 1
 -8.5 0 l 1
 573.5 688.5 l 1
 129 689 l 1
377 780.5 m 1
 548.5 915 l 1
 555.5 907 l 1
 376 768.5 l 1
 244 908 l 1
 252.5 916 l 1
 377 780.5 l 1
EndSplineSet
EndChar

StartChar: zcaron
Encoding: 382 382 330
Width: 417
VWidth: 0
Flags: HMW
LayerCount: 2
Fore
SplineSet
278.5 542.5 m 1
 450 677 l 1
 456.5 669 l 1
 277 530.5 l 1
 145 670 l 1
 154 678 l 1
 278.5 542.5 l 1
418 449.5 m 1
 88.5 450 l 1
 90 460 l 1
 440 459.5 l 1
 13.5 10.5 l 1
 372.5 10 l 1
 371 0 l 1
 -8.5 0 l 1
 418 449.5 l 1
EndSplineSet
EndChar

StartChar: Ydieresis
Encoding: 376 376 331
Width: 492
VWidth: 0
Flags: HMW
LayerCount: 2
Fore
SplineSet
253 779.5 m 0
 253.5 785.5 261 790 266.5 790 c 0
 272 790 276.5 785 276 779 c 0
 275.5 773.5 269 768 263.5 768 c 0
 258 768 252.5 773.5 253 779.5 c 0
428 779.5 m 0
 428.5 785.5 436 790 441.5 790 c 0
 447 790 451 785 450.5 779 c 0
 450 773.5 443.5 768 438 768 c 0
 432.5 768 427.5 773.5 428 779.5 c 0
557.5 699 m 1
 570.5 699 l 1
 265 266.5 l 1
 219 0 l 1
 208 0 l 1
 254.5 266.5 l 1
 107 700 l 1
 119.5 700 l 1
 261 281.5 l 1
 557.5 699 l 1
EndSplineSet
EndChar

StartChar: Scaron
Encoding: 352 352 332
Width: 473
VWidth: 0
Flags: HMW
LayerCount: 2
Fore
SplineSet
55 197 m 1
 68 109.5 105.5 4.5 220 3.5 c 0
 337 2.5 406.5 77.5 422 175 c 0
 435.5 269.5 368 325.5 293.5 359 c 0
 215.5 393.5 128.5 448.5 144 550 c 0
 158.5 641.5 245.5 708 338.5 707.5 c 0
 441.5 707 483.5 626 492.5 550 c 1
 482.5 548 l 1
 473 619 434.5 696 338 696.5 c 0
 250 697 169 633.5 155 550 c 0
 139 454.5 221.5 402.5 300 368 c 0
 380 333 447 274 433 175 c 0
 417 74.5 344 -8.5 219.5 -7.5 c 0
 100.5 -6.5 59 98 45 193 c 1
 55 197 l 1
352.5 790.5 m 1
 524 925 l 1
 531 917 l 1
 351.5 778.5 l 1
 219.5 918 l 1
 228 926 l 1
 352.5 790.5 l 1
EndSplineSet
EndChar

StartChar: scaron
Encoding: 353 353 333
Width: 391
VWidth: 0
Flags: HMW
LayerCount: 2
Fore
SplineSet
46.5 147 m 1
 50.5 78 73.5 0.5 164.5 0 c 0
 234 -0.5 295.5 49 305.5 117 c 0
 315.5 181.5 263.5 210.5 204 231 c 0
 138 254 86.5 280 99 359 c 0
 110.5 426.5 174 468 243.5 467.5 c 0
 315 467 344.5 421.5 357 368 c 1
 347 365 l 1
 335 414.5 308 457 243 457.5 c 0
 180 458 119 420.5 108.5 359 c 0
 96 284.5 148 261.5 210.5 240 c 0
 271 219 325.5 186 315.5 117 c 0
 305 42.5 240 -10 164 -9.5 c 0
 66 -9 40 69.5 36.5 144 c 1
 46.5 147 l 1
256 542.5 m 1
 427.5 677 l 1
 434.5 669 l 1
 255 530.5 l 1
 122.5 670 l 1
 131.5 678 l 1
 256 542.5 l 1
EndSplineSet
EndChar

StartChar: Lslash
Encoding: 321 321 334
Width: 363
VWidth: 0
Flags: HMW
LayerCount: 2
Fore
SplineSet
30 387.5 m 1
 25.5 396 l 1
 317 564.5 l 1
 321.5 556 l 1
 30 387.5 l 1
170.5 699.5 m 1
 181.5 699.5 l 1
 63 10 l 1
 329 10 l 1
 327 0 l 1
 50 0 l 1
 170.5 699.5 l 1
EndSplineSet
EndChar

StartChar: lslash
Encoding: 322 322 335
Width: 155
VWidth: 0
Flags: HMW
LayerCount: 2
Fore
SplineSet
31 388 m 1
 25 396 l 1
 226 544 l 1
 232 536 l 1
 31 388 l 1
179.5 779.5 m 1
 189 779.5 l 1
 55 0 l 1
 45 0 l 1
 179.5 779.5 l 1
EndSplineSet
EndChar

StartChar: uni0218
Encoding: 536 536 336
Width: 473
VWidth: 0
Flags: HMW
LayerCount: 2
Fore
SplineSet
55 197 m 1
 68 109.5 105.5 4.5 220 3.5 c 0
 337 2.5 406.5 77.5 422 175 c 0
 435.5 269.5 368 325.5 293.5 359 c 0
 215.5 393.5 128.5 448.5 144 550 c 0
 158.5 641.5 245.5 708 338.5 707.5 c 0
 441.5 707 483.5 626 492.5 550 c 1
 482.5 548 l 1
 473 619 434.5 696 338 696.5 c 0
 250 697 169 633.5 155 550 c 0
 139 454.5 221.5 402.5 300 368 c 0
 380 333 447 274 433 175 c 0
 417 74.5 344 -8.5 219.5 -7.5 c 0
 100.5 -6.5 59 98 45 193 c 1
 55 197 l 1
255 -69 m 1
 265.5 -74 l 1
 114 -322 l 1
 108 -320 l 1
 255 -69 l 1
EndSplineSet
EndChar

StartChar: uni0219
Encoding: 537 537 337
Width: 391
VWidth: 0
Flags: HMW
LayerCount: 2
Fore
SplineSet
46.5 147 m 1
 50.5 78 73.5 0.5 164.5 0 c 0
 234 -0.5 295.5 49 305.5 117 c 0
 315.5 181.5 263.5 210.5 204 231 c 0
 138 254 86.5 280 99 359 c 0
 110.5 426.5 174 468 243.5 467.5 c 0
 315 467 344.5 421.5 357 368 c 1
 347 365 l 1
 335 414.5 308 457 243 457.5 c 0
 180 458 119 420.5 108.5 359 c 0
 96 284.5 148 261.5 210.5 240 c 0
 271 219 325.5 186 315.5 117 c 0
 305 42.5 240 -10 164 -9.5 c 0
 66 -9 40 69.5 36.5 144 c 1
 46.5 147 l 1
199.5 -71 m 1
 209.5 -76 l 1
 58.5 -324 l 1
 52.5 -322 l 1
 199.5 -71 l 1
EndSplineSet
EndChar

StartChar: pi
Encoding: 960 960 338
Width: 456
VWidth: 0
Flags: HMW
LayerCount: 2
Fore
SplineSet
137.5 449.5 m 1
 147.5 449.5 l 1
 69.5 0 l 1
 59.5 0 l 1
 137.5 449.5 l 1
80.5 460 m 1
 468.5 460 l 1
 467 450 l 1
 78.5 450 l 1
 80.5 460 l 1
380 449.5 m 1
 390 449.5 l 1
 333 121 l 2
 324.5 49 313 15 364 1 c 1
 362.5 -8.5 l 1
 304 3.5 314.5 41 323.5 121 c 2
 380 449.5 l 1
EndSplineSet
EndChar

StartChar: trademark
Encoding: 8482 8482 339
Width: 645
VWidth: 0
Flags: HMW
LayerCount: 2
Fore
SplineSet
128.5 694 m 1
 129 700 l 1
 319.5 700 l 1
 318.5 694 l 1
 225.5 694 l 1
 166 350.5 l 1
 161 350.5 l 1
 220.5 694 l 1
 128.5 694 l 1
665.5 688 m 1
 673 707.5 l 1
 646.5 350 l 1
 641.5 350 l 1
 665.5 688 l 1
401.5 707.5 m 1
 400.5 687.5 l 1
 307.5 350.5 l 1
 301.5 350.5 l 1
 401.5 707.5 l 1
673 707 m 1
 665.5 687.5 l 1
 483.5 402 l 1
 400 688 l 1
 400.5 708 l 1
 485.5 415.5 l 1
 673 707 l 1
EndSplineSet
EndChar

StartChar: uni2219
Encoding: 8729 8729 340
Width: 252
VWidth: 0
Flags: HMW
LayerCount: 2
Fore
SplineSet
165 449 m 0
 165.5 454.5 172 460 177.5 460 c 0
 183 460 187 455 186.5 449 c 0
 186 443.5 179.5 438 174 438 c 0
 168.5 438 164.5 443 165 449 c 0
EndSplineSet
EndChar

StartChar: agrave.alt
Encoding: 65537 -1 341
Width: 422
VWidth: 0
Flags: HMW
LayerCount: 2
Fore
SplineSet
44.5 135 m 0
 32 51 86 0.5 159.5 0.5 c 0
 253 0.5 324.5 76.5 345.5 159 c 1
 350.5 159 l 1
 330 72.5 261 -9.5 159 -9.5 c 0
 80 -9.5 21.5 45.5 34.5 135.5 c 0
 50 228.5 144 280.5 235 280.5 c 0
 297 280.5 334 259 361 235 c 1
 359 225.5 l 1
 331 251.5 290.5 270.5 234 270.5 c 0
 150 270.5 59.5 222.5 44.5 135 c 0
121.5 395.5 m 1
 116 404 l 1
 157.5 435.5 211 470.5 278.5 469.5 c 0
 367 468 392 399 382 320 c 2
 326.5 0 l 1
 316.5 0 l 1
 372.5 320 l 2
 382 395 360 458 278 459.5 c 0
 215 461 164 428.5 121.5 395.5 c 1
188 707 m 1
 197 714.5 l 1
 336 555 l 1
 329.5 550.5 l 1
 188 707 l 1
EndSplineSet
EndChar

StartChar: aacute.alt
Encoding: 65538 -1 342
Width: 422
VWidth: 0
Flags: HMW
LayerCount: 2
Fore
SplineSet
44.5 135 m 0
 32 51 86 0.5 159.5 0.5 c 0
 253 0.5 324.5 76.5 345.5 159 c 1
 350.5 159 l 1
 330 72.5 261 -9.5 159 -9.5 c 0
 80 -9.5 21.5 45.5 34.5 135.5 c 0
 50 228.5 144 280.5 235 280.5 c 0
 297 280.5 334 259 361 235 c 1
 359 225.5 l 1
 331 251.5 290.5 270.5 234 270.5 c 0
 150 270.5 59.5 222.5 44.5 135 c 0
121.5 395.5 m 1
 116 404 l 1
 157.5 435.5 211 470.5 278.5 469.5 c 0
 367 468 392 399 382 320 c 2
 326.5 0 l 1
 316.5 0 l 1
 372.5 320 l 2
 382 395 360 458 278 459.5 c 0
 215 461 164 428.5 121.5 395.5 c 1
432 706 m 1
 237.5 551 l 1
 232 556 l 1
 425 714 l 1
 432 706 l 1
EndSplineSet
EndChar

StartChar: acircumflex.alt
Encoding: 65539 -1 343
Width: 422
VWidth: 0
Flags: HMW
LayerCount: 2
Fore
SplineSet
44.5 135 m 0
 32 51 86 0.5 159.5 0.5 c 0
 253 0.5 324.5 76.5 345.5 159 c 1
 350.5 159 l 1
 330 72.5 261 -9.5 159 -9.5 c 0
 80 -9.5 21.5 45.5 34.5 135.5 c 0
 50 228.5 144 280.5 235 280.5 c 0
 297 280.5 334 259 361 235 c 1
 359 225.5 l 1
 331 251.5 290.5 270.5 234 270.5 c 0
 150 270.5 59.5 222.5 44.5 135 c 0
121.5 395.5 m 1
 116 404 l 1
 157.5 435.5 211 470.5 278.5 469.5 c 0
 367 468 392 399 382 320 c 2
 326.5 0 l 1
 316.5 0 l 1
 372.5 320 l 2
 382 395 360 458 278 459.5 c 0
 215 461 164 428.5 121.5 395.5 c 1
315 674.5 m 1
 142.5 541 l 1
 136.5 548 l 1
 316 686.5 l 1
 448 547 l 1
 440.5 540 l 1
 315 674.5 l 1
EndSplineSet
EndChar

StartChar: atilde.alt
Encoding: 65540 -1 344
Width: 422
VWidth: 0
Flags: HMW
LayerCount: 2
Fore
SplineSet
44.5 135 m 0
 32 51 86 0.5 159.5 0.5 c 0
 253 0.5 324.5 76.5 345.5 159 c 1
 350.5 159 l 1
 330 72.5 261 -9.5 159 -9.5 c 0
 80 -9.5 21.5 45.5 34.5 135.5 c 0
 50 228.5 144 280.5 235 280.5 c 0
 297 280.5 334 259 361 235 c 1
 359 225.5 l 1
 331 251.5 290.5 270.5 234 270.5 c 0
 150 270.5 59.5 222.5 44.5 135 c 0
121.5 395.5 m 1
 116 404 l 1
 157.5 435.5 211 470.5 278.5 469.5 c 0
 367 468 392 399 382 320 c 2
 326.5 0 l 1
 316.5 0 l 1
 372.5 320 l 2
 382 395 360 458 278 459.5 c 0
 215 461 164 428.5 121.5 395.5 c 1
166.5 581.5 m 1
 176 609.5 195.5 638.5 236.5 638.5 c 0
 284 638.5 302 591.5 349 592.5 c 0
 378 593 395 614 412 639.5 c 1
 420 636.5 l 1
 401.5 607 379 584.5 347 584.5 c 0
 300 584.5 280 630 238.5 630.5 c 0
 201 631 183.5 605 174.5 580.5 c 1
 166.5 581.5 l 1
EndSplineSet
EndChar

StartChar: adieresis.alt
Encoding: 65541 -1 345
Width: 422
VWidth: 0
Flags: HMW
LayerCount: 2
Fore
SplineSet
44.5 135 m 0
 32 51 86 0.5 159.5 0.5 c 0
 253 0.5 324.5 76.5 345.5 159 c 1
 350.5 159 l 1
 330 72.5 261 -9.5 159 -9.5 c 0
 80 -9.5 21.5 45.5 34.5 135.5 c 0
 50 228.5 144 280.5 235 280.5 c 0
 297 280.5 334 259 361 235 c 1
 359 225.5 l 1
 331 251.5 290.5 270.5 234 270.5 c 0
 150 270.5 59.5 222.5 44.5 135 c 0
121.5 395.5 m 1
 116 404 l 1
 157.5 435.5 211 470.5 278.5 469.5 c 0
 367 468 392 399 382 320 c 2
 326.5 0 l 1
 316.5 0 l 1
 372.5 320 l 2
 382 395 360 458 278 459.5 c 0
 215 461 164 428.5 121.5 395.5 c 1
352 561 m 0
 352.5 566.5 359 572 364.5 572 c 0
 370 572 374 567 373.5 561 c 0
 373 555.5 366.5 550 361 550 c 0
 355.5 550 351.5 555 352 561 c 0
196.5 561 m 0
 197 566.5 203.5 572 209 572 c 0
 214.5 572 218.5 567 218 561 c 0
 217.5 555.5 211 550 205.5 550 c 0
 200 550 196 555 196.5 561 c 0
EndSplineSet
EndChar

StartChar: aring.alt
Encoding: 65542 -1 346
Width: 422
VWidth: 0
Flags: HMW
LayerCount: 2
Fore
SplineSet
44.5 135 m 0
 32 51 86 0.5 159.5 0.5 c 0
 253 0.5 324.5 76.5 345.5 159 c 1
 350.5 159 l 1
 330 72.5 261 -9.5 159 -9.5 c 0
 80 -9.5 21.5 45.5 34.5 135.5 c 0
 50 228.5 144 280.5 235 280.5 c 0
 297 280.5 334 259 361 235 c 1
 359 225.5 l 1
 331 251.5 290.5 270.5 234 270.5 c 0
 150 270.5 59.5 222.5 44.5 135 c 0
121.5 395.5 m 1
 116 404 l 1
 157.5 435.5 211 470.5 278.5 469.5 c 0
 367 468 392 399 382 320 c 2
 326.5 0 l 1
 316.5 0 l 1
 372.5 320 l 2
 382 395 360 458 278 459.5 c 0
 215 461 164 428.5 121.5 395.5 c 1
207 630.5 m 0
 215.5 686 270 730 323.5 729.5 c 0
 376.5 729 414 683.5 406 629.5 c 0
 397.5 574 343 530 289.5 530.5 c 0
 236.5 531 199 576.5 207 630.5 c 0
217 630 m 0
 210 582.5 242.5 541.5 290.5 540.5 c 0
 339 539.5 388.5 581 396 630 c 0
 403 677.5 370.5 718.5 322.5 719.5 c 0
 274 720.5 224.5 679 217 630 c 0
EndSplineSet
EndChar

StartChar: amacron.alt
Encoding: 65543 -1 347
Width: 422
VWidth: 0
Flags: HMW
LayerCount: 2
Fore
SplineSet
44.5 135 m 0
 32 51 86 0.5 159.5 0.5 c 0
 253 0.5 324.5 76.5 345.5 159 c 1
 350.5 159 l 1
 330 72.5 261 -9.5 159 -9.5 c 0
 80 -9.5 21.5 45.5 34.5 135.5 c 0
 50 228.5 144 280.5 235 280.5 c 0
 297 280.5 334 259 361 235 c 1
 359 225.5 l 1
 331 251.5 290.5 270.5 234 270.5 c 0
 150 270.5 59.5 222.5 44.5 135 c 0
121.5 395.5 m 1
 116 404 l 1
 157.5 435.5 211 470.5 278.5 469.5 c 0
 367 468 392 399 382 320 c 2
 326.5 0 l 1
 316.5 0 l 1
 372.5 320 l 2
 382 395 360 458 278 459.5 c 0
 215 461 164 428.5 121.5 395.5 c 1
123 550 m 1
 124.5 560 l 1
 464.5 560 l 1
 463 550 l 1
 123 550 l 1
EndSplineSet
EndChar

StartChar: abreve.alt
Encoding: 65544 -1 348
Width: 422
VWidth: 0
Flags: HMW
LayerCount: 2
Fore
SplineSet
44.5 135 m 0
 32 51 86 0.5 159.5 0.5 c 0
 253 0.5 324.5 76.5 345.5 159 c 1
 350.5 159 l 1
 330 72.5 261 -9.5 159 -9.5 c 0
 80 -9.5 21.5 45.5 34.5 135.5 c 0
 50 228.5 144 280.5 235 280.5 c 0
 297 280.5 334 259 361 235 c 1
 359 225.5 l 1
 331 251.5 290.5 270.5 234 270.5 c 0
 150 270.5 59.5 222.5 44.5 135 c 0
121.5 395.5 m 1
 116 404 l 1
 157.5 435.5 211 470.5 278.5 469.5 c 0
 367 468 392 399 382 320 c 2
 326.5 0 l 1
 316.5 0 l 1
 372.5 320 l 2
 382 395 360 458 278 459.5 c 0
 215 461 164 428.5 121.5 395.5 c 1
152 680 m 1
 162 680 l 1
 156 612 197 551 282.5 550.5 c 0
 370.5 550 430 612 449.5 679 c 1
 459.5 679 l 1
 439.5 607 379.5 540 282 540.5 c 0
 186.5 541 145 607 152 680 c 1
EndSplineSet
EndChar

StartChar: aogonek.alt
Encoding: 65545 -1 349
Width: 422
VWidth: 0
Flags: HMW
LayerCount: 2
Fore
SplineSet
44.5 135 m 0
 32 51 86 0.5 159.5 0.5 c 0
 253 0.5 324.5 76.5 345.5 159 c 1
 350.5 159 l 1
 330 72.5 261 -9.5 159 -9.5 c 0
 80 -9.5 21.5 45.5 34.5 135.5 c 0
 50 228.5 144 280.5 235 280.5 c 0
 297 280.5 334 259 361 235 c 1
 359 225.5 l 1
 331 251.5 290.5 270.5 234 270.5 c 0
 150 270.5 59.5 222.5 44.5 135 c 0
121.5 395.5 m 1
 116 404 l 1
 157.5 435.5 211 470.5 278.5 469.5 c 0
 367 468 392 399 382 320 c 2
 326.5 0 l 1
 316.5 0 l 1
 372.5 320 l 2
 382 395 360 458 278 459.5 c 0
 215 461 164 428.5 121.5 395.5 c 1
330.5 -173.5 m 1
 336.5 -181 l 1
 313 -201 275.5 -220 234.5 -219.5 c 0
 179 -219 140.5 -189.5 147.5 -139.5 c 0
 158.5 -65 253.5 -23.5 322 9.5 c 1
 327.5 0 l 1
 262.5 -31 167.5 -73.5 157.5 -140 c 0
 151.5 -185 190.5 -209 235.5 -209.5 c 0
 273.5 -210 308 -191 330.5 -173.5 c 1
EndSplineSet
EndChar

StartChar: dagger
Encoding: 8224 8224 350
Width: 485
VWidth: 0
Flags: HMW
LayerCount: 2
Fore
SplineSet
153 540 m 1
 464 540 l 1
 462.5 530 l 1
 151.5 530 l 1
 153 540 l 1
329 700 m 1
 338.5 700 l 1
 207 -150 l 1
 197 -150 l 1
 329 700 l 1
EndSplineSet
EndChar

StartChar: daggerdbl
Encoding: 8225 8225 351
Width: 485
VWidth: 0
Flags: HMW
LayerCount: 2
Fore
SplineSet
88.5 120 m 1
 399.5 120 l 1
 398 110 l 1
 87 110 l 1
 88.5 120 l 1
153 540 m 1
 464 540 l 1
 462.5 530 l 1
 151.5 530 l 1
 153 540 l 1
329 700 m 1
 338.5 700 l 1
 207 -150 l 1
 197 -150 l 1
 329 700 l 1
EndSplineSet
EndChar

StartChar: ellipsis
Encoding: 8230 8230 352
Width: 788
VWidth: 0
Flags: HMW
LayerCount: 2
Fore
SplineSet
89.5 1 m 0
 90 6.5 96.5 12 102 12 c 0
 107.5 12 111.5 7 111 1 c 0
 110.5 -4.5 104 -10 98.5 -10 c 0
 93 -10 89 -5 89.5 1 c 0
356.5 1 m 0
 357 6.5 363 12 368.5 12 c 0
 374 12 378.5 7 378 1 c 0
 377.5 -4.5 371 -10 365.5 -10 c 0
 360 -10 356 -5 356.5 1 c 0
623 1 m 0
 623.5 6.5 630 12 635.5 12 c 0
 641 12 645 7 644.5 1 c 0
 644 -4.5 638 -10 632.5 -10 c 0
 627 -10 622.5 -5 623 1 c 0
EndSplineSet
EndChar

StartChar: uniFF10
Encoding: 65296 65296 353
Width: 533
VWidth: 0
Flags: HMW
LayerCount: 2
Fore
SplineSet
97 350 m 0
 80.5 208.5 88.5 1 239 0 c 0
 388.5 -1 479.5 190 502 350 c 0
 518.5 491.5 510.5 698.5 360 699.5 c 0
 210.5 700.5 119.5 510 97 350 c 0
86 350 m 0
 109.5 519 204 710.5 360.5 709.5 c 0
 519 708.5 530.5 501.5 513 350 c 0
 489.5 181 395 -10.5 238.5 -9.5 c 0
 80 -8.5 68.5 198.5 86 350 c 0
EndSplineSet
EndChar

StartChar: uniFF11
Encoding: 65297 65297 354
Width: 533
VWidth: 0
Flags: HMW
LayerCount: 2
Fore
SplineSet
244.5 654.5 m 1
 246.5 665.5 l 1
 428.5 705 l 1
 307 0 l 1
 297 0 l 1
 416 690.5 l 1
 244.5 654.5 l 1
EndSplineSet
EndChar

StartChar: uniFF12
Encoding: 65298 65298 355
Width: 533
VWidth: 0
Flags: HMW
LayerCount: 2
Fore
SplineSet
14.5 0 m 1
 381.5 334 l 2
 437 385 492.5 438 506 519 c 0
 521 601.5 481 699.5 365 700.5 c 0
 237.5 701.5 155.5 585.5 131 460.5 c 1
 121 460.5 l 1
 146 592 232.5 712 365.5 710.5 c 0
 486 709.5 532.5 607 517 519 c 0
 503.5 438 447 380 390.5 328 c 2
 41 10.5 l 1
 457 10 l 1
 455.5 0 l 1
 14.5 0 l 1
EndSplineSet
EndChar

StartChar: uniFF13
Encoding: 65299 65299 356
Width: 533
VWidth: 0
Flags: HMW
LayerCount: 2
Fore
SplineSet
275 362.5 m 1
 276.5 370.5 l 1
 372 376 488 429.5 506.5 533 c 0
 521.5 616 468.5 698.5 366.5 699.5 c 0
 258 700.5 185.5 622 163 527 c 1
 153 527 l 1
 176 629 252.5 710.5 367 709.5 c 0
 476 709 532 622.5 516.5 533.5 c 0
 497 423.5 381.5 367.5 275 362.5 c 1
241.5 -9.5 m 0
 114.5 -9.5 54.5 78 67 185 c 1
 77 185 l 1
 65 81.5 120 0.5 242 0.5 c 0
 354.5 0.5 448.5 74 465 175 c 0
 483.5 293.5 369.5 354 275 360 c 1
 276 367.5 l 1
 381 362 493.5 298 474.5 175 c 0
 457 67 360 -9.5 241.5 -9.5 c 0
EndSplineSet
EndChar

StartChar: uniFF14
Encoding: 65300 65300 357
Width: 533
VWidth: 0
Flags: HMW
LayerCount: 2
Fore
SplineSet
20 140.5 m 1
 31 149.5 l 1
 386 150 l 1
 390 150 l 1
 499.5 150 l 1
 497.5 140 l 1
 20 140.5 l 1
31.5 141 m 1
 20 140.5 l 1
 486.5 699.5 l 1
 489 699.5 l 1
 368.5 0 l 1
 357.5 0 l 1
 382.5 142 l 1
 383 147 l 1
 472 664.5 l 1
 31.5 141 l 1
EndSplineSet
EndChar

StartChar: uniFF15
Encoding: 65301 65301 358
Width: 533
VWidth: 0
Flags: HMW
LayerCount: 2
Fore
SplineSet
484 230 m 0
 464 88 355 -10 224 -9.5 c 0
 123 -9.5 70 49 46.5 137 c 1
 55 142 l 1
 78.5 57 127 1 224.5 0.5 c 0
 350 0 454 95 474 230 c 0
 489.5 336 434 434 325.5 435.5 c 0
 237.5 437 165.5 390 107.5 328.5 c 1
 130.5 359.5 l 1
 171.5 407.5 244.5 446.5 326 445.5 c 0
 440 444 499.5 343 484 230 c 0
266 689.5 m 1
 130.5 359.5 l 1
 107.5 328 l 1
 261 699.5 l 1
 581.5 700 l 1
 580 690 l 1
 266 689.5 l 1
EndSplineSet
EndChar

StartChar: uniFF16
Encoding: 65302 65302 359
Width: 533
VWidth: 0
Flags: HMW
LayerCount: 2
Fore
SplineSet
75.5 220 m 0
 58 107 115.5 1.5 239 0.5 c 0
 363.5 -0.5 461 101 479.5 220 c 0
 494.5 324 432 425 324 426.5 c 0
 193.5 428 95 328.5 75.5 220 c 0
419.5 699 m 1
 432 699 l 1
 136.5 356 l 1
 136 355.5 l 1
 185.5 403 250 438 324.5 437 c 0
 440 435 504.5 328.5 489 220 c 0
 470 93.5 371.5 -10 238.5 -9.5 c 0
 106 -9 47 99.5 65.5 220 c 0
 76 279 111.5 337.5 147 379 c 2
 419.5 699 l 1
EndSplineSet
EndChar

StartChar: uniFF17
Encoding: 65303 65303 360
Width: 533
VWidth: 0
Flags: HMW
LayerCount: 2
Fore
SplineSet
141 690 m 1
 142.5 700 l 1
 599.5 699.5 l 1
 120 0 l 1
 110 0 l 1
 581.5 689.5 l 1
 141 690 l 1
EndSplineSet
EndChar

StartChar: uniFF18
Encoding: 65304 65304 361
Width: 533
VWidth: 0
Flags: HMW
LayerCount: 2
Fore
SplineSet
164 541 m 0
 178.5 629.5 263 710 360.5 709.5 c 0
 456.5 709 514 625.5 500.5 540.5 c 0
 486 447.5 393 368 303 368.5 c 0
 214.5 369 151 451.5 164 541 c 0
173.5 541 m 0
 161.5 457 225.5 376.5 303 375.5 c 0
 382.5 374.5 476.5 453 490.5 541 c 0
 504 622 451 699 360 699.5 c 0
 267.5 700 187.5 625.5 173.5 541 c 0
83.5 185 m 0
 100.5 288 199.5 372 302.5 371.5 c 0
 403.5 371 473.5 285 459 185 c 0
 442.5 78.5 357 -10 238.5 -9.5 c 0
 120.5 -9 67 83 83.5 185 c 0
93.5 185 m 0
 77.5 87.5 129 1 239 0.5 c 0
 349.5 0 433 83 449 185 c 0
 463 280 396 364 302.5 364.5 c 0
 207 365 110 284 93.5 185 c 0
EndSplineSet
EndChar

StartChar: uniFF19
Encoding: 65305 65305 362
Width: 533
VWidth: 0
Flags: HMW
LayerCount: 2
Fore
SplineSet
523.5 480 m 0
 541 593 483.5 698.5 360 699.5 c 0
 235.5 700.5 138 599 119.5 480 c 0
 104.5 376 167 275 275 273.5 c 0
 405.5 272 504 371.5 523.5 480 c 0
179 0 m 1
 167 0 l 1
 462 344 l 1
 462.5 344.5 l 1
 413 297 349 262 274.5 263 c 0
 159 265 94.5 371.5 110 480 c 0
 129 606.5 227.5 710 360.5 709.5 c 0
 493 709 552 600.5 533.5 480 c 0
 523 421 487.5 362.5 452 321 c 2
 179 0 l 1
EndSplineSet
EndChar

StartChar: caron
Encoding: 711 711 363
Width: 465
VWidth: 0
Flags: HMW
LayerCount: 2
Fore
SplineSet
304.5 582.5 m 1
 476 717 l 1
 483 709 l 1
 303.5 570.5 l 1
 171 710 l 1
 180 718 l 1
 304.5 582.5 l 1
EndSplineSet
EndChar

StartChar: napostrophe
Encoding: 329 329 364
Width: 596
VWidth: 0
Flags: HMW
LayerCount: 2
Fore
SplineSet
231.5 459.5 m 1
 152 0 l 1
 142 0 l 1
 222 459.5 l 1
 231.5 459.5 l 1
484 320 m 2
 493.5 392.5 475.5 458.5 389 459.5 c 0
 292.5 460.5 220 369 199.5 281 c 1
 194.5 281 l 1
 215 379 288 470 389.5 469.5 c 0
 481.5 469 504 399 493.5 320 c 2
 438 0 l 1
 428 0 l 1
 484 320 l 2
261 699 m 1
 273 699 l 1
 139.5 471 l 1
 129.5 471 l 1
 261 699 l 1
EndSplineSet
EndChar

StartChar: IJ
Encoding: 306 306 365
Width: 475
VWidth: 0
Flags: HMW
LayerCount: 2
Fore
SplineSet
64.5 -158.5 m 1
 88 -184 121 -208 163 -208.5 c 0
 253 -210 286.5 -145 300 -50 c 2
 428.5 699.5 l 1
 439.5 699.5 l 1
 309.5 -60 l 2
 295.5 -153 256.5 -221 163 -219.5 c 0
 115.5 -219 76.5 -190.5 57 -165 c 1
 64.5 -158.5 l 1
175.5 699.5 m 1
 185.5 699.5 l 1
 64.5 0 l 1
 54.5 0 l 1
 175.5 699.5 l 1
EndSplineSet
EndChar

StartChar: ij
Encoding: 307 307 366
Width: 494
VWidth: 0
Flags: HMW
LayerCount: 2
Fore
SplineSet
416.5 695 m 0
 417 700 422 705 428 705 c 0
 434 705 436.5 700.5 436 695 c 0
 435.5 690 431 685 425 685 c 0
 419 685 416 689.5 416.5 695 c 0
103 -165 m 1
 121 -175 141 -208 171.5 -209.5 c 0
 245.5 -214.5 278.5 -136 288.5 -82 c 2
 382 459.5 l 1
 392 459.5 l 1
 299 -82 l 2
 287.5 -147 250.5 -222 170.5 -219.5 c 0
 133 -218.5 111 -194.5 95.5 -172 c 1
 103 -165 l 1
174 695 m 0
 174.5 700 179 705 185 705 c 0
 191 705 194 700.5 193.5 695 c 0
 193 690 188 685 182 685 c 0
 176 685 173.5 689.5 174 695 c 0
139.5 459.5 m 1
 149 459.5 l 1
 69.5 0 l 1
 59.5 0 l 1
 139.5 459.5 l 1
EndSplineSet
EndChar

StartChar: uni0237
Encoding: 567 567 367
Width: 174
VWidth: 0
Flags: HMW
LayerCount: 2
Fore
SplineSet
-149 -165 m 1
 -134 -186 -114 -208.5 -81 -209.5 c 0
 -6 -211.5 25.5 -138 36.5 -82 c 2
 129.5 459.5 l 1
 139.5 459.5 l 1
 46.5 -82 l 2
 35 -147 -2 -222 -82 -219.5 c 0
 -119.5 -218.5 -141.5 -194.5 -157 -172 c 1
 -149 -165 l 1
EndSplineSet
EndChar

StartChar: Sacute
Encoding: 346 346 368
Width: 473
VWidth: 0
Flags: HMW
LayerCount: 2
Fore
SplineSet
55 197 m 1
 68 109.5 105.5 4.5 220 3.5 c 0
 337 2.5 406.5 77.5 422 175 c 0
 435.5 269.5 368 325.5 293.5 359 c 0
 215.5 393.5 128.5 448.5 144 550 c 0
 158.5 641.5 245.5 708 338.5 707.5 c 0
 441.5 707 483.5 626 492.5 550 c 1
 482.5 548 l 1
 473 619 434.5 696 338 696.5 c 0
 250 697 169 633.5 155 550 c 0
 139 454.5 221.5 402.5 300 368 c 0
 380 333 447 274 433 175 c 0
 417 74.5 344 -8.5 219.5 -7.5 c 0
 100.5 -6.5 59 98 45 193 c 1
 55 197 l 1
527.5 924 m 1
 332.5 769 l 1
 327.5 774 l 1
 520.5 932 l 1
 527.5 924 l 1
EndSplineSet
EndChar

StartChar: sacute
Encoding: 347 347 369
Width: 391
VWidth: 0
Flags: HMW
LayerCount: 2
Fore
SplineSet
46.5 147 m 1
 50.5 78 73.5 0.5 164.5 0 c 0
 234 -0.5 295.5 49 305.5 117 c 0
 315.5 181.5 263.5 210.5 204 231 c 0
 138 254 86.5 280 99 359 c 0
 110.5 426.5 174 468 243.5 467.5 c 0
 315 467 344.5 421.5 357 368 c 1
 347 365 l 1
 335 414.5 308 457 243 457.5 c 0
 180 458 119 420.5 108.5 359 c 0
 96 284.5 148 261.5 210.5 240 c 0
 271 219 325.5 186 315.5 117 c 0
 305 42.5 240 -10 164 -9.5 c 0
 66 -9 40 69.5 36.5 144 c 1
 46.5 147 l 1
432.5 686 m 1
 238 531 l 1
 232.5 536 l 1
 425.5 694 l 1
 432.5 686 l 1
EndSplineSet
EndChar

StartChar: Scircumflex
Encoding: 348 348 370
Width: 473
VWidth: 0
Flags: HMW
LayerCount: 2
Fore
SplineSet
55 197 m 1
 68 109.5 105.5 4.5 220 3.5 c 0
 337 2.5 406.5 77.5 422 175 c 0
 435.5 269.5 368 325.5 293.5 359 c 0
 215.5 393.5 128.5 448.5 144 550 c 0
 158.5 641.5 245.5 708 338.5 707.5 c 0
 441.5 707 483.5 626 492.5 550 c 1
 482.5 548 l 1
 473 619 434.5 696 338 696.5 c 0
 250 697 169 633.5 155 550 c 0
 139 454.5 221.5 402.5 300 368 c 0
 380 333 447 274 433 175 c 0
 417 74.5 344 -8.5 219.5 -7.5 c 0
 100.5 -6.5 59 98 45 193 c 1
 55 197 l 1
373 902.5 m 1
 201 769 l 1
 195 776 l 1
 374.5 914.5 l 1
 506.5 775 l 1
 498.5 768 l 1
 373 902.5 l 1
EndSplineSet
EndChar

StartChar: scircumflex
Encoding: 349 349 371
Width: 391
VWidth: 0
Flags: HMW
LayerCount: 2
Fore
SplineSet
46.5 147 m 1
 50.5 78 73.5 0.5 164.5 0 c 0
 234 -0.5 295.5 49 305.5 117 c 0
 315.5 181.5 263.5 210.5 204 231 c 0
 138 254 86.5 280 99 359 c 0
 110.5 426.5 174 468 243.5 467.5 c 0
 315 467 344.5 421.5 357 368 c 1
 347 365 l 1
 335 414.5 308 457 243 457.5 c 0
 180 458 119 420.5 108.5 359 c 0
 96 284.5 148 261.5 210.5 240 c 0
 271 219 325.5 186 315.5 117 c 0
 305 42.5 240 -10 164 -9.5 c 0
 66 -9 40 69.5 36.5 144 c 1
 46.5 147 l 1
278 664.5 m 1
 106 531 l 1
 100 538 l 1
 279.5 676.5 l 1
 411.5 537 l 1
 403.5 530 l 1
 278 664.5 l 1
EndSplineSet
EndChar

StartChar: uni1E9E
Encoding: 7838 7838 372
Width: 646
VWidth: 0
Flags: HMW
LayerCount: 2
Fore
SplineSet
348.5 -9.5 m 0
 234 -9.5 173.5 82 184.5 185 c 1
 194 185 l 1
 183.5 87 239.5 1 349 0.5 c 0
 457 0 547 84.5 563.5 185 c 0
 583 301 485 353.5 371.5 358 c 1
 373 365.5 l 1
 493 361 593.5 305.5 573.5 185 c 0
 556.5 79 461.5 -9.5 348.5 -9.5 c 0
372 362.5 m 1
 373.5 370 l 1
 490 374.5 585.5 429 603.5 534 c 0
 619.5 635.5 534 698.5 434.5 699.5 c 0
 267 701 158 574 131.5 416 c 2
 59.5 0 l 1
 50 0 l 1
 121 416 l 2
 148.5 581 261 710.5 435 709.5 c 0
 540 709 630.5 642 613.5 533.5 c 0
 594.5 421 495.5 367 372 362.5 c 1
EndSplineSet
EndChar

StartChar: Zacute
Encoding: 377 377 373
Width: 519
VWidth: 0
Flags: HW
LayerCount: 2
Fore
SplineSet
129 689 m 1
 131 700 l 1
 597.5 699.5 l 1
 16 11.5 l 1
 470 11 l 1
 468 0 l 1
 -8.5 0 l 1
 573.5 688.5 l 1
 129 689 l 1
545 924 m 1
 348 769 l 1
 345 774 l 1
 538 932 l 1
 545 924 l 1
EndSplineSet
EndChar

StartChar: zacute
Encoding: 378 378 374
Width: 417
VWidth: 0
Flags: HW
LayerCount: 2
Fore
SplineSet
417 449.5 m 1
 88.5 450 l 1
 90 460 l 1
 440 459.5 l 1
 14.5 10.5 l 1
 372.5 10 l 1
 371 0 l 1
 -8.5 0 l 1
 417 449.5 l 1
446 686 m 1
 249.5 531 l 1
 246 536 l 1
 439 694 l 1
 446 686 l 1
EndSplineSet
EndChar

StartChar: Zdotaccent
Encoding: 379 379 375
Width: 519
VWidth: 0
Flags: HW
LayerCount: 2
Fore
SplineSet
129 689 m 1
 131 700 l 1
 597.5 699.5 l 1
 16 11.5 l 1
 470 11 l 1
 468 0 l 1
 -8.5 0 l 1
 573.5 688.5 l 1
 129 689 l 1
367 779 m 0
 367.5 784.5 373.5 790 379 790 c 0
 384.5 790 389 785 388.5 779 c 0
 388 773.5 381.5 768 376 768 c 0
 370.5 768 366.5 773 367 779 c 0
EndSplineSet
EndChar

StartChar: zdotaccent
Encoding: 380 380 376
Width: 417
VWidth: 0
Flags: HW
LayerCount: 2
Fore
SplineSet
417 449.5 m 1
 88.5 450 l 1
 90 460 l 1
 440 459.5 l 1
 14.5 10.5 l 1
 372.5 10 l 1
 371 0 l 1
 -8.5 0 l 1
 417 449.5 l 1
273 571 m 0
 273.5 576.5 280 582 285.5 582 c 0
 291 582 295 577 294.5 571 c 0
 294 565.5 287.5 560 282 560 c 0
 276.5 560 272.5 565 273 571 c 0
EndSplineSet
EndChar

StartChar: Tcaron
Encoding: 356 356 377
Width: 418
VWidth: 0
Flags: HW
LayerCount: 2
Fore
SplineSet
110 689 m 1
 111.5 700 l 1
 491.5 700 l 1
 489.5 689 l 1
 305 689 l 1
 187 0 l 1
 176 0 l 1
 294 689 l 1
 110 689 l 1
314.75 780.5 m 1
 486.25 915 l 1
 492.75 907 l 1
 313.25 768.5 l 1
 181.25 908 l 1
 190.25 916 l 1
 314.75 780.5 l 1
EndSplineSet
EndChar

StartChar: tcaron
Encoding: 357 357 378
Width: 271
VWidth: 0
Flags: HW
LayerCount: 2
Fore
SplineSet
66 460 m 1
 221.5 460 l 1
 219.5 450 l 1
 64 450 l 1
 66 460 l 1
166.5 619.5 m 1
 176.5 619.5 l 1
 69.5 0 l 1
 59.5 0 l 1
 166.5 619.5 l 1
371.5 774 m 1
 382 769 l 1
 231 521 l 1
 225 523 l 1
 371.5 774 l 1
EndSplineSet
EndChar

StartChar: Uring
Encoding: 366 366 379
Width: 558
VWidth: 0
Flags: HW
LayerCount: 2
Fore
SplineSet
175.5 699.5 m 1
 186 699.5 l 1
 103.5 220 l 2
 88.5 104 129 2 252 1.5 c 0
 375 1 456 98 476 220 c 2
 558.5 699.5 l 1
 569.5 699.5 l 1
 487.5 220 l 2
 466.5 92.5 386 -10 251.5 -9.5 c 0
 117 -9 77 98.5 93 220 c 2
 175.5 699.5 l 1
301 868.5 m 0
 309.5 924 364 968 417.5 967.5 c 0
 470.5 967 508 921.5 500 867.5 c 0
 491.5 812 437 768 383.5 768.5 c 0
 330.5 769 293 814.5 301 868.5 c 0
311 868 m 0
 304 820.5 336.5 779.5 384.5 778.5 c 0
 433 777.5 482.5 819 490 868 c 0
 497 915.5 464.5 956.5 416.5 957.5 c 0
 368 958.5 318.5 917 311 868 c 0
EndSplineSet
EndChar

StartChar: uring
Encoding: 367 367 380
Width: 460
VWidth: 0
Flags: HW
LayerCount: 2
Fore
SplineSet
341 0 m 1
 420.5 459.5 l 1
 430.5 459.5 l 1
 351 0 l 1
 341 0 l 1
90.5 150 m 2
 80.5 72.5 95 1 184 0.5 c 0
 280.5 -0.5 352.5 90.5 373 179 c 1
 378.5 179 l 1
 358 81 284.5 -10.5 183 -9.5 c 0
 88 -9 69.5 65.5 80.5 150 c 2
 134.5 459.5 l 1
 144.5 459.5 l 1
 90.5 150 l 2
211.25 630.5 m 0
 219.75 686 274.25 730 327.75 729.5 c 0
 380.75 729 418.25 683.5 410.25 629.5 c 0
 401.75 574 347.25 530 293.75 530.5 c 0
 240.75 531 203.25 576.5 211.25 630.5 c 0
221.25 630 m 0
 214.25 582.5 246.75 541.5 294.75 540.5 c 0
 343.25 539.5 392.75 581 400.25 630 c 0
 407.25 677.5 375.25 718.5 327.25 719.5 c 0
 278.75 720.5 228.75 679 221.25 630 c 0
EndSplineSet
EndChar
